<svg width="59" height="45" viewBox="0 0 59 45" fill="none" xmlns="http://www.w3.org/2000/svg"><path d="M4.3913 21.5238V41C4.3913 42.1046 5.28673 43 6.3913 43H52.2101C53.3147 43 54.2101 42.1046 54.2101 41V21.5238M4.3913 21.5238L3.12016 20.9011C2.43459 20.5653 2 19.8684 2 19.105V6.68571H21.9275M4.3913 21.5238C10.365 23.253 16.1999 24.4385 21.9275 25.0339M54.2101 21.5238L55.7743 20.867C56.5169 20.5552 57 19.8284 57 19.023V6.68571H36.2754M54.2101 21.5238C48.3002 23.5504 42.3355 24.772 36.2754 25.2484M21.9275 6.68571V4C21.9275 2.89543 22.823 2 23.9275 2H34.2754C35.3799 2 36.2754 2.89543 36.2754 4V6.68571M21.9275 6.68571H36.2754M36.2754 25.2484V28.1143C36.2754 29.2189 35.3799 30.1143 34.2754 30.1143H23.9275C22.823 30.1143 21.9275 29.2189 21.9275 28.1143V25.0339M36.2754 25.2484C31.557 25.6193 26.7807 25.5384 21.9275 25.0339" stroke="#0341F4" stroke-width="2.2"/></svg>