<svg width="33" height="32" viewBox="0 0 33 32" fill="none" xmlns="http://www.w3.org/2000/svg"><path d="M22.4972 14.9643C22.7949 15.411 23.1672 15.7088 23.5394 16.0811C23.7628 16.3044 23.9861 16.6022 23.6139 16.9C23.3161 17.1978 23.0183 16.9745 22.7949 16.7511C22.4227 16.3789 22.0505 15.9322 21.6038 15.4855C21.4549 15.8577 21.5293 16.1555 21.5293 16.4533C21.5293 17.1234 21.5293 17.7934 21.5293 18.4635C21.5293 19.9524 20.7848 20.6225 19.2958 20.3247C19.1469 20.6969 19.2958 20.9947 19.2214 21.367C19.1469 22.4837 18.4024 23.1538 17.2857 23.0049C16.9879 22.9304 16.839 22.9304 16.7645 23.2282C16.6901 23.4516 16.5412 23.6749 16.3179 23.7494C15.2756 24.2705 14.68 25.1639 13.9355 25.9084C13.3399 26.4295 12.7443 26.8762 11.9253 26.9507C11.5531 26.9507 11.1808 27.0996 10.883 27.3229C10.5852 27.5463 10.3619 27.6952 10.6597 28.1419C10.883 28.5141 10.7341 28.8864 10.5108 29.1842C9.7663 29.9287 9.02181 30.7476 8.27731 31.4921C7.83062 31.9388 7.23502 31.9388 6.78832 31.4921C5.44823 30.152 4.10814 28.8119 2.76805 27.4718C2.54471 27.2485 2.39581 26.9507 2.61916 26.6529C2.91695 26.3551 3.21475 26.5784 3.4381 26.8018C4.62929 27.993 5.89493 29.2586 7.08612 30.4498C7.38392 30.7476 7.53282 30.8221 7.83062 30.4498C8.35176 29.8542 8.87291 29.3331 9.39405 28.8119C9.6174 28.5886 9.69185 28.4397 9.39405 28.1419C7.45837 26.2062 5.52268 24.345 3.66145 22.4093C3.4381 22.1859 3.2892 22.1115 2.9914 22.4093C2.47026 23.0049 1.87466 23.526 1.27907 24.1216C0.981269 24.4194 1.05572 24.5683 1.27907 24.7917C1.42797 24.9406 1.57686 25.0895 1.72576 25.3128C1.87466 25.5362 1.87466 25.7595 1.72576 25.9084C1.50241 26.1317 1.27907 26.1317 1.13017 25.9828C0.75792 25.685 0.385673 25.3872 0.162325 25.015C-0.135473 24.5683 0.0134262 24.1216 0.311224 23.8238C1.05572 23.0793 1.80021 22.3348 2.54471 21.5903C2.91695 21.2181 3.36365 21.1436 3.7359 21.4414C4.03369 21.6648 4.10814 21.5159 4.33149 21.2925C4.62929 20.9203 4.70374 20.548 4.70374 20.1013C4.70374 19.7291 4.70374 19.3568 4.70374 18.9846C4.70374 18.0168 5.00154 17.2723 5.74603 16.6022C6.34163 16.0066 6.93722 15.411 7.53282 14.8154C7.97951 14.3687 8.42621 13.9965 9.09626 13.922C9.39405 13.8476 9.3196 13.7731 9.3196 13.5498C9.02181 12.0608 9.1707 10.6463 9.24515 9.15728C9.3196 8.48724 9.69185 8.04053 10.1385 7.59384C10.5852 7.07269 11.1808 6.70045 11.4042 5.95595C11.4786 5.58371 11.6275 5.21145 11.0319 5.13701C10.6597 5.06256 10.4363 4.69031 10.4363 4.24361C10.4363 3.20132 10.4363 2.08458 10.4363 1.04229C10.4363 0.372243 10.883 0.0744494 11.6275 0C13.1165 0 14.5311 0 16.0201 0C17.3601 0 18.7002 0 20.1148 0C21.0826 0 21.4549 0.372245 21.4549 1.26564C21.4549 2.15903 21.4549 2.97797 21.4549 3.87137C21.4549 4.46696 21.306 4.98811 20.6359 5.13701C20.4126 5.21145 20.4126 5.36035 20.4126 5.50925C20.4126 5.95595 20.5615 6.40264 20.8593 6.77489C21.3804 7.44494 21.6038 8.18943 21.6038 9.00837C21.6038 10.5718 21.6038 12.0608 21.6038 13.6242C21.6038 14.2943 21.6782 14.2943 22.2738 14.0709C23.2416 13.6987 24.2095 13.7731 24.954 14.5176C25.7729 15.2621 26.5174 16.0811 27.3364 16.9C27.6342 17.1978 27.7831 17.4956 27.8575 17.8679C27.932 18.2401 27.932 18.6123 28.4531 18.6868C28.7509 18.7612 28.7509 19.3568 28.4531 19.4313C27.8575 19.5802 28.0064 20.0269 28.0064 20.3991C28.0064 20.6969 28.1553 20.9203 28.3042 21.1436C28.4531 21.4414 28.6765 21.6648 29.0487 21.367C29.4209 21.1436 29.8676 21.2181 30.1654 21.5903C30.9099 22.3348 31.6544 23.0793 32.3989 23.8238C32.9201 24.345 32.8456 24.8661 32.3245 25.3872C30.9844 26.7273 29.6443 28.0674 28.3042 29.4075C27.6342 30.0776 26.9641 30.7476 26.2941 31.4177C25.6985 32.0132 25.1773 32.0132 24.6562 31.4177C23.9861 30.7476 23.3161 30.0776 22.6461 29.4075C22.2738 29.0353 22.0505 28.5886 22.4227 28.0674C22.5716 27.8441 22.4972 27.7696 22.3483 27.6207C21.976 27.2485 21.5293 27.0251 21.0826 27.0251C20.2637 26.9507 19.5936 26.5784 19.0725 25.9828C18.7002 25.6106 18.2535 25.1639 17.8813 24.7917C17.6579 24.5683 17.509 24.2705 17.8068 24.0472C18.0302 23.7494 18.328 23.8983 18.5513 24.1216C18.998 24.5683 19.4447 25.015 19.8914 25.4617C20.2637 25.8339 20.6359 26.0573 21.1571 26.0573C21.8271 26.1317 22.4972 26.4295 22.9438 26.8762C23.1672 27.0996 23.3161 27.0996 23.5394 26.8762C24.954 25.4617 26.3685 23.9727 27.7831 22.5582C28.0064 22.3348 28.0064 22.1859 27.7831 21.9626C27.2619 21.367 27.0386 20.6969 27.0386 19.9524C27.0386 19.5802 27.0386 19.1335 27.0386 18.7613C27.0386 18.3146 26.8897 17.8679 26.5174 17.5701C25.7729 16.8256 25.1029 16.0811 24.3584 15.411C23.8372 14.741 23.2416 14.6665 22.4972 14.9643ZM20.5615 13.6242C20.5615 12.0608 20.5615 10.5718 20.5615 9.00837C20.5615 8.41278 20.487 7.89164 20.1148 7.44494C19.6681 6.9238 19.4447 6.25375 19.4447 5.58371C19.4447 5.21146 19.2958 5.13701 18.9236 5.13701C17.9557 5.13701 16.9134 5.13701 15.9456 5.13701C15.5734 5.13701 15.2756 5.13701 15.2756 4.61586C15.2756 4.16917 15.6478 4.16916 16.0201 4.16916C17.3601 4.16916 18.6258 4.16916 19.9659 4.16916C20.4126 4.16916 20.487 4.02026 20.487 3.64802C20.487 2.90352 20.487 2.15903 20.487 1.41453C20.487 1.04229 20.4126 0.893391 19.9659 0.893391C17.2857 0.893391 14.6055 0.893391 11.8509 0.893391C11.4786 0.893391 11.4042 1.04229 11.4042 1.34009C11.4042 2.08459 11.4042 2.90352 11.4042 3.64802C11.4042 4.09471 11.5531 4.16916 11.9253 4.16916C12.372 4.16916 12.8932 4.16916 13.4143 4.16916C13.7121 4.16916 13.9355 4.31806 13.9355 4.61586C13.9355 4.91366 13.7121 5.13701 13.4888 5.06256C12.6698 4.91366 12.4465 5.2859 12.4465 6.0304C12.372 6.55154 12.0742 6.99824 11.702 7.37049C11.4042 7.66829 11.1064 7.96608 10.8086 8.26388C10.4363 8.63613 10.213 9.08282 10.213 9.60397C10.213 10.5718 10.213 11.6141 10.213 12.5819C10.213 13.1031 10.4363 13.6242 10.883 13.922C11.0319 13.9965 11.1064 14.1454 11.3297 14.0709C11.4786 13.9965 11.4042 13.8476 11.4042 13.6987C11.4042 13.3264 11.4042 12.9542 11.4042 12.5075C11.4042 12.2097 11.5531 11.9864 11.9253 11.9864C12.2231 11.9864 12.372 12.2097 12.372 12.5819C12.372 12.7308 12.372 12.8797 12.372 13.0286C12.372 15.6344 12.372 18.2401 12.372 20.8458C12.372 21.0692 12.372 21.2925 12.4465 21.5159C12.5209 21.8881 12.7443 22.037 13.1165 22.037C13.4888 22.037 13.7121 21.8137 13.7866 21.5159C13.861 21.2925 13.7866 21.1436 13.7866 20.9203C13.7866 18.5379 13.7866 16.1555 13.7866 13.8476C13.7866 13.6987 13.7866 13.4753 13.861 13.3264C13.9355 13.1031 14.0844 13.0286 14.3077 13.0286C14.5311 13.0286 14.68 13.1775 14.7544 13.4009C14.7544 13.5498 14.7544 13.7731 14.7544 13.922C14.7544 16.6022 14.7544 19.2824 14.7544 22.037C14.7544 22.1859 14.7544 22.4093 14.7544 22.5582C14.8289 22.9304 14.9778 23.3027 15.4245 23.2282C15.8712 23.2282 16.0945 22.9304 16.0945 22.4837C16.0945 22.2604 16.0945 22.1115 16.0945 21.8881C16.0945 19.2079 16.0945 16.6022 16.0945 13.922C16.0945 13.6987 16.0945 13.5498 16.0945 13.3264C16.169 13.1031 16.3179 12.9542 16.5412 12.9542C16.7645 12.9542 16.9879 13.0286 16.9879 13.3264C17.0623 13.5498 17.0623 13.7731 17.0623 13.9965C17.0623 16.3789 17.0623 18.6868 17.0623 21.0692C17.0623 21.2181 17.0623 21.367 17.0623 21.4414C17.0623 21.8881 17.2857 22.1115 17.7324 22.1115C18.1046 22.1115 18.328 21.8881 18.4024 21.5159C18.4024 21.367 18.4024 21.2181 18.4024 21.0692C18.4024 18.7613 18.4024 16.4533 18.4024 14.1454C18.4024 13.922 18.4024 13.6987 18.4024 13.4753C18.4024 13.1775 18.6258 13.0286 18.8491 13.0286C19.1469 13.0286 19.2958 13.1775 19.2958 13.4753C19.2958 13.6242 19.2958 13.7731 19.2958 13.922C19.2958 15.4855 19.2958 17.0489 19.2958 18.6124C19.2958 19.0591 19.4447 19.4313 19.8914 19.4313C20.4126 19.4313 20.5615 19.1335 20.6359 18.6124C20.6359 18.4635 20.6359 18.3146 20.6359 18.1657C20.5615 16.6767 20.5615 15.1132 20.5615 13.6242ZM11.3297 15.6344L11.1808 15.5599C10.8086 16.0066 10.3619 16.3789 9.98965 16.8256C9.7663 17.0489 9.4685 17.1978 9.24515 16.9C8.94736 16.6022 9.09626 16.3789 9.3196 16.1555C9.6174 15.8577 9.9152 15.5599 10.213 15.2621C10.5108 15.0388 10.3619 14.8899 10.0641 14.8899C9.4685 14.741 8.94736 14.8899 8.50066 15.3366C8.05396 15.7833 7.60727 16.3044 7.08612 16.7511C6.04383 17.5701 5.67158 18.5379 5.82048 19.878C5.89493 20.6969 5.67158 21.4414 5.07599 22.037C4.92709 22.2604 4.85264 22.3348 5.07599 22.5582C6.56497 23.9727 7.97951 25.4617 9.39405 26.9507C9.6174 27.174 9.69185 27.174 9.9152 26.9507C10.2874 26.5784 10.6597 26.2062 11.1808 26.2062C12.2976 26.1317 13.0421 25.4617 13.7866 24.7172C14.1588 24.345 14.6055 23.9727 13.9355 23.526C13.861 23.526 13.861 23.4516 13.861 23.3771C13.7866 23.0049 13.4888 23.0049 13.191 23.0793C12.5209 23.1538 11.9998 22.9304 11.6275 22.4093C11.3297 22.037 11.3297 21.5159 11.3297 21.0692C11.3297 19.1335 11.3297 17.4212 11.3297 15.6344ZM31.8033 24.4194C31.7289 24.345 31.6544 24.1961 31.58 24.1216C30.9844 23.526 30.3888 22.9304 29.7932 22.3348C29.5698 22.1115 29.4954 22.1115 29.272 22.3348C27.3364 24.2705 25.3262 26.2807 23.3905 28.2163C23.1672 28.4397 23.1672 28.5141 23.3905 28.7375C23.9861 29.3331 24.5817 29.9287 25.1773 30.5243C25.4007 30.7476 25.5496 30.7476 25.6985 30.5243C27.6342 28.5886 29.5698 26.6529 31.5055 24.6428C31.6544 24.6428 31.6544 24.5683 31.8033 24.4194Z" fill="#EB00FF"/><path d="M7.60734 28.142C7.90514 28.142 8.12849 28.2909 8.12849 28.6631C8.12849 28.9609 7.97959 29.1098 7.68179 29.1098C7.38399 29.1098 7.16064 28.9609 7.16064 28.5887C7.16064 28.3653 7.30954 28.2164 7.60734 28.142Z" fill="#EB00FF"/><path d="M26.2944 8.93396C26.5921 9.00841 26.741 9.15731 26.741 9.4551C26.741 9.7529 26.5177 9.9018 26.2199 9.9018C25.9221 9.9018 25.8477 9.67845 25.8477 9.4551C25.8477 9.08286 25.9966 9.00841 26.2944 8.93396Z" fill="#EB00FF"/><path d="M11.6274 28.8864C11.3296 28.8864 11.1807 28.6631 11.1807 28.3653C11.1807 28.0675 11.3296 27.9186 11.6274 27.9186C11.9252 27.9186 12.0741 28.0675 12.0741 28.3653C12.0741 28.6631 11.9252 28.812 11.6274 28.8864Z" fill="#EB00FF"/><path d="M19.5936 28.663C19.5936 28.9608 19.4447 29.1841 19.1469 29.1841C18.8491 29.1841 18.7002 29.0352 18.7002 28.7374C18.7002 28.4396 18.8491 28.2907 19.1469 28.2907C19.3702 28.2163 19.5191 28.4396 19.5936 28.663Z" fill="#EB00FF"/><path d="M15.35 28.6631C15.6478 28.7375 15.7967 28.812 15.7967 29.1098C15.7967 29.4076 15.6478 29.5565 15.35 29.5565C15.0522 29.5565 14.9033 29.4076 14.9033 29.1098C14.9033 28.8864 15.0522 28.6631 15.35 28.6631Z" fill="#EB00FF"/><path d="M3.28921 15.8578C3.58701 15.9322 3.81036 16.0811 3.73591 16.3789C3.73591 16.6767 3.51256 16.8256 3.21476 16.8256C2.91697 16.8256 2.76807 16.6767 2.76807 16.3789C2.84252 16.0811 2.99141 15.9322 3.28921 15.8578Z" fill="#EB00FF"/><path d="M22.348 5.50928C22.348 5.80707 22.1246 5.95598 21.9013 5.95598C21.6035 5.95598 21.4546 5.80707 21.4546 5.50928C21.4546 5.21148 21.6035 5.06259 21.9013 5.06259C22.1991 4.98814 22.2735 5.21148 22.348 5.50928Z" fill="#EB00FF"/><path d="M25.0282 8.33833C24.7304 8.26388 24.5815 8.11498 24.5815 7.81718C24.5815 7.51939 24.7304 7.37048 25.0282 7.37048C25.326 7.37048 25.4749 7.51939 25.5494 7.81718C25.4749 8.18943 25.326 8.33833 25.0282 8.33833Z" fill="#EB00FF"/><path d="M6.11849 9.23172C6.11849 9.45506 5.89514 9.67842 5.67179 9.67842C5.374 9.67842 5.2251 9.45507 5.2251 9.15727C5.2251 8.93392 5.374 8.71057 5.67179 8.71057C5.96959 8.71057 6.11849 8.85947 6.11849 9.23172Z" fill="#EB00FF"/><path d="M10.4364 5.5837C10.4364 5.80704 10.213 5.95594 9.98966 5.88149C9.69187 5.88149 9.54297 5.7326 9.54297 5.4348C9.54297 5.137 9.76632 4.9881 9.98966 4.9881C10.2875 4.9881 10.4364 5.137 10.4364 5.5837Z" fill="#EB00FF"/><path d="M8.79867 6.47706C8.79867 6.77486 8.64977 6.92376 8.35197 6.92376C8.05417 6.92376 7.90527 6.77486 7.90527 6.47706C7.90527 6.17926 8.05417 6.03036 8.35197 6.03036C8.64977 5.95591 8.79867 6.17926 8.79867 6.47706Z" fill="#EB00FF"/><path d="M24.0609 6.4771C24.0609 6.77489 23.912 6.99824 23.6142 6.99824C23.3164 6.99824 23.1675 6.84935 23.1675 6.55155C23.1675 6.25375 23.3164 6.0304 23.6142 6.0304C23.8375 6.0304 23.9864 6.25375 24.0609 6.4771Z" fill="#EB00FF"/><path d="M7.38386 7.7427C7.30941 8.0405 7.16051 8.1894 6.86271 8.1894C6.56491 8.1894 6.41602 8.0405 6.41602 7.7427C6.41602 7.4449 6.56491 7.29601 6.86271 7.22156C7.23496 7.22156 7.38386 7.4449 7.38386 7.7427Z" fill="#EB00FF"/><path d="M28.453 16.5277C28.7508 16.5277 28.8997 16.6766 28.8997 16.9744C28.8997 17.2722 28.7508 17.4211 28.5275 17.4211C28.2297 17.4211 28.0063 17.2722 28.0063 16.9744C28.0063 16.7511 28.1552 16.5277 28.453 16.5277Z" fill="#EB00FF"/><path d="M3.36369 17.7935C3.66149 17.7935 3.81039 17.9424 3.81039 18.2402C3.81039 18.538 3.66149 18.6868 3.36369 18.6868C3.14034 18.6868 2.91699 18.538 2.91699 18.2402C2.91699 18.0168 3.06589 17.7935 3.36369 17.7935Z" fill="#EB00FF"/><path d="M3.81047 20.6225C3.51267 20.5481 3.36377 20.3992 3.36377 20.1758C3.36377 19.878 3.58712 19.7291 3.88492 19.7291C4.18271 19.7291 4.33161 19.878 4.33161 20.1758C4.25716 20.3992 4.10826 20.5481 3.81047 20.6225Z" fill="#EB00FF"/><path d="M3.95917 13.0286C3.66138 12.9542 3.43803 12.8053 3.51248 12.5075C3.51248 12.2097 3.73582 12.0608 4.03362 12.0608C4.33142 12.0608 4.48032 12.2097 4.48032 12.5075C4.40587 12.8797 4.18252 13.0286 3.95917 13.0286Z" fill="#EB00FF"/><path d="M27.7833 11.1674C27.7088 11.4652 27.5599 11.6141 27.2621 11.6141C26.9643 11.6141 26.8154 11.3908 26.8154 11.093C26.8154 10.7952 27.0388 10.6463 27.2621 10.6463C27.5599 10.7208 27.7088 10.9441 27.7833 11.1674Z" fill="#EB00FF"/><path d="M5.15072 10.7952C5.07627 11.0929 5.00182 11.3163 4.70402 11.3163C4.40622 11.3163 4.25732 11.1674 4.25732 10.8696C4.25732 10.5718 4.40622 10.4229 4.70402 10.4229C4.92737 10.3485 5.07627 10.4974 5.15072 10.7952Z" fill="#EB00FF"/><path d="M21.3802 28.0674C21.3802 28.3652 21.2313 28.5141 20.9335 28.5141C20.6357 28.5141 20.4868 28.3652 20.4868 28.0674C20.4868 27.7696 20.6357 27.6207 20.9335 27.5463C21.2313 27.6207 21.3802 27.7696 21.3802 28.0674Z" fill="#EB00FF"/><path d="M27.932 12.582C28.2298 12.6564 28.3787 12.8053 28.3787 13.1031C28.3787 13.4009 28.1554 13.5498 27.932 13.5498C27.6342 13.5498 27.4854 13.4009 27.4854 13.1031C27.4854 12.7309 27.7087 12.582 27.932 12.582Z" fill="#EB00FF"/><path d="M28.8255 15.0387C28.8255 15.3365 28.6766 15.4854 28.3788 15.4854C28.081 15.4854 27.9321 15.2621 27.9321 14.9643C27.9321 14.6665 28.081 14.5176 28.3788 14.5176C28.6766 14.5176 28.8255 14.6665 28.8255 15.0387Z" fill="#EB00FF"/><path d="M13.4889 29.3331C13.1911 29.3331 12.9678 29.1842 12.9678 28.8864C12.9678 28.5886 13.1167 28.4397 13.4145 28.4397C13.6378 28.4397 13.8612 28.5886 13.8612 28.8864C13.9356 29.1097 13.7867 29.3331 13.4889 29.3331Z" fill="#EB00FF"/><path d="M17.7325 29.1097C17.658 29.4075 17.5091 29.5564 17.2113 29.5564C16.9135 29.5564 16.7646 29.3331 16.7646 29.0353C16.7646 28.7375 16.988 28.5886 17.2113 28.663C17.5836 28.5886 17.7325 28.8119 17.7325 29.1097Z" fill="#EB00FF"/><path d="M3.95931 14.4433C3.95931 14.7411 3.81041 14.89 3.51261 14.89C3.21482 14.89 3.06592 14.6666 3.06592 14.4433C3.06592 14.2199 3.21482 13.9966 3.51261 13.9966C3.73596 13.9966 3.88486 14.071 3.95931 14.4433Z" fill="#EB00FF"/><path d="M13.4888 2.53131C13.4888 2.82911 13.2655 3.05245 12.9677 3.05245C12.6699 3.05245 12.521 2.82911 12.521 2.60576C12.521 2.30797 12.7443 2.08462 13.0421 2.08462C13.2655 2.01017 13.4888 2.23351 13.4888 2.53131Z" fill="#EB00FF"/><path d="M30.1653 24.2704C30.1653 24.5682 29.942 24.7916 29.6442 24.7916C29.3464 24.7916 29.1975 24.5682 29.123 24.3449C29.123 24.0471 29.3464 23.8238 29.6442 23.8238C29.942 23.7493 30.0909 23.9726 30.1653 24.2704Z" fill="#EB00FF"/></svg>