<svg width="50" height="41" viewBox="0 0 50 41" fill="none" xmlns="http://www.w3.org/2000/svg"><path d="M24.8829 39.5725C18.176 34.981 5.73282 35.3353 0.790865 37.8451C0.570242 37.9633 0.481986 38.229 0.599652 38.4505C0.717317 38.6719 0.982079 38.7605 1.2027 38.6424C6.0417 36.1768 18.4554 36.0144 24.6329 40.4731C24.7064 40.5321 24.8094 40.5617 24.8976 40.5617C24.9859 40.5617 25.0741 40.5321 25.1623 40.4731C31.3398 36.0144 43.7535 36.1768 48.5925 38.6424C48.8131 38.7457 49.0779 38.6719 49.1956 38.4505C49.3132 38.229 49.225 37.9633 49.0044 37.8451C44.033 35.3353 31.5898 34.981 24.8829 39.5725Z" fill="#0341F4" stroke="#0341F4" stroke-width=".8"/><path d="M28.7069 9.3807C28.4716 9.46928 28.3539 9.72026 28.4421 9.95648C28.5157 10.1336 28.6775 10.2518 28.8687 10.2518C28.9128 10.2518 28.9716 10.237 29.0158 10.2222C33.3547 8.62775 39.3997 8.17007 44.4152 9.05589C44.6506 9.08542 44.8859 8.93779 44.93 8.6868C44.9742 8.43582 44.8124 8.21436 44.5623 8.17007C39.4145 7.26949 33.1929 7.74193 28.7069 9.3807Z" fill="#0341F4" stroke="#0341F4" stroke-width=".8"/><path d="M44.5623 16.7351C39.4145 15.8345 33.1782 16.3069 28.7069 17.9457C28.4716 18.0343 28.3539 18.2852 28.4421 18.5215C28.5157 18.6986 28.6775 18.8167 28.8687 18.8167C28.9128 18.8167 28.9716 18.802 29.0158 18.7872C33.3547 17.1927 39.3997 16.7351 44.4152 17.6209C44.6506 17.6504 44.8859 17.5028 44.93 17.2518C44.9742 17.0008 44.8124 16.7794 44.5623 16.7351Z" fill="#0341F4" stroke="#0341F4" stroke-width=".8"/><path d="M44.5623 25.6503C39.3997 24.7497 33.1782 25.2222 28.7069 26.861C28.4716 26.9495 28.3539 27.2005 28.4421 27.4367C28.5157 27.6139 28.6775 27.732 28.8687 27.732C28.9128 27.732 28.9716 27.7173 29.0158 27.7025C33.3547 26.108 39.3997 25.6503 44.4152 26.5362C44.6506 26.5804 44.8859 26.418 44.93 26.1671C44.9742 25.9161 44.8124 25.6946 44.5623 25.6503Z" fill="#0341F4" stroke="#0341F4" stroke-width=".8"/><path d="M48.9749 3.1947C44.0329 0.670102 31.5898 0.315773 24.8828 4.92205C18.1759 0.315773 5.73276 0.670102 0.790804 3.1947C0.643722 3.26852 0.540771 3.43092 0.540771 3.59332V34.228C0.540771 34.3904 0.629006 34.5233 0.746672 34.6119C0.879046 34.6857 1.04084 34.7005 1.18792 34.6267C6.02692 32.1611 18.4406 31.9987 24.6181 36.4574C24.6916 36.5164 24.7946 36.5459 24.8828 36.5459C24.9711 36.5459 25.0593 36.5164 25.1476 36.4574C31.325 31.9987 43.7388 32.1611 48.5778 34.6267C48.7101 34.7005 48.8866 34.6857 49.019 34.6119C49.1514 34.5233 49.2249 34.3904 49.2249 34.228V3.59332C49.2249 3.43092 49.122 3.26852 48.9749 3.1947ZM1.43797 33.5341V3.87383C6.37992 1.54116 18.3083 1.45258 24.4416 5.70453V35.2763C20.7793 32.9584 15.602 31.984 10.8365 31.984C7.14475 31.9987 3.70303 32.5745 1.43797 33.5341ZM48.3277 33.5341C43.1357 31.3491 31.8398 31.1719 25.3241 35.291V5.70453C31.4574 1.45258 43.371 1.54116 48.3277 3.87383V33.5341Z" fill="#0341F4" stroke="#0341F4" stroke-width=".8"/><path d="M4.3353 15.0159L7.11516 16.2118V19.4598C7.11516 21.32 8.61539 22.8259 10.4686 22.8259H15.8224C17.6756 22.8259 19.1759 21.32 19.1759 19.4598V16.2118L21.9557 15.0159C22.1175 14.9421 22.2205 14.7797 22.2205 14.6025C22.2205 14.4254 22.1175 14.263 21.9557 14.1892L13.322 10.4687C13.2044 10.4244 13.0867 10.4244 12.969 10.4687L4.3353 14.1892C4.17351 14.263 4.07056 14.4254 4.07056 14.6025C4.07056 14.7797 4.17351 14.9421 4.3353 15.0159ZM18.2934 16.5956V19.4598C18.2934 20.8181 17.1903 21.9401 15.8224 21.9401H10.4686C9.11547 21.9401 7.99765 20.8328 7.99765 19.4598V16.5956L12.969 18.7364C13.0279 18.7659 13.0867 18.7659 13.1455 18.7659C13.2044 18.7659 13.2632 18.7512 13.322 18.7364L18.2934 16.5956ZM13.1455 11.3693L20.6614 14.6025L13.1455 17.8506L5.62963 14.6025L13.1455 11.3693Z" fill="#0341F4" stroke="#0341F4" stroke-width=".8"/></svg>