<svg width="34" height="34" viewBox="0 0 34 34" fill="none" xmlns="http://www.w3.org/2000/svg"><path d="M7.07269 24.3653H3.72247C2.82908 24.3653 1.86123 24.3653 0.967833 24.3653C0.223339 24.3653 0.0744312 24.2164 0.0744312 23.4719C0.0744312 22.8763 0.0744312 22.2062 0.0744312 21.6107C0.0744312 21.164 0.29777 21.0151 0.670018 21.0151C0.744467 21.0151 0.818925 21.0151 0.818925 21.0151C1.26562 20.9406 1.93566 21.2384 2.15901 20.8662C2.38235 20.5684 2.23348 19.9728 2.23348 19.5261C2.23348 13.4212 2.23348 7.39081 2.23348 1.28596C2.23348 0.392564 2.30792 0.318115 3.20132 0.318115H30.2264C31.1198 0.318115 31.1943 0.392564 31.1943 1.28596C31.1943 7.61416 31.1943 13.9424 31.1943 20.2706C31.1943 20.7917 31.3432 20.9406 31.8643 20.9406C33.5767 20.8662 33.4278 20.7917 33.4278 22.504C33.4278 22.8018 33.4278 23.0996 33.4278 23.3974C33.4278 24.0675 33.2789 24.2908 32.5344 24.2908C30.7476 24.2908 28.8863 24.2908 27.0996 24.2908C26.8762 24.2908 26.6529 24.2164 26.4295 24.3653C26.8762 25.9287 27.3229 27.4922 27.8441 29.0556C28.1419 30.0979 28.4397 31.1402 28.7375 32.1825C28.8119 32.5547 28.9608 32.7036 29.4075 32.7036C30.5987 32.7036 31.7899 32.7036 32.9811 32.7036C33.4278 32.7036 33.5022 32.8525 33.5022 33.2248C33.5022 33.597 33.5022 33.8204 32.9811 33.8204C22.1859 33.8204 11.3163 33.8204 0.52111 33.8204C0.0744131 33.8204 0 33.597 0 33.2248C0 32.8525 0.0744131 32.6292 0.52111 32.7036C1.78675 32.7036 2.97794 32.7036 4.24358 32.7036C4.46693 32.7036 4.69029 32.7036 4.76474 32.3314C5.50923 29.7256 6.25372 27.1944 6.99822 24.5886C7.07267 24.5886 7.07269 24.5142 7.07269 24.3653ZM6.99822 20.9406C7.14712 20.9406 7.22158 20.9406 7.29603 20.9406C14.741 20.9406 22.1859 20.9406 29.7053 20.9406C30.152 20.9406 30.2264 20.7173 30.2264 20.345C30.2264 14.2402 30.2264 8.06085 30.2264 1.956C30.2264 1.43486 30.0775 1.36041 29.5564 1.36041C21.0691 1.36041 12.582 1.36041 4.09472 1.36041C3.57357 1.36041 3.42466 1.50931 3.42466 2.03045C3.42466 7.91196 3.42466 13.7935 3.42466 19.675C3.42466 21.0151 3.42465 21.0151 4.76474 20.8662C4.69029 20.6428 4.46697 20.4195 4.46697 20.1961C4.46697 18.7816 4.46697 17.4415 4.46697 16.0269C4.46697 15.5802 4.69031 15.3569 5.21146 15.3569C5.58371 15.3569 6.03039 15.3569 6.40263 15.3569C7.14713 15.3569 7.29603 15.5058 7.29603 16.2503C7.29603 17.4415 7.29603 18.6327 7.29603 19.8239C7.37048 20.2706 7.37047 20.6428 6.99822 20.9406ZM25.4617 32.7036C25.4617 32.5547 25.4617 32.4803 25.3872 32.4058C24.6427 29.8745 23.8982 27.2688 23.1538 24.7375C23.0793 24.3653 22.856 24.3653 22.5582 24.3653C18.6868 24.3653 14.8154 24.3653 10.944 24.3653C10.5718 24.3653 10.4229 24.5142 10.274 24.8864C9.97621 26.0032 9.60398 27.1944 9.30618 28.3111C8.85948 29.8001 8.41278 31.2146 8.04053 32.7036H25.4617ZM16.7511 23.1741C21.7392 23.1741 26.7273 23.1741 31.7154 23.1741C31.8643 23.1741 32.0132 23.1741 32.1621 23.1741C32.311 23.1741 32.3855 23.0996 32.4599 22.9507C32.6088 22.2807 32.4599 22.0573 31.7899 22.0573C21.8136 22.0573 11.8375 22.0573 1.86124 22.0573C1.71234 22.0573 1.63789 22.0573 1.48899 22.0573C1.26564 22.0573 1.19117 22.1318 1.19117 22.3551C1.11672 23.0996 1.19119 23.0996 1.86124 23.0996C6.84935 23.1741 11.763 23.1741 16.7511 23.1741ZM6.40263 32.7036C6.84933 32.7781 6.99825 32.6292 7.07269 32.1825C7.22159 31.5869 7.37047 31.0657 7.51937 30.5446C8.11497 28.6089 8.63612 26.7477 9.15727 24.812C9.23172 24.6631 9.45504 24.4397 9.08279 24.2908C8.6361 24.1419 8.18943 24.2908 8.04053 24.812C7.29603 27.2688 6.62597 29.6512 5.88148 32.108C5.88148 32.5547 5.88149 32.7781 6.40263 32.7036ZM27.7696 32.6292C27.6207 32.1825 27.4718 31.6613 27.3229 31.2146C26.6529 29.0556 26.0573 26.8966 25.3872 24.7375C25.2383 24.1419 24.7172 24.3653 24.4194 24.3653C24.0472 24.4397 24.3449 24.7375 24.3449 24.9609C25.015 27.2688 25.685 29.5767 26.3551 31.8847C26.7273 32.7781 26.7273 32.7781 27.7696 32.6292ZM6.17929 18.186C6.17929 17.7393 6.17929 17.2926 6.17929 16.8459C6.17929 16.6225 6.17927 16.4736 5.88148 16.4736C5.65813 16.4736 5.65814 16.6225 5.65814 16.7714C5.65814 17.6648 5.65814 18.5582 5.65814 19.4516C5.65814 19.6005 5.65813 19.7494 5.88148 19.7494C6.17927 19.7494 6.17929 19.6005 6.17929 19.3772V18.186Z" fill="#EB00FF"/><path d="M16.8254 9.84766C19.8034 9.84766 22.7814 9.84766 25.6849 9.84766C26.2061 9.84766 26.2805 9.99655 26.2805 10.4433C26.2805 10.8899 26.1316 10.9644 25.6849 10.9644C19.729 10.9644 13.8474 10.9644 7.89148 10.9644C7.37034 10.9644 7.2959 10.8155 7.2959 10.3688C7.2959 9.9221 7.44479 9.84766 7.89148 9.84766C10.8695 9.84766 13.8474 9.84766 16.8254 9.84766Z" fill="#EB00FF"/><path d="M16.8254 15.4313C13.8474 15.4313 10.8695 15.4313 7.89148 15.4313C7.44479 15.4313 7.2959 15.3569 7.2959 14.9102C7.2959 14.4635 7.37034 14.3146 7.89148 14.3146C13.8474 14.3146 19.8034 14.3146 25.7593 14.3146C26.206 14.3146 26.2805 14.4635 26.2805 14.9102C26.2805 15.3569 26.1316 15.4313 25.6849 15.4313C22.7814 15.4313 19.8034 15.4313 16.8254 15.4313Z" fill="#EB00FF"/><path d="M18.4635 6.49742C16.0811 6.49742 13.6987 6.49742 11.3163 6.49742C10.8696 6.49742 10.7207 6.42297 10.7207 5.97627C10.7207 5.52957 10.7952 5.38068 11.2419 5.38068C16.0811 5.38068 20.9203 5.38068 25.7595 5.38068C26.2062 5.38068 26.2807 5.52957 26.2807 5.97627C26.2807 6.42297 26.1318 6.49742 25.6851 6.49742C23.3027 6.49742 20.8458 6.49742 18.4635 6.49742Z" fill="#EB00FF"/><path d="M8.48712 5.38067C8.63602 5.38067 8.78495 5.38067 8.93384 5.38067C9.45499 5.30622 9.60386 5.45511 9.60386 6.05071C9.60386 6.42296 9.52943 6.57186 9.15718 6.49741C8.78494 6.49741 8.41267 6.49741 8.11487 6.49741C7.44483 6.49741 7.29596 6.19961 7.44486 5.60401C7.51931 5.38067 7.59373 5.38067 7.74263 5.38067C7.96597 5.38067 8.18932 5.38067 8.48712 5.38067Z" fill="#EB00FF"/></svg>