<svg width="46" height="27" viewBox="0 0 46 27" fill="none" xmlns="http://www.w3.org/2000/svg"><path d="M18.57 26.5547H1.52116C1.22336 26.5547 1 26.3314 1 26.0336C1 25.7358 1.22336 25.5124 1.52116 25.5124H18.57C19.389 25.5124 20.059 24.8424 20.059 24.0234V8.68685C20.059 7.27231 21.2502 6.08112 22.6648 6.08112H44.7018C44.9996 6.08112 45.223 6.30447 45.223 6.60227C45.223 6.90007 44.9996 7.12341 44.7018 7.12341H22.6648C21.8458 7.12341 21.1758 7.79346 21.1758 8.6124V23.949C21.1758 25.3635 19.9846 26.5547 18.57 26.5547Z" fill="#EB00FF" stroke="#EB00FF" stroke-width=".6" stroke-miterlimit="10"/><path d="M9.6362 21.0455C6.73267 21.0455 4.27588 18.6632 4.27588 15.6852C4.27588 12.7072 6.65822 10.3248 9.6362 10.3248C12.5397 10.3248 14.9966 12.7072 14.9966 15.6852C14.9966 18.6632 12.6142 21.0455 9.6362 21.0455ZM9.6362 11.4416C7.25382 11.4416 5.39262 13.3773 5.39262 15.6852C5.39262 17.9931 7.32827 19.9288 9.6362 19.9288C12.0186 19.9288 13.8798 17.9931 13.8798 15.6852C13.8798 13.3773 12.0186 11.4416 9.6362 11.4416Z" fill="#EB00FF" stroke="#EB00FF" stroke-width=".6" stroke-miterlimit="10"/><path d="M35.8422 26.6292C35.6933 26.6292 35.5444 26.5547 35.4699 26.4803L25.6426 16.653C25.4193 16.4296 25.4193 16.1318 25.6426 15.9085C25.866 15.6851 26.1638 15.6851 26.3871 15.9085L36.2144 25.7358C36.4378 25.9591 36.4378 26.2569 36.2144 26.4803C36.14 26.6292 35.9911 26.6292 35.8422 26.6292Z" fill="#EB00FF" stroke="#EB00FF" stroke-width=".6" stroke-miterlimit="10"/><path d="M26.0149 26.6292C25.866 26.6292 25.7171 26.5547 25.6426 26.4803C25.4193 26.2569 25.4193 25.9591 25.6426 25.7358L35.4699 15.9085C35.6933 15.6851 35.9911 15.6851 36.2144 15.9085C36.4378 16.1318 36.4378 16.4296 36.2144 16.653L26.3871 26.4803C26.3127 26.6292 26.1638 26.6292 26.0149 26.6292Z" fill="#EB00FF" stroke="#EB00FF" stroke-width=".6" stroke-miterlimit="10"/><path d="M44.7762 6.97457C44.6273 6.97457 44.4784 6.90011 44.4039 6.82566L39.4903 1.91201C39.2669 1.68866 39.2669 1.39086 39.4903 1.16751C39.7136 0.944163 40.0114 0.944163 40.2348 1.16751L45.1484 6.08117C45.3718 6.30451 45.3718 6.60231 45.1484 6.82566C45.074 6.97456 44.9251 6.97457 44.7762 6.97457Z" fill="#EB00FF" stroke="#EB00FF" stroke-width=".6" stroke-miterlimit="10"/><path d="M39.8625 11.8882C39.7136 11.8882 39.5647 11.8138 39.4903 11.7393C39.2669 11.516 39.2669 11.2182 39.4903 10.9948L44.4039 6.08115C44.6273 5.8578 44.9251 5.8578 45.1484 6.08115C45.3718 6.30449 45.3718 6.60229 45.1484 6.82564L40.2348 11.7393C40.1603 11.8138 40.0114 11.8882 39.8625 11.8882Z" fill="#EB00FF" stroke="#EB00FF" stroke-width=".6" stroke-miterlimit="10"/></svg>