<svg width="29" height="32" viewBox="0 0 29 32" fill="none" xmlns="http://www.w3.org/2000/svg"><path d="M14.5 0C18.9031 0 23.2304 0 27.6335 0C28.6963 0 29 0.224709 29 1.34826C29 2.92122 29 4.49419 29 6.06715C29 6.51657 28.8482 6.89108 28.5445 7.2656C25.4319 10.6362 22.3194 14.0069 19.2068 17.3026C18.9791 17.6022 18.8272 17.8269 18.8272 18.2015C18.8272 20.4485 18.8272 22.6207 18.8272 24.8678C18.8272 25.4671 18.6754 25.8416 18.2199 26.2161C16.0942 28.0138 13.9686 29.8114 11.8429 31.6091C11.5393 31.9087 11.1597 32.1334 10.7042 31.9087C10.2487 31.684 10.1728 31.3095 10.1728 30.8601C10.1728 26.7404 10.1728 22.5458 10.1728 18.4262C10.1728 17.9018 10.0209 17.5273 9.71728 17.1528C6.60471 13.8571 3.49215 10.5613 0.455497 7.2656C0.151832 6.89108 0 6.51657 0 6.06715C0 4.49419 0 2.84632 0 1.27335C0 0.299612 0.303665 0.074903 1.21466 0.074903C5.6178 -7.25493e-08 10.0209 0 14.5 0ZM11.9948 29.2122C13.589 27.8639 15.1073 26.5906 16.6257 25.3172C16.9293 25.0176 17.0812 24.7929 17.0812 24.3435C17.0812 22.1713 17.0812 19.9242 17.0812 17.752C17.0812 17.3026 17.233 16.9281 17.5367 16.5536C20.1937 13.7073 22.9267 10.786 25.5838 7.93973C25.7356 7.78992 25.9634 7.64011 25.9634 7.41541H2.88482C3.11257 7.71502 3.34031 7.86482 3.49215 8.08953C6.0733 10.8609 8.73037 13.7073 11.3115 16.4787C11.6911 16.9281 11.8429 17.3775 11.8429 17.9018C11.8429 21.4223 11.8429 25.0176 11.8429 28.5381C11.8429 28.6879 11.8429 28.9126 11.9948 29.2122ZM14.5 1.72277C10.4764 1.72277 6.37696 1.72277 2.3534 1.72277C1.89791 1.72277 1.67016 1.79767 1.67016 2.322C1.74607 3.22083 1.74607 4.11967 1.67016 5.01851C1.67016 5.46793 1.82199 5.61773 2.27749 5.61773C6.37696 5.61773 10.4764 5.61773 14.5759 5.61773C18.5995 5.61773 22.5471 5.61773 26.5707 5.61773C27.0262 5.61773 27.178 5.54283 27.178 5.01851C27.1021 4.11967 27.1021 3.22083 27.178 2.24709C27.178 1.79767 27.0262 1.72277 26.5707 1.72277C22.623 1.72277 18.5236 1.72277 14.5 1.72277Z" fill="#EB00FF"/></svg>