<svg width="43" height="43" viewBox="0 0 43 43" fill="none" xmlns="http://www.w3.org/2000/svg"><path d="M29.2453 16.274C29.2453 8.21345 23.6503 2.1443 16.3484 1.76498C9.23609 1.29083 2.88245 6.5065 1.93414 13.6188C1.45999 17.1275 2.31346 20.4466 4.3049 23.3863C4.49456 23.576 4.58939 23.7656 4.77905 24.0501C4.96871 24.4294 4.87387 24.8088 4.58938 25.0932C4.21006 25.3777 3.83075 25.3777 3.45143 25.0932C3.26177 24.9984 3.16694 24.7139 2.97728 24.6191C-3.75567 15.6102 1.55481 2.14431 12.65 0.247704C21.4692 -1.26958 29.4349 4.3254 30.9522 13.1446C31.7109 17.6016 30.5729 21.6793 27.728 25.1881C27.3487 25.7571 27.3487 26.0415 27.8228 26.4209C28.0125 26.6105 28.2021 26.8002 28.3918 26.9899C28.9608 27.6537 29.4349 28.3175 30.4781 27.464C31.2367 26.895 32.185 27.1795 32.9437 27.9382C35.6938 30.6882 38.5386 33.4383 41.1939 36.2832C42.5215 37.7057 42.4267 39.792 41.0991 41.1196C39.7714 42.4472 37.6852 42.542 36.2627 41.2144C33.4178 38.4643 30.6677 35.7142 27.9177 32.9642C27.0642 32.1107 26.9694 30.9727 27.728 30.0244C28.0125 29.6451 28.0125 29.4554 27.728 29.0761C27.159 28.5071 26.6849 27.6537 26.021 27.464C25.3572 27.2743 24.7883 28.2226 24.2193 28.602C18.8139 32.1107 11.7965 32.0159 6.58082 28.2227C6.39116 28.033 6.10667 27.9382 6.01184 27.7485C5.72734 27.3692 5.72734 26.9898 6.01184 26.6105C6.29633 26.2312 6.67565 26.1364 7.05497 26.4209C7.33947 26.5157 7.52914 26.7054 7.81363 26.895C12.3655 29.8348 17.107 30.3089 21.9433 27.8433C26.6849 25.0932 29.0556 20.9207 29.2453 16.274ZM40.2456 38.5592C40.2456 37.8005 39.9611 37.4212 39.487 36.947C37.3059 34.7659 35.1248 32.5848 32.9437 30.4037C31.2367 28.6968 31.2367 28.6968 29.5298 30.4037C28.9608 30.8779 29.0556 31.2572 29.5298 31.7314C31.4264 33.628 33.323 35.5246 35.3144 37.4212C35.9782 38.085 36.7369 38.8436 37.4007 39.5075C37.8748 39.9816 38.5386 40.1713 39.2025 39.7919C39.8663 39.6971 40.1508 39.1281 40.2456 38.5592Z" fill="#EB00FF"/><path d="M15.5899 27.2743C9.14146 27.3691 3.73614 22.0586 3.73614 15.5153C3.64131 8.97205 8.85697 3.56672 15.4951 3.47189C22.0384 3.37706 27.4437 8.68756 27.5386 15.136C27.4437 21.9638 22.2281 27.2743 15.5899 27.2743ZM25.6419 15.0412C25.6419 9.25654 20.2366 4.60986 14.0726 5.46334C10.3743 6.03232 7.71902 8.11859 6.29657 11.6273C4.87411 15.136 5.44309 18.4551 7.62419 21.4897C7.90868 21.869 8.09833 22.0586 8.47765 21.5845C9.42596 20.4465 10.5639 19.9724 11.9864 19.9724C14.3571 19.9724 16.7279 19.9724 19.0987 19.9724C20.5211 19.9724 21.7539 20.4465 22.6074 21.5845C23.0815 22.1535 23.2712 21.869 23.5557 21.4897C24.8833 19.6879 25.5471 17.6016 25.6419 15.0412ZM15.5899 21.7742C14.3571 21.7742 13.2192 21.7742 11.9864 21.7742C11.0381 21.7742 10.2794 22.1535 9.71046 22.9121C9.42597 23.1966 9.52078 23.3863 9.80527 23.6708C12.8398 26.0415 18.34 26.0415 21.2797 23.6708C21.6591 23.3863 21.6591 23.1966 21.3746 22.9121C20.8056 22.1535 19.9521 21.7742 19.0038 21.7742C17.8659 21.7742 16.7279 21.7742 15.5899 21.7742Z" fill="#EB00FF"/><path d="M20.142 12.6704C20.142 13.4291 20.1419 14.1877 19.8575 14.9464C19.1936 16.9378 17.297 18.2654 15.2108 18.0758C13.1245 17.8861 11.3227 16.3688 11.0382 14.1877C10.8486 13.2394 10.8486 12.1963 11.0382 11.1531C11.3227 8.78239 13.2193 7.07544 15.5901 7.07544C17.9608 7.07544 19.7626 8.78239 20.142 11.1531C20.142 11.7221 20.142 12.1963 20.142 12.6704ZM18.2454 12.6704C18.2454 12.2911 18.2454 12.0066 18.2454 11.6273C18.1505 10.11 17.0125 9.06687 15.4953 9.06687C13.978 9.06687 12.84 10.2048 12.7452 11.7221C12.7452 12.3859 12.7452 13.1446 12.7452 13.9032C12.84 15.3257 13.978 16.4636 15.4953 16.4636C16.9177 16.4636 18.1505 15.4205 18.2454 13.9032C18.3402 13.4291 18.2454 13.0497 18.2454 12.6704Z" fill="#EB00FF"/></svg>