<svg width="42" height="41" viewBox="0 0 42 41" fill="none" xmlns="http://www.w3.org/2000/svg"><path d="M28.6559 19.0609C29.0352 19.6299 29.5093 20.0092 29.9835 20.4833C30.268 20.7678 30.5525 21.1472 30.0783 21.5265C29.699 21.9058 29.3197 21.6213 29.0352 21.3368C28.561 20.8627 28.0869 20.2937 27.5179 19.7247C27.3282 20.1989 27.4231 20.5782 27.4231 20.9575C27.4231 21.811 27.4231 22.6645 27.4231 23.5179C27.4231 25.4145 26.4748 26.268 24.5782 25.8887C24.3885 26.3628 24.5782 26.7422 24.4833 27.2163C24.3885 28.6388 23.4402 29.4922 22.0177 29.3026C21.6384 29.2077 21.4488 29.2077 21.3539 29.5871C21.2591 29.8716 21.0694 30.156 20.7849 30.2509C19.4573 30.9147 18.6987 32.0527 17.7504 33.001C16.9917 33.6648 16.2331 34.2337 15.19 34.3286C14.7158 34.3286 14.2417 34.5182 13.8623 34.8027C13.483 35.0872 13.1985 35.2769 13.5778 35.8459C13.8623 36.32 13.6727 36.7942 13.3882 37.1735C12.4399 38.1218 11.4916 39.1649 10.5433 40.1132C9.97429 40.6822 9.21564 40.6822 8.64666 40.1132C6.93971 38.4063 5.23277 36.6993 3.52582 34.9924C3.24133 34.7079 3.05167 34.3286 3.33616 33.9493C3.71548 33.5699 4.09481 33.8544 4.3793 34.1389C5.89658 35.6562 7.5087 37.2683 9.02598 38.7856C9.4053 39.1649 9.59496 39.2598 9.97429 38.7856C10.6381 38.027 11.3019 37.3631 11.9657 36.6993C12.2502 36.4148 12.345 36.2252 11.9657 35.8459C9.50013 33.3803 7.03455 31.0095 4.66379 28.5439C4.3793 28.2594 4.18964 28.1646 3.81031 28.5439C3.1465 29.3026 2.38786 29.9664 1.62922 30.725C1.2499 31.1043 1.34473 31.294 1.62922 31.5785C1.81888 31.7682 2.00854 31.9578 2.1982 32.2423C2.38786 32.5268 2.38786 32.8113 2.1982 33.001C1.91371 33.2854 1.62922 33.2854 1.43956 33.0958C0.965405 32.7165 0.491253 32.3371 0.206762 31.863C-0.172559 31.294 0.0171017 30.725 0.396423 30.3457C1.34473 29.3974 2.29303 28.4491 3.24133 27.5008C3.71548 27.0266 4.28447 26.9318 4.75862 27.3111C5.13794 27.5956 5.23277 27.406 5.51726 27.1215C5.89658 26.6473 5.99141 26.1732 5.99141 25.6042C5.99141 25.13 5.99141 24.6559 5.99141 24.1817C5.99141 22.9489 6.37073 22.0006 7.31904 21.1472C8.07768 20.3885 8.83632 19.6299 9.59496 18.8712C10.1639 18.3022 10.7329 17.8281 11.5864 17.7333C11.9657 17.6384 11.8709 17.5436 11.8709 17.2591C11.4916 15.3625 11.6812 13.5607 11.7761 11.6641C11.8709 10.8107 12.345 10.2417 12.914 9.67269C13.483 9.00888 14.2417 8.53473 14.5261 7.58643C14.621 7.11228 14.8106 6.63812 14.052 6.54329C13.5778 6.44846 13.2933 5.97431 13.2933 5.40533C13.2933 4.0777 13.2933 2.65524 13.2933 1.32762C13.2933 0.474146 13.8623 0.0948303 14.8106 0C16.7072 0 18.509 0 20.4056 0C22.1126 0 23.8195 0 25.6213 0C26.8541 0 27.3282 0.474149 27.3282 1.61211C27.3282 2.75008 27.3282 3.79321 27.3282 4.93117C27.3282 5.68982 27.1386 6.35363 26.2851 6.54329C26.0006 6.63812 26.0006 6.82778 26.0006 7.01744C26.0006 7.58642 26.1903 8.1554 26.5696 8.62955C27.2334 9.48302 27.5179 10.4313 27.5179 11.4745C27.5179 13.4659 27.5179 15.3625 27.5179 17.354C27.5179 18.2074 27.6127 18.2074 28.3714 17.9229C29.6042 17.4488 30.837 17.5436 31.7853 18.4919C32.8284 19.4402 33.7767 20.4833 34.8198 21.5265C35.1992 21.9058 35.3888 22.2851 35.4836 22.7593C35.5785 23.2334 35.5785 23.7076 36.2423 23.8024C36.6216 23.8972 36.6216 24.6559 36.2423 24.7507C35.4836 24.9404 35.6733 25.5094 35.6733 25.9835C35.6733 26.3628 35.863 26.6473 36.0526 26.9318C36.2423 27.3111 36.5268 27.5956 37.0009 27.2163C37.4751 26.9318 38.0441 27.0266 38.4234 27.5008C39.3717 28.4491 40.32 29.3974 41.2683 30.3457C41.9321 31.0095 41.8373 31.6733 41.1735 32.3371C39.4665 34.0441 37.7596 35.751 36.0526 37.458C35.1992 38.3114 34.3457 39.1649 33.4922 40.0184C32.7336 40.777 32.0698 40.777 31.4059 40.0184C30.5525 39.1649 29.699 38.3114 28.8455 37.458C28.3714 36.9838 28.0869 36.4148 28.561 35.751C28.7507 35.4665 28.6559 35.3717 28.4662 35.182C27.992 34.7079 27.4231 34.4234 26.8541 34.4234C25.811 34.3286 24.9575 33.8544 24.2937 33.0958C23.8195 32.6216 23.2505 32.0527 22.7764 31.5785C22.4919 31.294 22.3022 30.9147 22.6816 30.6302C22.966 30.2509 23.3454 30.4405 23.6299 30.725C24.1988 31.294 24.7678 31.863 25.3368 32.432C25.811 32.9061 26.2851 33.1906 26.9489 33.1906C27.8024 33.2854 28.6559 33.6648 29.2248 34.2337C29.5093 34.5182 29.699 34.5182 29.9835 34.2337C31.7853 32.432 33.587 30.5354 35.3888 28.7336C35.6733 28.4491 35.6733 28.2594 35.3888 27.9749C34.725 27.2163 34.4405 26.3628 34.4405 25.4145C34.4405 24.9404 34.4405 24.3714 34.4405 23.8972C34.4405 23.3283 34.2509 22.7593 33.7767 22.3799C32.8284 21.4316 31.9749 20.4833 31.0266 19.6299C30.3628 18.7764 29.6042 18.6816 28.6559 19.0609ZM26.1903 17.354C26.1903 15.3625 26.1903 13.4659 26.1903 11.4745C26.1903 10.7158 26.0954 10.052 25.6213 9.48303C25.0523 8.81922 24.7678 7.96575 24.7678 7.11228C24.7678 6.63812 24.5782 6.54329 24.104 6.54329C22.8712 6.54329 21.5436 6.54329 20.3108 6.54329C19.8366 6.54329 19.4573 6.54329 19.4573 5.87948C19.4573 5.3105 19.9315 5.31049 20.4056 5.31049C22.1126 5.31049 23.7247 5.31049 25.4316 5.31049C26.0006 5.31049 26.0954 5.12083 26.0954 4.64668C26.0954 3.69838 26.0954 2.75007 26.0954 1.80177C26.0954 1.32762 26.0006 1.13796 25.4316 1.13796C22.0177 1.13796 18.6038 1.13796 15.0951 1.13796C14.621 1.13796 14.5261 1.32763 14.5261 1.70695C14.5261 2.65525 14.5261 3.69838 14.5261 4.64668C14.5261 5.21566 14.7158 5.31049 15.19 5.31049C15.7589 5.31049 16.4227 5.31049 17.0866 5.31049C17.4659 5.31049 17.7504 5.50016 17.7504 5.87948C17.7504 6.2588 17.4659 6.5433 17.1814 6.44847C16.1383 6.2588 15.8538 6.73294 15.8538 7.68125C15.7589 8.34506 15.3796 8.91405 14.9055 9.3882C14.5261 9.76752 14.1468 10.1468 13.7675 10.5262C13.2933 11.0003 13.0089 11.5693 13.0089 12.2331C13.0089 13.4659 13.0089 14.7935 13.0089 16.0263C13.0089 16.6901 13.2933 17.3539 13.8623 17.7333C14.052 17.8281 14.1468 18.0178 14.4313 17.9229C14.621 17.8281 14.5261 17.6384 14.5261 17.4488C14.5261 16.9746 14.5261 16.5005 14.5261 15.9315C14.5261 15.5522 14.7158 15.2677 15.19 15.2677C15.5693 15.2677 15.7589 15.5522 15.7589 16.0263C15.7589 16.216 15.7589 16.4056 15.7589 16.5953C15.7589 19.9144 15.7589 23.2334 15.7589 26.5525C15.7589 26.837 15.7589 27.1215 15.8538 27.406C15.9486 27.8801 16.2331 28.0698 16.7072 28.0698C17.1814 28.0698 17.4659 27.7853 17.5607 27.406C17.6555 27.1215 17.5607 26.9318 17.5607 26.6473C17.5607 23.6127 17.5607 20.5782 17.5607 17.6384C17.5607 17.4488 17.5607 17.1643 17.6555 16.9746C17.7504 16.6901 17.94 16.5953 18.2245 16.5953C18.509 16.5953 18.6987 16.785 18.7935 17.0695C18.7935 17.2591 18.7935 17.5436 18.7935 17.7333C18.7935 21.1472 18.7935 24.561 18.7935 28.0698C18.7935 28.2594 18.7935 28.5439 18.7935 28.7336C18.8883 29.2077 19.078 29.6819 19.647 29.5871C20.216 29.5871 20.5005 29.2077 20.5005 28.6388C20.5005 28.3543 20.5005 28.1646 20.5005 27.8801C20.5005 24.4662 20.5005 21.1472 20.5005 17.7333C20.5005 17.4488 20.5005 17.2591 20.5005 16.9746C20.5953 16.6901 20.7849 16.5005 21.0694 16.5005C21.3539 16.5005 21.6384 16.5953 21.6384 16.9746C21.7332 17.2591 21.7332 17.5436 21.7332 17.8281C21.7332 20.8627 21.7332 23.8024 21.7332 26.837C21.7332 27.0266 21.7332 27.2163 21.7332 27.3111C21.7332 27.8801 22.0177 28.1646 22.5867 28.1646C23.0609 28.1646 23.3454 27.8801 23.4402 27.406C23.4402 27.2163 23.4402 27.0266 23.4402 26.837C23.4402 23.8972 23.4402 20.9575 23.4402 18.0178C23.4402 17.7333 23.4402 17.4488 23.4402 17.1643C23.4402 16.785 23.7247 16.5953 24.0092 16.5953C24.3885 16.5953 24.5782 16.785 24.5782 17.1643C24.5782 17.3539 24.5782 17.5436 24.5782 17.7333C24.5782 19.7247 24.5782 21.7161 24.5782 23.7076C24.5782 24.2766 24.7678 24.7507 25.3368 24.7507C26.0006 24.7507 26.1903 24.3714 26.2851 23.7076C26.2851 23.5179 26.2851 23.3283 26.2851 23.1386C26.1903 21.242 26.1903 19.2506 26.1903 17.354ZM14.4313 19.9144L14.2417 19.8195C13.7675 20.3885 13.1985 20.8627 12.7244 21.4316C12.4399 21.7161 12.0606 21.9058 11.7761 21.5265C11.3967 21.1472 11.5864 20.8627 11.8709 20.5782C12.2502 20.1989 12.6295 19.8195 13.0089 19.4402C13.3882 19.1557 13.1985 18.9661 12.8192 18.9661C12.0606 18.7764 11.3967 18.9661 10.8278 19.535C10.2588 20.104 9.6898 20.7678 9.02598 21.3368C7.69836 22.38 7.22421 23.6128 7.41387 25.3197C7.5087 26.3628 7.22421 27.3111 6.46556 28.0698C6.2759 28.3543 6.18107 28.4491 6.46556 28.7336C8.36217 30.5354 10.1639 32.432 11.9657 34.3286C12.2502 34.6131 12.345 34.6131 12.6295 34.3286C13.1037 33.8544 13.5778 33.3803 14.2417 33.3803C15.6641 33.2854 16.6124 32.432 17.5607 31.4837C18.0349 31.0095 18.6038 30.5354 17.7504 29.9664C17.6555 29.9664 17.6555 29.8715 17.6555 29.7767C17.5607 29.3026 17.1814 29.3026 16.8021 29.3974C15.9486 29.4922 15.2848 29.2077 14.8106 28.5439C14.4313 28.0698 14.4313 27.406 14.4313 26.837C14.4313 24.3714 14.4313 22.1903 14.4313 19.9144ZM40.5097 31.1044C40.4148 31.0095 40.32 30.8199 40.2252 30.725C39.4665 29.9664 38.7079 29.2077 37.9492 28.4491C37.6647 28.1646 37.5699 28.1646 37.2854 28.4491C34.8198 30.9147 32.2594 33.4751 29.7938 35.9407C29.5093 36.2252 29.5093 36.32 29.7938 36.6045C30.5525 37.3631 31.3111 38.1218 32.0698 38.8804C32.3542 39.1649 32.5439 39.1649 32.7336 38.8804C35.1992 36.4148 37.6647 33.9492 40.1303 31.3888C40.32 31.3888 40.32 31.294 40.5097 31.1044Z" fill="#EB00FF"/><path d="M9.69008 35.8459C10.0694 35.8459 10.3539 36.0356 10.3539 36.5097C10.3539 36.8891 10.1642 37.0787 9.78491 37.0787C9.40559 37.0787 9.12109 36.8891 9.12109 36.4149C9.12109 36.1304 9.31075 35.9408 9.69008 35.8459Z" fill="#EB00FF"/><path d="M33.4924 11.3797C33.8718 11.4745 34.0614 11.6642 34.0614 12.0435C34.0614 12.4228 33.7769 12.6125 33.3976 12.6125C33.0183 12.6125 32.9235 12.328 32.9235 12.0435C32.9235 11.5694 33.1131 11.4745 33.4924 11.3797Z" fill="#EB00FF"/><path d="M14.8107 36.7943C14.4314 36.7943 14.2417 36.5098 14.2417 36.1305C14.2417 35.7511 14.4314 35.5615 14.8107 35.5615C15.19 35.5615 15.3797 35.7511 15.3797 36.1305C15.3797 36.5098 15.19 36.6994 14.8107 36.7943Z" fill="#EB00FF"/><path d="M24.9578 36.5096C24.9578 36.8889 24.7681 37.1734 24.3888 37.1734C24.0095 37.1734 23.8198 36.9838 23.8198 36.6044C23.8198 36.2251 24.0095 36.0354 24.3888 36.0354C24.6733 35.9406 24.863 36.2251 24.9578 36.5096Z" fill="#EB00FF"/><path d="M19.5524 36.5098C19.9317 36.6046 20.1214 36.6994 20.1214 37.0788C20.1214 37.4581 19.9317 37.6477 19.5524 37.6477C19.1731 37.6477 18.9834 37.4581 18.9834 37.0788C18.9834 36.7943 19.1731 36.5098 19.5524 36.5098Z" fill="#EB00FF"/><path d="M4.18969 20.199C4.56901 20.2938 4.8535 20.4835 4.75867 20.8628C4.75867 21.2421 4.47418 21.4318 4.09486 21.4318C3.71554 21.4318 3.52588 21.2421 3.52588 20.8628C3.62071 20.4835 3.81037 20.2938 4.18969 20.199Z" fill="#EB00FF"/><path d="M28.466 7.01741C28.466 7.39673 28.1815 7.58639 27.897 7.58639C27.5177 7.58639 27.328 7.39673 27.328 7.01741C27.328 6.63809 27.5177 6.44843 27.897 6.44843C28.2763 6.3536 28.3711 6.63809 28.466 7.01741Z" fill="#EB00FF"/><path d="M31.88 10.621C31.5007 10.5262 31.311 10.3365 31.311 9.95717C31.311 9.57785 31.5007 9.38818 31.88 9.38818C32.2593 9.38818 32.449 9.57785 32.5438 9.95717C32.449 10.4313 32.2593 10.621 31.88 10.621Z" fill="#EB00FF"/><path d="M7.79312 11.759C7.79312 12.0435 7.50862 12.328 7.22413 12.328C6.84481 12.328 6.65515 12.0435 6.65515 11.6641C6.65515 11.3797 6.84481 11.0952 7.22413 11.0952C7.60345 11.0952 7.79312 11.2848 7.79312 11.759Z" fill="#EB00FF"/><path d="M13.2932 7.11216C13.2932 7.39665 13.0087 7.58631 12.7243 7.49148C12.3449 7.49148 12.1553 7.30182 12.1553 6.9225C12.1553 6.54318 12.4398 6.35352 12.7243 6.35352C13.1036 6.35352 13.2932 6.54318 13.2932 7.11216Z" fill="#EB00FF"/><path d="M11.2073 8.25021C11.2073 8.62953 11.0176 8.8192 10.6383 8.8192C10.259 8.8192 10.0693 8.62953 10.0693 8.25021C10.0693 7.87089 10.259 7.68122 10.6383 7.68122C11.0176 7.58639 11.2073 7.87089 11.2073 8.25021Z" fill="#EB00FF"/><path d="M30.6472 8.25026C30.6472 8.62958 30.4576 8.91407 30.0783 8.91407C29.6989 8.91407 29.5093 8.72442 29.5093 8.3451C29.5093 7.96578 29.6989 7.68127 30.0783 7.68127C30.3628 7.68127 30.5524 7.96577 30.6472 8.25026Z" fill="#EB00FF"/><path d="M9.40516 9.8623C9.31033 10.2416 9.12067 10.4313 8.74135 10.4313C8.36202 10.4313 8.17236 10.2416 8.17236 9.8623C8.17236 9.48297 8.36202 9.29332 8.74135 9.19849C9.2155 9.19849 9.40516 9.48297 9.40516 9.8623Z" fill="#EB00FF"/><path d="M36.2423 21.0522C36.6216 21.0522 36.8113 21.2419 36.8113 21.6212C36.8113 22.0006 36.6216 22.1902 36.3371 22.1902C35.9578 22.1902 35.6733 22.0006 35.6733 21.6212C35.6733 21.3367 35.863 21.0522 36.2423 21.0522Z" fill="#EB00FF"/><path d="M4.28431 22.6645C4.66364 22.6645 4.8533 22.8542 4.8533 23.2335C4.8533 23.6128 4.66364 23.8025 4.28431 23.8025C3.99982 23.8025 3.71533 23.6128 3.71533 23.2335C3.71533 22.949 3.90499 22.6645 4.28431 22.6645Z" fill="#EB00FF"/><path d="M4.85365 26.2681C4.47433 26.1733 4.28467 25.9836 4.28467 25.6991C4.28467 25.3198 4.56916 25.1301 4.94848 25.1301C5.3278 25.1301 5.51746 25.3198 5.51746 25.6991C5.42263 25.9836 5.23297 26.1733 4.85365 26.2681Z" fill="#EB00FF"/><path d="M5.04342 16.5953C4.66409 16.5005 4.3796 16.3109 4.47443 15.9315C4.47443 15.5522 4.75893 15.3625 5.13825 15.3625C5.51757 15.3625 5.70723 15.5522 5.70723 15.9315C5.6124 16.4057 5.32791 16.5953 5.04342 16.5953Z" fill="#EB00FF"/><path d="M35.3886 14.2247C35.2937 14.604 35.1041 14.7937 34.7247 14.7937C34.3454 14.7937 34.1558 14.5092 34.1558 14.1299C34.1558 13.7506 34.4403 13.5609 34.7247 13.5609C35.1041 13.6557 35.2937 13.9402 35.3886 14.2247Z" fill="#EB00FF"/><path d="M6.56082 13.7504C6.46598 14.1297 6.37115 14.4142 5.99183 14.4142C5.61251 14.4142 5.42285 14.2245 5.42285 13.8452C5.42285 13.4659 5.61251 13.2762 5.99183 13.2762C6.27632 13.1814 6.46598 13.3711 6.56082 13.7504Z" fill="#EB00FF"/><path d="M27.2337 35.751C27.2337 36.1303 27.044 36.32 26.6647 36.32C26.2854 36.32 26.0957 36.1303 26.0957 35.751C26.0957 35.3716 26.2854 35.182 26.6647 35.0872C27.044 35.182 27.2337 35.3716 27.2337 35.751Z" fill="#EB00FF"/><path d="M35.5783 16.0264C35.9576 16.1212 36.1472 16.3109 36.1472 16.6902C36.1472 17.0695 35.8627 17.2592 35.5783 17.2592C35.1989 17.2592 35.0093 17.0695 35.0093 16.6902C35.0093 16.216 35.2938 16.0264 35.5783 16.0264Z" fill="#EB00FF"/><path d="M36.7165 19.1556C36.7165 19.535 36.5268 19.7246 36.1475 19.7246C35.7682 19.7246 35.5785 19.4401 35.5785 19.0608C35.5785 18.6815 35.7682 18.4918 36.1475 18.4918C36.5268 18.4918 36.7165 18.6815 36.7165 19.1556Z" fill="#EB00FF"/><path d="M17.1814 37.3632C16.8021 37.3632 16.5176 37.1735 16.5176 36.7942C16.5176 36.4149 16.7072 36.2252 17.0866 36.2252C17.371 36.2252 17.6555 36.4149 17.6555 36.7942C17.7504 37.0787 17.5607 37.3632 17.1814 37.3632Z" fill="#EB00FF"/><path d="M22.5868 37.0786C22.492 37.4579 22.3023 37.6476 21.923 37.6476C21.5437 37.6476 21.354 37.3631 21.354 36.9838C21.354 36.6045 21.6385 36.4148 21.923 36.5096C22.3971 36.4148 22.5868 36.6993 22.5868 37.0786Z" fill="#EB00FF"/><path d="M5.04324 18.3972C5.04324 18.7765 4.85358 18.9662 4.47426 18.9662C4.09493 18.9662 3.90527 18.6817 3.90527 18.3972C3.90527 18.1127 4.09493 17.8282 4.47426 17.8282C4.75875 17.8282 4.94841 17.9231 5.04324 18.3972Z" fill="#EB00FF"/><path d="M17.181 3.22432C17.181 3.60364 16.8965 3.88813 16.5172 3.88813C16.1379 3.88813 15.9482 3.60364 15.9482 3.31915C15.9482 2.93983 16.2327 2.65534 16.6121 2.65534C16.8965 2.56051 17.181 2.84499 17.181 3.22432Z" fill="#EB00FF"/><path d="M38.4233 30.9146C38.4233 31.2939 38.1388 31.5784 37.7595 31.5784C37.3802 31.5784 37.1905 31.294 37.0957 31.0095C37.0957 30.6301 37.3802 30.3457 37.7595 30.3457C38.1388 30.2508 38.3285 30.5353 38.4233 30.9146Z" fill="#EB00FF"/></svg>