<svg width="47" height="48" viewBox="0 0 47 48" fill="none" xmlns="http://www.w3.org/2000/svg"><path d="M7.25551 18.1126C4.69509 14.7936 5.64339 12.1383 7.16068 10.4314C8.96245 8.43994 11.8074 8.06061 13.9885 9.29341C16.5489 10.8107 17.4024 13.3711 16.2644 16.4057C16.5489 16.5005 16.7385 16.216 16.9282 16.1212C19.2041 14.5091 21.5749 12.9918 23.8508 11.3797C24.7991 10.7159 24.9888 10.8107 25.6526 11.6642C26.2216 12.5176 26.8854 13.2763 27.4544 14.1298C28.0233 14.8884 28.0234 15.1729 27.1699 15.7419C23.9457 18.0178 20.7214 20.3886 17.4972 22.6645C17.023 23.0438 16.7386 23.3283 16.8334 23.9921C16.9282 24.9404 16.8334 25.8887 16.8334 26.837C16.8334 27.3112 17.023 27.5008 17.4972 27.5008C18.73 27.5008 19.9628 27.5008 21.1956 27.5008C23.8508 27.5008 25.4629 29.1129 25.5578 31.863C25.5578 33.57 25.5578 35.2769 25.5578 36.9839C25.5578 37.5528 25.6526 37.8373 26.3164 37.8373C28.3079 37.8373 30.2993 37.8373 32.1959 37.8373C33.1442 37.8373 33.4287 38.027 33.4287 39.0701C33.4287 41.4409 33.4287 43.8116 33.4287 46.1824C33.4287 47.1307 33.1442 47.3204 32.1959 47.3204C27.1699 47.3204 22.2387 47.3204 17.2127 47.3204C16.2644 47.3204 16.0747 47.1307 16.0747 46.1824C16.0747 43.7168 16.0747 41.3461 16.0747 38.8805C16.0747 38.1218 16.4541 37.7425 17.2127 37.7425C19.2041 37.7425 19.2041 37.7425 19.2041 35.6562C19.2041 33.8545 19.2041 33.8545 17.3075 33.8545C16.3592 33.8545 15.4109 33.8545 14.4626 33.8545C13.7988 33.8545 13.704 34.0441 13.704 34.7079C13.704 38.4063 13.704 42.1995 13.704 45.8979C13.704 47.2255 13.6091 47.3204 12.2815 47.3204C11.0487 47.3204 9.81593 47.3204 8.67797 47.3204C7.63483 47.3204 7.44515 47.1307 7.44515 46.0876C7.44515 41.915 7.44515 37.6477 7.44515 33.4751C7.44515 33.1907 7.54001 32.9062 7.35035 32.5268C7.25552 32.6217 7.16068 32.6217 7.16068 32.7165C5.92788 34.2338 5.92789 34.2338 4.50544 32.8113C3.4623 31.7682 2.41915 30.7251 1.37602 29.6819C-0.425757 27.8802 -0.42574 25.7939 1.18638 23.8973C2.70366 22.1903 4.22093 20.4834 5.73822 18.7764C5.92788 18.3023 6.49687 18.0178 7.25551 18.1126ZM5.54855 31.9579C5.92787 31.3889 6.21237 30.9147 6.59169 30.5354C6.87618 30.1561 6.87617 29.8716 6.49685 29.5871C5.83304 28.9233 5.16925 28.2595 4.50544 27.5008C4.12612 27.1215 3.93645 26.6474 4.4106 26.1732C5.45373 25.1301 6.40202 24.0869 7.44515 23.1386C8.01414 22.5697 8.67797 22.8541 8.7728 23.6128C8.7728 23.8973 8.7728 24.0869 8.7728 24.3714C8.7728 31.1044 8.7728 37.8373 8.7728 44.5703C8.7728 44.76 8.7728 45.0444 8.7728 45.2341C8.7728 45.6134 8.86763 45.7083 9.24695 45.7083C9.91077 45.7083 10.6694 45.7083 11.3332 45.7083C11.7125 45.7083 11.9022 45.5186 11.9022 45.1393C11.9022 44.3806 11.9022 43.7168 11.9022 42.9582C11.9022 39.8288 11.9022 36.6045 11.9022 33.4751C11.9022 32.8113 11.997 32.2423 12.8505 32.2423C15.1264 32.2423 17.4024 32.2423 19.6783 32.2423C20.3421 32.2423 20.6266 32.6217 20.6266 33.2855C20.6266 33.9493 20.6266 34.7079 20.6266 35.3717C20.6266 36.1304 20.2473 37.2684 20.8162 37.6477C21.3852 38.027 22.4284 37.7425 23.187 37.7425C23.6611 37.7425 23.756 37.6477 23.756 37.1735C23.756 35.2769 23.756 33.3803 23.756 31.3889C23.756 29.9664 22.7128 29.1129 21.2904 29.0181C19.5834 29.0181 17.9713 29.0181 16.2644 29.0181C15.3161 29.0181 15.0316 28.7336 15.0316 27.7853C15.0316 26.268 15.0316 24.7508 15.0316 23.3283C15.0316 22.5697 15.3161 22.0955 15.8851 21.6214C18.73 19.6299 21.5749 17.5436 24.4198 15.5522C25.7474 14.6039 25.7474 14.6039 24.7991 13.2763C24.4198 12.8021 24.2301 12.8021 23.756 13.1815C21.7645 14.6039 19.7731 16.1212 17.592 17.4488C15.6006 18.6816 14.1781 20.1989 13.3246 22.38C13.135 22.8541 12.8505 23.2335 12.6608 23.7076C12.4712 24.0869 12.2815 24.3714 11.9022 24.3714C11.428 24.3714 11.2384 24.0869 11.0487 23.7076C10.4797 22.6645 10.0056 21.5265 9.4366 20.4834C8.96245 19.6299 7.06586 19.3454 6.40204 20.0092C4.88476 21.7162 3.27262 23.4231 1.75533 25.2249C0.901862 26.1732 0.996698 27.406 1.85017 28.3543C3.08297 29.5871 4.31575 30.7251 5.54855 31.9579ZM24.6095 45.8031C26.7905 45.8031 28.8768 45.8031 31.0579 45.8031C31.6269 45.8031 31.8166 45.6134 31.7217 45.0444C31.7217 43.3375 31.7217 41.7254 31.7217 40.0184C31.7217 39.4495 31.5321 39.3546 30.9631 39.3546C26.6957 39.3546 22.4284 39.3546 18.0662 39.3546C17.592 39.3546 17.4023 39.5443 17.4023 40.0184C17.4023 41.7254 17.4023 43.4323 17.4023 45.0444C17.4023 45.6134 17.592 45.7083 18.0662 45.7083C20.3421 45.8031 22.5232 45.8031 24.6095 45.8031ZM15.1264 14.2246C15.1264 12.0435 13.4195 10.2417 11.2384 10.2417C9.05727 10.2417 7.25551 11.8538 7.25551 14.1298C7.25551 16.3109 8.96246 18.1126 11.1436 18.1126C13.3247 18.1126 15.1264 16.4057 15.1264 14.2246ZM11.0487 19.8196C11.3332 20.5782 11.7125 21.242 12.0919 21.9058C12.3764 21.3369 12.6608 20.8627 12.9453 20.2937C13.135 20.0092 13.135 19.7247 12.6608 19.8196C12.0918 19.8196 11.6177 19.8196 11.0487 19.8196ZM7.16068 25.7939C5.83305 26.9319 5.83305 27.1215 7.16068 27.975C7.25551 27.2163 7.35034 26.5525 7.16068 25.7939Z" fill="#EB00FF"/><path d="M46.7996 7.11228C46.7048 7.77609 46.2307 7.87092 45.6617 7.96575C43.0064 8.06058 41.1098 10.1468 40.6357 12.0435C40.5408 12.4228 40.5409 12.8021 40.446 13.0866C40.3512 13.6556 40.2564 14.2246 39.5926 14.2246C38.9287 14.2246 38.8339 13.6556 38.8339 13.0866C38.6442 10.621 37.0321 8.72439 34.6614 8.06058C34.282 7.96575 33.9027 7.96575 33.6182 7.96575C33.0492 7.87092 32.6699 7.68126 32.6699 7.11228C32.6699 6.54329 33.0492 6.35363 33.6182 6.35363C36.558 6.35363 38.9287 3.69838 38.9287 0.948303C38.9287 0.474152 39.1184 0.0948303 39.6874 0C40.3512 0 40.5409 0.474152 40.5409 0.948303C40.6357 2.46559 41.2047 3.69838 42.2478 4.74152C43.1961 5.68982 44.3341 6.16397 45.7565 6.2588C46.2307 6.2588 46.7048 6.44846 46.7996 7.11228ZM39.6874 10.1468C40.446 8.91405 41.2995 7.96575 42.4375 7.30194C42.6271 7.20711 42.722 7.01745 42.4375 6.92261C41.2995 6.2588 40.446 5.3105 39.6874 4.0777C38.9287 5.21567 38.1701 6.16397 37.127 6.82778C36.7476 7.11228 36.8425 7.20711 37.127 7.39677C38.1701 8.06058 38.9287 9.00888 39.6874 10.1468Z" fill="#EB00FF"/><path d="M29.1616 19.8195C28.7823 19.5351 28.5926 19.1557 28.3081 18.7764C28.1185 18.4919 28.403 18.3971 28.5927 18.3023C30.9634 16.5953 33.3342 14.8884 35.6101 13.0866C36.0842 12.7073 36.2739 12.9918 36.4636 13.3711C36.6532 13.6556 37.2222 13.9401 36.6532 14.4142C34.2825 16.216 31.8169 17.9229 29.4461 19.7247C29.3513 19.7247 29.2565 19.7247 29.1616 19.8195Z" fill="#EB00FF"/><path d="M33.7132 9.95722C33.6184 10.2417 33.4287 10.3365 33.3339 10.4314C32.1011 11.2848 30.7735 12.0435 29.5407 12.9918C28.9717 13.4659 28.8769 12.897 28.5924 12.6125C28.3079 12.2331 28.0234 11.9487 28.6872 11.6642C29.92 10.9055 31.1528 10.0521 32.3856 9.29341C32.5753 9.19858 32.7649 8.81926 33.0494 9.00892C33.2391 9.29341 33.5236 9.67273 33.7132 9.95722Z" fill="#EB00FF"/><path d="M27.2649 21.1471C27.0752 21.3367 26.9804 21.4316 26.8855 21.5264C26.5062 21.8109 26.1269 22.0954 25.7476 22.3799C25.2735 22.854 25.0838 22.6644 24.7045 22.1902C24.2303 21.6212 24.3252 21.3367 24.8941 20.9574C25.1786 20.7678 25.4631 20.4833 25.7476 20.2936C25.9373 20.1988 26.1269 19.7246 26.4114 20.1039C26.7907 20.3884 26.9804 20.7678 27.2649 21.1471Z" fill="#EB00FF"/></svg>