<svg width="16" height="15" viewBox="0 0 16 15" fill="none" xmlns="http://www.w3.org/2000/svg"><path fill-rule="evenodd" clip-rule="evenodd" d="M4.77973 0.219767C5.56493 0.184035 5.81583 0.175293 7.81504 0.175293H7.81274C9.81256 0.175293 10.0625 0.184035 10.8477 0.219767C11.6314 0.255654 12.1666 0.379722 12.6359 0.561761C13.1205 0.749628 13.53 1.00114 13.9395 1.41061C14.349 1.81978 14.6005 2.23048 14.7891 2.71463C14.9701 3.18269 15.0943 3.71761 15.1311 4.50128C15.1664 5.28649 15.1756 5.53739 15.1756 7.53659C15.1756 9.5358 15.1664 9.78608 15.1311 10.5713C15.0943 11.3547 14.9701 11.8897 14.7891 12.3579C14.6005 12.8419 14.349 13.2526 13.9395 13.6618C13.5305 14.0713 13.1204 14.3234 12.6364 14.5114C12.168 14.6935 11.6325 14.8175 10.8488 14.8534C10.0636 14.8892 9.81348 14.8979 7.81412 14.8979C5.81506 14.8979 5.56432 14.8892 4.77912 14.8534C3.9956 14.8175 3.46052 14.6935 2.99216 14.5114C2.50831 14.3234 2.09761 14.0713 1.6886 13.6618C1.27928 13.2526 1.02777 12.8419 0.839593 12.3578C0.657708 11.8897 0.533639 11.3548 0.4976 10.5711C0.46202 9.78593 0.453125 9.5358 0.453125 7.53659C0.453125 5.53739 0.462327 5.28633 0.497446 4.50113C0.532719 3.71776 0.656941 3.18269 0.83944 2.71448C1.02807 2.23048 1.27958 1.81978 1.68906 1.41061C2.09822 1.00129 2.50892 0.749781 2.99308 0.561761C3.46114 0.379722 3.99606 0.255654 4.77973 0.219767ZM7.56966 1.50226H7.56964H7.56963C7.42078 1.50219 7.28285 1.50213 7.15463 1.50233V1.50049C5.78267 1.50202 5.51951 1.51122 4.84043 1.5419C4.1227 1.57487 3.73301 1.69449 3.47353 1.79571C3.13 1.92944 2.88462 2.08893 2.62698 2.34658C2.36933 2.60422 2.20953 2.8496 2.07611 3.19313C1.97535 3.45261 1.85542 3.84215 1.8226 4.55988C1.78733 5.33588 1.78027 5.56776 1.78027 7.53353C1.78027 9.49931 1.78733 9.73241 1.8226 10.5084C1.85527 11.2261 1.97535 11.6157 2.07611 11.8749C2.20984 12.2185 2.36933 12.4633 2.62698 12.7209C2.88462 12.9786 3.13 13.1381 3.47353 13.2715C3.73316 13.3723 4.1227 13.4922 4.84043 13.5253C5.61643 13.5606 5.84938 13.5683 7.815 13.5683C9.78047 13.5683 10.0136 13.5606 10.7896 13.5253C11.5073 13.4925 11.8972 13.3729 12.1563 13.2717C12.5 13.1382 12.7446 12.9787 13.0023 12.7211C13.2599 12.4636 13.4197 12.219 13.5531 11.8755C13.6539 11.6163 13.7738 11.2268 13.8066 10.509C13.8419 9.73303 13.8496 9.49992 13.8496 7.53537C13.8496 5.57083 13.8419 5.33772 13.8066 4.56172C13.774 3.84399 13.6539 3.45445 13.5531 3.19527C13.4194 2.85175 13.2599 2.60637 13.0023 2.34872C12.7448 2.09108 12.4999 1.93158 12.1563 1.79816C11.8968 1.6974 11.5073 1.57748 10.7896 1.54466C10.0134 1.50938 9.78047 1.50233 7.815 1.50233L7.56966 1.50226ZM11.7447 2.72394C11.257 2.72394 10.8613 3.11915 10.8613 3.60699C10.8613 4.09467 11.257 4.49034 11.7447 4.49034C12.2324 4.49034 12.628 4.09467 12.628 3.60699C12.628 3.1193 12.2324 2.72363 11.7447 2.72363V2.72394ZM7.81495 3.75636C5.72725 3.75636 4.03461 5.449 4.03461 7.53669C4.03461 9.62439 5.72725 11.3163 7.81495 11.3163C9.90264 11.3163 11.5947 9.62439 11.5947 7.53669C11.5947 5.44905 9.90257 3.75644 7.81495 3.75636ZM7.81455 5.08277C9.16964 5.08277 10.2683 6.1813 10.2683 7.53654C10.2683 8.89163 9.16964 9.99031 7.81455 9.99031C6.4593 9.99031 5.36078 8.89163 5.36078 7.53654C5.36078 6.1813 6.4593 5.08277 7.81455 5.08277Z" fill="#EB00FF"/></svg>