<svg width="16" height="15" viewBox="0 0 16 15" fill="none" xmlns="http://www.w3.org/2000/svg"><path fill-rule="evenodd" clip-rule="evenodd" d="M4.77973 0.219767C5.56493 0.184035 5.81583 0.175293 7.81504 0.175293H7.81274C9.81256 0.175293 10.0625 0.184035 10.8477 0.219767C11.6314 0.255654 12.1666 0.379722 12.6359 0.561761C13.1205 0.749628 13.53 1.00114 13.9395 1.41061C14.349 1.81978 14.6005 2.23048 14.7891 2.71463C14.9701 3.18269 15.0943 3.71761 15.1311 4.50128C15.1664 5.28649 15.1756 5.53739 15.1756 7.53659C15.1756 9.5358 15.1664 9.78608 15.1311 10.5713C15.0943 11.3547 14.9701 11.8897 14.7891 12.3579C14.6005 12.8419 14.349 13.2526 13.9395 13.6618C13.5305 14.0713 13.1204 14.3234 12.6364 14.5114C12.168 14.6935 11.6325 14.8175 10.8488 14.8534C10.0636 14.8892 9.81348 14.8979 7.81412 14.8979C5.81506 14.8979 5.56432 14.8892 4.77912 14.8534C3.9956 14.8175 3.46052 14.6935 2.99216 14.5114C2.50831 14.3234 2.09761 14.0713 1.6886 13.6618C1.27928 13.2526 1.02777 12.8419 0.839593 12.3578C0.657708 11.8897 0.533639 11.3548 0.4976 10.5711C0.46202 9.78593 0.453125 9.5358 0.453125 7.53659C0.453125 5.53739 0.462327 5.28633 0.497446 4.50113C0.532719 3.71776 0.656941 3.18269 0.83944 2.71448C1.02807 2.23048 1.27958 1.81978 1.68906 1.41061C2.09822 1.00129 2.50892 0.749781 2.99308 0.561761C3.46114 0.379722 3.99606 0.255654 4.77973 0.219767ZM7.56977 1.50219H7.56976H7.56974C7.4209 1.50212 7.28297 1.50206 7.15475 1.50226V1.50042C5.78279 1.50196 5.51962 1.51116 4.84054 1.54183C4.12281 1.5748 3.73312 1.69442 3.47364 1.79564C3.13011 1.92937 2.88473 2.08887 2.62709 2.34651C2.36944 2.60416 2.20964 2.84953 2.07622 3.19306C1.97546 3.45255 1.85553 3.84208 1.82271 4.55981C1.78744 5.33581 1.78039 5.56769 1.78039 7.53347C1.78039 9.49924 1.78744 9.73235 1.82271 10.5084C1.85538 11.2261 1.97546 11.6156 2.07622 11.8748C2.20995 12.2185 2.36944 12.4632 2.62709 12.7209C2.88473 12.9785 3.13011 13.138 3.47364 13.2714C3.73328 13.3722 4.12281 13.4921 4.84054 13.5253C5.61654 13.5605 5.8495 13.5682 7.81512 13.5682C9.78059 13.5682 10.0137 13.5605 10.7897 13.5253C11.5074 13.4924 11.8973 13.3728 12.1564 13.2716C12.5001 13.1382 12.7447 12.9787 13.0024 12.721C13.26 12.4635 13.4198 12.2189 13.5533 11.8754C13.654 11.6162 13.7739 11.2267 13.8068 10.509C13.842 9.73296 13.8497 9.49985 13.8497 7.53531C13.8497 5.57076 13.842 5.33765 13.8068 4.56165C13.7741 3.84392 13.654 3.45439 13.5533 3.19521C13.4195 2.85168 13.26 2.6063 13.0024 2.34866C12.7449 2.09101 12.5 1.93152 12.1564 1.7981C11.897 1.69734 11.5074 1.57741 10.7897 1.54459C10.0135 1.50932 9.78059 1.50226 7.81512 1.50226L7.56977 1.50219ZM11.7445 2.72382C11.2568 2.72382 10.8612 3.11903 10.8612 3.60687C10.8612 4.09455 11.2568 4.49022 11.7445 4.49022C12.2322 4.49022 12.6279 4.09455 12.6279 3.60687C12.6279 3.11918 12.2322 2.72351 11.7445 2.72351V2.72382ZM7.81495 3.75636C5.72725 3.75636 4.03461 5.449 4.03461 7.53669C4.03461 9.62439 5.72725 11.3163 7.81495 11.3163C9.90264 11.3163 11.5947 9.62439 11.5947 7.53669C11.5947 5.44905 9.90257 3.75644 7.81495 3.75636ZM7.81474 5.08276C9.16983 5.08276 10.2685 6.18128 10.2685 7.53653C10.2685 8.89162 9.16983 9.9903 7.81474 9.9903C6.45949 9.9903 5.36097 8.89162 5.36097 7.53653C5.36097 6.18128 6.45949 5.08276 7.81474 5.08276Z" fill="#EB00FF"/></svg>