<svg width="34" height="32" viewBox="0 0 34 32" fill="none" xmlns="http://www.w3.org/2000/svg"><path d="M33.9805 17.3568L32.5232 10.3244C32.5212 10.3127 32.5163 10.3031 32.5123 10.2935C32.5024 10.2498 32.4895 10.2072 32.4706 10.1657C32.4637 10.1455 32.4557 10.1252 32.4468 10.1061C32.4418 10.0975 32.4388 10.089 32.4359 10.0805C32.415 10.04 32.3872 10.0059 32.3624 9.9708C32.3564 9.96228 32.3525 9.95375 32.3465 9.9463L32.3396 9.93778L32.3386 9.93671L27.4814 3.8756C27.409 3.784 27.3177 3.71051 27.2154 3.65726L20.7631 0.35139C20.7541 0.34713 20.7442 0.343937 20.7353 0.340742C20.7095 0.327961 20.6807 0.318374 20.6529 0.307724C20.63 0.300268 20.6072 0.292812 20.5854 0.287487C20.5556 0.281097 20.5258 0.27684 20.496 0.273645C20.4792 0.271515 20.4663 0.26832 20.4504 0.26619L14.7723 0.000995188C14.6909 -0.00326496 14.6135 0.00631851 14.5361 0.0265542L6.76643 2.15663C6.7565 2.15982 6.74657 2.16621 6.73764 2.16941C6.68403 2.18645 6.63539 2.20668 6.58973 2.23438C6.57385 2.2429 6.55796 2.25248 6.54307 2.26313C6.49344 2.29615 6.44678 2.33342 6.40608 2.37602C6.40112 2.38135 6.39517 2.38455 6.3902 2.38881L0.227711 9.1209C0.217784 9.13261 0.210835 9.14539 0.201901 9.15711C0.176091 9.18693 0.152269 9.21994 0.129438 9.25509C0.117526 9.27639 0.107598 9.29769 0.0966787 9.32006C0.0857593 9.34136 0.0718616 9.36266 0.0629275 9.38609C0.0579642 9.39674 0.0579658 9.40846 0.0530025 9.41804C0.0450611 9.44147 0.0371199 9.46597 0.0321565 9.49046C0.0232225 9.52561 0.0142859 9.55969 0.00932253 9.5959C0.00634452 9.61933 0.00435921 9.64276 0.00237387 9.66619C0.000388531 9.70453 -0.000603047 9.74181 0.000389622 9.77909C0.00138229 9.79187 -0.000603047 9.80359 0.000389622 9.81637L0.64463 16.8477C0.67441 17.179 0.875925 17.4591 1.1638 17.5783L6.65028 19.8171L9.92311 25.4596C9.92808 25.4703 9.93602 25.4767 9.94197 25.483C9.95091 25.4969 9.95587 25.5107 9.9648 25.5235C9.98069 25.5459 9.99955 25.5608 10.0164 25.581C10.0373 25.6045 10.0551 25.6279 10.077 25.6481C10.1068 25.6769 10.1385 25.7003 10.1713 25.7227C10.1931 25.7365 10.214 25.7536 10.2368 25.7674C10.2745 25.7887 10.3132 25.8036 10.3549 25.8196C10.3758 25.827 10.3956 25.8366 10.4175 25.842C10.48 25.8601 10.5425 25.8675 10.6071 25.8675C10.6081 25.8675 10.609 25.8675 10.611 25.8675H16.4747L21.4996 31.7188C21.6565 31.901 21.8749 32 22.0962 32C22.1995 32 22.3047 31.9776 22.403 31.935C22.7166 31.7976 22.9191 31.4664 22.9082 31.1032L22.7722 26.2978L23.6259 24.0207L29.3368 24.7801C29.6534 24.8248 29.9542 24.6672 30.122 24.3807L33.8762 18.0097C33.9894 17.8169 34.0271 17.5837 33.9805 17.3568ZM26.3657 5.14831L29.7199 9.33497L21.9076 7.79492L21.3219 2.56453L26.3657 5.14831ZM21.1959 9.42337L29.2841 11.0199L19.4418 17.0852L21.1959 9.42337ZM20.3233 8.24224L12.0673 11.6599L19.7515 3.12581L20.3233 8.24224ZM17.6659 17.5507L11.286 13.8486L19.2691 10.5427L17.6659 17.5507ZM14.8229 1.74552L18.5822 1.92232L9.64219 11.8506L7.93281 3.6349L14.8229 1.74552ZM6.50337 4.75105L8.04002 12.1403L2.21305 9.43721L6.50337 4.75105ZM2.21007 16.1427L1.74848 11.1178L8.13929 14.0829L6.7297 17.9884L2.21007 16.1427ZM8.0966 19.0172L9.60149 14.8508L16.707 18.9725L10.8314 23.7321L8.0966 19.0172ZM17.4267 24.4105C17.2728 24.2316 17.0574 24.1304 16.8301 24.1304H13.0312L17.5101 20.504L17.8615 21.4508H17.8595L19.8528 27.2372L17.4267 24.4105ZM29.026 22.9877L23.205 22.2134C22.8407 22.1612 22.4903 22.387 22.3523 22.7534L21.2048 25.8217C21.184 25.8803 21.1691 25.941 21.1581 26.0017L19.5133 21.2304L19.5262 21.224L18.9842 19.7691L30.521 20.4497L29.026 22.9877ZM31.5127 18.7659L20.9795 18.1439L31.1801 11.858L32.3247 17.3845L31.5127 18.7659Z" fill="#fff"/></svg>