<svg width="35" height="35" viewBox="0 0 35 35" fill="none" xmlns="http://www.w3.org/2000/svg"><path d="M30.7079 18.1558C30.476 18.1558 30.2441 18.1558 30.0081 18.1558C29.6962 18.1558 29.3923 18.4317 29.4083 18.7556C29.4243 19.0835 29.6722 19.3514 30.0081 19.3554C30.0841 19.3554 30.1561 19.3594 30.2321 19.3674C30.352 19.3754 30.2601 19.3714 30.2361 19.3674C30.2721 19.3754 30.308 19.3794 30.344 19.3874C30.416 19.4034 30.484 19.4194 30.552 19.4434C30.584 19.4554 30.62 19.4674 30.652 19.4794C30.8079 19.5274 30.56 19.4274 30.7039 19.4994C30.8319 19.5634 30.9479 19.6313 31.0678 19.7113C31.0878 19.7233 31.1558 19.7833 31.0718 19.7113C31.0998 19.7353 31.1238 19.7553 31.1518 19.7793C31.2118 19.8313 31.2678 19.8873 31.3198 19.9433C31.3438 19.9673 31.3637 19.9952 31.3877 20.0232C31.4477 20.0912 31.3358 19.9513 31.3917 20.0272C31.4317 20.0832 31.4717 20.1432 31.5077 20.2032C31.5437 20.2632 31.5757 20.3272 31.6077 20.3871C31.6157 20.4031 31.6597 20.5031 31.6317 20.4351C31.6037 20.3631 31.6517 20.4991 31.6597 20.5111C31.6837 20.5791 31.7037 20.6471 31.7196 20.719C31.7276 20.747 31.7596 20.955 31.7476 20.827C31.7636 20.975 31.7676 21.1229 31.7596 21.2709C31.7556 21.3069 31.7556 21.3429 31.7476 21.3789C31.7516 21.3509 31.7676 21.2669 31.7436 21.3829C31.7276 21.4548 31.7116 21.5228 31.6957 21.5908C31.6757 21.6588 31.6517 21.7268 31.6277 21.7947C31.6717 21.6828 31.5797 21.8867 31.5677 21.9147C31.5397 21.9667 31.5077 22.0227 31.4757 22.0747C31.4597 22.0987 31.3398 22.2586 31.4157 22.1626C31.3158 22.2826 31.2038 22.3946 31.0838 22.4945C31.1758 22.4186 31.0198 22.5385 30.9959 22.5545C30.9359 22.5945 30.8759 22.6265 30.8159 22.6625C30.7799 22.6785 30.612 22.7545 30.7199 22.7105C30.6439 22.7385 30.568 22.7665 30.492 22.7865C30.424 22.8065 30.352 22.8185 30.2801 22.8344C30.1881 22.8544 30.372 22.8265 30.2761 22.8344C30.2401 22.8384 30.2041 22.8424 30.1641 22.8424C30.0961 22.8464 30.0321 22.8464 29.9641 22.8464C29.5962 22.8464 29.2284 22.8464 28.8645 22.8464C28.5525 22.8464 28.2486 23.1224 28.2646 23.4463C28.2806 23.7742 28.5285 24.0421 28.8645 24.0461C28.9404 24.0461 29.0124 24.0501 29.0884 24.0581C29.2084 24.0661 29.1164 24.0621 29.0924 24.0581C29.1284 24.0661 29.1644 24.0701 29.2004 24.0781C29.2723 24.0941 29.3403 24.1101 29.4083 24.1341C29.4403 24.1461 29.4763 24.1581 29.5083 24.1701C29.6642 24.2181 29.4163 24.1181 29.5603 24.1901C29.6882 24.254 29.8042 24.322 29.9242 24.402C29.9441 24.414 30.0121 24.474 29.9282 24.402C29.9561 24.426 29.9801 24.446 30.0081 24.47C30.0681 24.522 30.1201 24.578 30.1761 24.6339C30.2001 24.6579 30.2201 24.6859 30.2441 24.7139C30.304 24.7819 30.1921 24.6419 30.2481 24.7179C30.2881 24.7739 30.328 24.8339 30.364 24.8939C30.4 24.9538 30.432 25.0178 30.464 25.0778C30.472 25.0938 30.516 25.1938 30.488 25.1258C30.46 25.0538 30.508 25.1898 30.516 25.2018C30.54 25.2698 30.56 25.3377 30.576 25.4097C30.584 25.4377 30.616 25.6457 30.604 25.5177C30.62 25.6656 30.624 25.8136 30.616 25.9616C30.612 25.9976 30.612 26.0335 30.604 26.0695C30.608 26.0415 30.624 25.9576 30.6 26.0735C30.584 26.1455 30.568 26.2135 30.552 26.2815C30.532 26.3495 30.508 26.4174 30.484 26.4854C30.528 26.3734 30.436 26.5774 30.424 26.6054C30.396 26.6574 30.364 26.7134 30.332 26.7653C30.316 26.7893 30.1961 26.9493 30.2721 26.8533C30.1721 26.9733 30.0601 27.0852 29.9401 27.1852C30.0321 27.1092 29.8762 27.2292 29.8522 27.2452C29.7922 27.2852 29.7322 27.3172 29.6722 27.3532C29.6362 27.3692 29.4683 27.4451 29.5763 27.4012C29.5003 27.4292 29.4243 27.4571 29.3483 27.4771C29.2803 27.4971 29.2084 27.5091 29.1364 27.5251C29.0444 27.5451 29.2284 27.5171 29.1324 27.5251C29.0964 27.5291 29.0604 27.5331 29.0204 27.5331C28.9524 27.5371 28.8884 27.5371 28.8205 27.5371C28.4526 27.5371 28.0847 27.5371 27.7208 27.5371C27.4089 27.5371 27.1049 27.813 27.1209 28.137C27.1369 28.4649 27.3849 28.7328 27.7208 28.7368C27.8127 28.7368 27.9047 28.7408 27.9967 28.7528C27.8687 28.7368 28.0767 28.7728 28.1047 28.7808C28.1846 28.8008 28.2606 28.8248 28.3366 28.8487C28.3646 28.8567 28.4726 28.9047 28.3646 28.8567C28.4046 28.8727 28.4446 28.8927 28.4846 28.9127C28.5565 28.9487 28.6245 28.9887 28.6885 29.0327C28.7165 29.0527 28.7445 29.0727 28.7765 29.0927C28.9124 29.1847 28.7245 29.0447 28.8005 29.1127C28.8605 29.1647 28.9164 29.2166 28.9724 29.2726C28.9964 29.2966 29.0204 29.3246 29.0444 29.3486C29.0524 29.3566 29.1604 29.4926 29.0844 29.3886C29.1804 29.5166 29.2563 29.6525 29.3283 29.7925C29.3403 29.8125 29.3683 29.8965 29.3323 29.7965C29.3443 29.8285 29.3563 29.8645 29.3683 29.8965C29.3963 29.9804 29.4203 30.0684 29.4403 30.1564C29.4403 30.1524 29.4723 30.3283 29.4563 30.2364C29.4403 30.1484 29.4643 30.3243 29.4643 30.3203C29.4683 30.3763 29.4683 30.4323 29.4683 30.4883C29.4683 30.5723 29.4643 30.6562 29.4563 30.7402C29.4443 30.8442 29.4883 30.6043 29.4483 30.7682C29.4363 30.8122 29.4283 30.8562 29.4203 30.9002C29.4003 30.9802 29.3763 31.0521 29.3483 31.1321C29.3123 31.2401 29.3403 31.1601 29.3483 31.1361C29.3323 31.1761 29.3123 31.2161 29.2923 31.2561C29.2563 31.3281 29.2164 31.396 29.1724 31.46C29.1524 31.488 29.1324 31.516 29.1124 31.548C29.0244 31.68 29.1884 31.476 29.0764 31.592C29.0284 31.644 28.9844 31.6959 28.9324 31.7439C28.9004 31.7759 28.8685 31.8039 28.8365 31.8319C28.8165 31.8519 28.7245 31.9239 28.8165 31.8519C28.6885 31.9479 28.5525 32.0239 28.4126 32.0958C28.2646 32.1718 28.4806 32.0718 28.3846 32.1078C28.3446 32.1238 28.3006 32.1398 28.2606 32.1518C28.1926 32.1718 28.1247 32.1918 28.0527 32.2078C28.0167 32.2158 27.9807 32.2198 27.9447 32.2278C28.0647 32.2078 27.9447 32.2278 27.9127 32.2278C27.8487 32.2318 27.7808 32.2358 27.7168 32.2358C27.6968 32.2358 27.6768 32.2358 27.6608 32.2358C26.5851 32.2398 25.5094 32.2358 24.4337 32.2358C22.5542 32.2358 20.6748 32.2358 18.7953 32.2358C17.2677 32.2358 15.7402 32.2358 14.2126 32.2358C13.9407 32.2358 13.6687 32.2358 13.4008 32.2358C12.625 32.2318 11.9132 32.1078 11.1694 31.8439C10.7856 31.7079 10.4097 31.548 10.0298 31.4C9.90981 31.352 9.79384 31.3081 9.67387 31.2601C9.82183 31.452 9.96579 31.644 10.1137 31.8399C10.1137 31.3201 10.1137 30.8002 10.1137 30.2803C10.1137 29.0327 10.1137 27.7811 10.1137 26.5334C10.1137 25.0218 10.1137 23.5103 10.1137 21.9987C10.1137 20.6911 10.1137 19.3874 10.1137 18.0798C10.1137 17.452 10.1497 16.8081 10.1137 16.1803C10.1137 16.1723 10.1137 16.1603 10.1137 16.1523C9.9138 16.3523 9.71386 16.5522 9.51392 16.7522C10.1777 16.7522 10.8375 16.7762 11.4294 16.4083C11.8413 16.1523 12.1372 15.7844 12.3531 15.3566C12.689 14.6768 13.0249 14.0009 13.3608 13.3211C14.2566 11.5176 15.1483 9.71015 16.0441 7.90666C16.16 7.67073 16.28 7.43879 16.372 7.19086C16.5639 6.67901 16.5839 6.14716 16.5839 5.61131C16.5839 4.5796 16.5839 3.54789 16.5839 2.52018C16.5839 2.40821 16.5959 2.29225 16.5839 2.18028C16.5919 2.24026 16.5559 2.36822 16.5159 2.43621C16.5439 2.38822 16.5639 2.33223 16.5919 2.28425C16.6319 2.21227 16.6759 2.14029 16.7239 2.07231C16.7319 2.06031 16.7719 2.01632 16.7759 2.00433C16.7719 2.05631 16.6879 2.1083 16.7399 2.05231C16.7919 1.99233 16.8398 1.93235 16.8958 1.87636C16.9398 1.83238 16.9838 1.78839 17.0278 1.7484C17.0638 1.71641 17.2277 1.60444 17.0918 1.69242C17.2437 1.59644 17.3877 1.50447 17.5476 1.42449C17.6796 1.36051 17.4717 1.44049 17.5596 1.42049C17.5996 1.41249 17.6396 1.3925 17.6796 1.3765C17.7716 1.34451 17.8676 1.32052 17.9595 1.30053C18.0035 1.28853 18.0515 1.28453 18.0955 1.27253C18.2754 1.23654 17.9795 1.27653 18.1675 1.26054C18.2594 1.25254 18.3514 1.24454 18.4434 1.24454C18.5074 1.24454 18.5714 1.24854 18.6353 1.25254C18.6713 1.25654 18.7153 1.25254 18.7513 1.26454C18.5914 1.21255 18.6993 1.25654 18.7433 1.26454C18.8833 1.29253 19.0192 1.32452 19.1552 1.37251C19.1912 1.3845 19.2272 1.4005 19.2672 1.41249C19.3991 1.45648 19.1472 1.35251 19.2712 1.41249C19.3311 1.44049 19.3911 1.46848 19.4511 1.50047C19.5871 1.57245 19.711 1.65643 19.835 1.7444C19.955 1.82838 19.735 1.66042 19.847 1.7564C19.879 1.78439 19.915 1.81238 19.947 1.84037C20.003 1.88836 20.0549 1.93635 20.1069 1.98833C20.1589 2.04032 20.2109 2.0963 20.2629 2.14829C20.2949 2.18028 20.3229 2.21627 20.3509 2.25226C20.3709 2.27225 20.4908 2.43621 20.4028 2.31224C20.6188 2.60416 20.7947 2.91607 20.9427 3.24398C20.8947 3.13201 20.9427 3.23998 20.9507 3.26797C20.9667 3.30796 20.9827 3.35195 20.9987 3.39194C21.0347 3.48391 21.0627 3.57988 21.0946 3.67186C21.1586 3.8798 21.2106 4.08774 21.2506 4.30368C21.2706 4.39965 21.2866 4.49562 21.2986 4.5956C21.2826 4.47163 21.3066 4.67157 21.3066 4.67557C21.3146 4.73556 21.3186 4.79954 21.3226 4.85952C21.3426 5.09545 21.3506 5.32739 21.3466 5.56332C21.3386 5.97921 21.2986 6.39109 21.2546 6.80297C21.2106 7.23885 21.1586 7.67073 21.1026 8.1066C21.0906 8.20658 21.0787 8.30655 21.0627 8.40652C21.0547 8.4665 21.0467 8.52649 21.0387 8.59047C21.0427 8.56248 21.0507 8.4905 21.0347 8.61446C21.0027 8.86239 20.9667 9.11032 20.9307 9.35825C20.8067 10.234 20.6708 11.1058 20.5308 11.9775C20.4708 12.3414 20.4148 12.7053 20.3509 13.0692C20.2869 13.4451 20.5068 13.829 20.9307 13.829C21.5385 13.829 22.1424 13.829 22.7502 13.829C24.0338 13.829 25.3135 13.829 26.5971 13.829C27.7248 13.829 28.8525 13.829 29.9801 13.829C30.2361 13.829 30.488 13.829 30.7439 13.829C30.7559 13.829 30.7719 13.829 30.7839 13.829C30.8679 13.829 30.9519 13.833 31.0358 13.841C31.0638 13.845 31.0918 13.845 31.1198 13.849C31.1118 13.849 31.0278 13.833 31.0958 13.849C31.1598 13.861 31.2198 13.873 31.2798 13.889C31.3917 13.917 31.5037 13.953 31.6117 13.9929C31.6757 14.0169 31.5997 13.9849 31.5917 13.9809C31.6157 13.9929 31.6397 14.0009 31.6637 14.0129C31.7196 14.0409 31.7756 14.0689 31.8276 14.0969C31.9196 14.1489 32.0076 14.2049 32.0915 14.2649C32.1835 14.3288 32.0516 14.2249 32.1355 14.3009C32.1795 14.3408 32.2275 14.3808 32.2715 14.4248C32.3475 14.4968 32.4155 14.5768 32.4834 14.6528C32.5434 14.7207 32.4314 14.5808 32.4874 14.6528C32.5034 14.6728 32.5194 14.6967 32.5354 14.7167C32.5714 14.7687 32.6034 14.8167 32.6354 14.8687C32.6914 14.9607 32.7394 15.0526 32.7833 15.1486C32.8113 15.2126 32.7793 15.1366 32.7753 15.1286C32.7833 15.1526 32.7953 15.1766 32.8033 15.2046C32.8233 15.2646 32.8433 15.3206 32.8633 15.3806C32.8953 15.4845 32.9153 15.5885 32.9353 15.6965C32.9553 15.8124 32.9353 15.6365 32.9433 15.7564C32.9473 15.8324 32.9513 15.9044 32.9553 15.9804C32.9553 16.0924 32.9513 16.2043 32.9393 16.3163C32.9513 16.2123 32.9353 16.3363 32.9273 16.3723C32.9153 16.4323 32.8993 16.4962 32.8833 16.5562C32.8673 16.6082 32.8553 16.6602 32.8353 16.7122C32.8273 16.7362 32.7793 16.8681 32.7993 16.8161C32.8193 16.7642 32.7634 16.8921 32.7514 16.9121C32.7234 16.9681 32.6954 17.0201 32.6634 17.0761C32.6354 17.1201 32.6074 17.168 32.5794 17.208C32.5594 17.236 32.5394 17.264 32.5194 17.296C32.5154 17.304 32.4634 17.372 32.5034 17.32C32.5394 17.276 32.4474 17.384 32.4314 17.4C32.3915 17.444 32.3475 17.492 32.3035 17.5319C32.2675 17.5679 32.2275 17.6039 32.1875 17.6399C32.1595 17.6639 32.0675 17.7399 32.1475 17.6799C32.0556 17.7479 31.9596 17.8119 31.8636 17.8678C31.8196 17.8958 31.7716 17.9198 31.7236 17.9438C31.7037 17.9558 31.5757 18.0158 31.6277 17.9918C31.6797 17.9678 31.5477 18.0198 31.5237 18.0318C31.4557 18.0558 31.3877 18.0758 31.3198 18.0958C31.2678 18.1118 31.2158 18.1238 31.1598 18.1318C31.1358 18.1358 30.9919 18.1598 31.0518 18.1518C31.1078 18.1438 30.9639 18.1598 30.9399 18.1598C30.8359 18.1518 30.7719 18.1518 30.7079 18.1558C30.396 18.1598 30.0921 18.4277 30.1081 18.7556C30.1241 19.0795 30.372 19.3594 30.7079 19.3554C31.8156 19.3434 32.8273 18.8156 33.4871 17.9278C34.123 17.0721 34.2909 15.8724 33.927 14.8727C33.5551 13.857 32.7394 13.0612 31.6957 12.7533C31.2958 12.6333 30.8839 12.6173 30.468 12.6173C29.4563 12.6173 28.4446 12.6173 27.4369 12.6173C26.0652 12.6173 24.6896 12.6173 23.318 12.6173C22.5262 12.6173 21.7225 12.5773 20.9347 12.6173C20.9227 12.6173 20.9107 12.6173 20.8987 12.6173C21.0906 12.8693 21.2826 13.1252 21.4785 13.3771C21.7705 11.6096 22.0464 9.84211 22.2703 8.06662C22.3783 7.21486 22.5062 6.3511 22.5142 5.49134C22.5182 4.5836 22.3743 3.66386 22.0224 2.8241C21.4425 1.43649 20.3029 0.248823 18.7553 0.0608759C17.4677 -0.0950801 16.0521 0.57673 15.4802 1.76839C15.3443 2.04432 15.3603 2.28825 15.3603 2.58816C15.3603 3.12401 15.3603 3.65586 15.3603 4.19171C15.3603 4.69557 15.3603 5.19943 15.3603 5.69928C15.3603 5.79526 15.3603 5.88723 15.3603 5.9832C15.3563 6.3351 15.2843 6.67901 15.1363 6.98692C14.3845 8.53848 13.6048 10.078 12.841 11.6216C12.4051 12.5054 11.9652 13.3891 11.5293 14.2729C11.4334 14.4648 11.3414 14.6568 11.2454 14.8487C11.2414 14.8567 11.2374 14.8647 11.2334 14.8727C11.1894 14.9567 11.1415 15.0406 11.0855 15.1206C11.1535 15.0247 11.0375 15.1686 11.0335 15.1766C10.9935 15.2166 10.9535 15.2566 10.9095 15.2926C10.7896 15.4045 10.9935 15.2526 10.8535 15.3366C10.8056 15.3646 10.7576 15.3965 10.7096 15.4245C10.6776 15.4405 10.6416 15.4605 10.6096 15.4725C10.7216 15.4245 10.5496 15.4885 10.5416 15.4925C10.4856 15.5085 10.4297 15.5205 10.3777 15.5325C10.2137 15.5725 10.4776 15.5405 10.3097 15.5405C10.2577 15.5405 10.2017 15.5445 10.1497 15.5445C9.9338 15.5445 9.71786 15.5445 9.50192 15.5445C9.17801 15.5445 8.90209 15.8204 8.90209 16.1443C8.90209 16.6642 8.90209 17.184 8.90209 17.7039C8.90209 18.9515 8.90209 20.2032 8.90209 21.4508C8.90209 22.9624 8.90209 24.474 8.90209 25.9856C8.90209 27.2932 8.90209 28.5968 8.90209 29.9045C8.90209 30.5363 8.8741 31.1721 8.90209 31.8039C8.90209 31.8119 8.90209 31.8239 8.90209 31.8319C8.90209 32.1198 9.09404 32.3118 9.34197 32.4117C9.69387 32.5517 10.0458 32.6877 10.3977 32.8276C11.0575 33.0876 11.7213 33.2715 12.4251 33.3635C12.925 33.4275 13.4248 33.4275 13.9247 33.4275C15.4202 33.4275 16.9198 33.4275 18.4154 33.4275C20.3709 33.4275 22.3263 33.4275 24.2817 33.4275C25.4054 33.4275 26.5251 33.4315 27.6488 33.4275C28.8525 33.4235 29.9481 32.7317 30.416 31.616C31.0198 30.1724 30.348 28.4289 28.9044 27.801C28.5206 27.6331 28.1207 27.5451 27.7008 27.5411C27.7008 27.941 27.7008 28.3409 27.7008 28.7408C28.0687 28.7408 28.4366 28.7408 28.8005 28.7408C29.5123 28.7408 30.1721 28.5128 30.7279 28.069C31.9956 27.0573 32.1275 25.1698 31.1318 23.9301C30.584 23.2463 29.7282 22.8624 28.8605 22.8544C28.8605 23.2543 28.8605 23.6542 28.8605 24.0541C29.2283 24.0541 29.5962 24.0541 29.9601 24.0541C30.6719 24.0541 31.3318 23.8262 31.8876 23.3823C33.1552 22.3706 33.2872 20.4831 32.2915 19.2435C31.7436 18.5597 30.8879 18.1758 30.0201 18.1678C30.0201 18.5677 30.0201 18.9675 30.0201 19.3674C30.2521 19.3674 30.484 19.3674 30.7199 19.3674C31.0318 19.3674 31.3358 19.0915 31.3198 18.7676C31.2918 18.4277 31.0438 18.1558 30.7079 18.1558Z" fill="#fff"/><path d="M8.5136 33.2196C6.62213 33.2196 4.72667 33.2196 2.8352 33.2196C2.4713 33.2196 2.10341 33.2196 1.73951 33.2196C1.68352 33.2196 1.62754 33.2156 1.57556 33.2196C1.4236 33.2276 1.66353 33.2596 1.51957 33.2156C1.52357 33.2156 1.35962 33.1636 1.43959 33.1956C1.51957 33.2276 1.37161 33.1556 1.37161 33.1556C1.24765 33.0956 1.4196 33.2276 1.33162 33.1236C1.31563 33.1076 1.21966 32.9796 1.29164 33.0876C1.26364 33.0436 1.23565 32.9996 1.21566 32.9517C1.27164 33.0716 1.21166 32.9157 1.20766 32.8957C1.16767 32.7517 1.19566 32.9916 1.20366 32.8397C1.22365 32.5158 1.20366 32.1799 1.20366 31.856C1.20366 29.8565 1.20366 27.8531 1.20366 25.8537C1.20366 23.4583 1.20366 21.059 1.20366 18.6637C1.20366 17.8239 1.20366 16.9802 1.20366 16.1404C1.20366 15.8205 1.22365 15.4966 1.20366 15.1767C1.19566 15.0247 1.16367 15.2646 1.20766 15.1207C1.21166 15.1007 1.27164 14.9447 1.21566 15.0647C1.23565 15.0167 1.26364 14.9727 1.29164 14.9287C1.21966 15.0367 1.31563 14.9088 1.33162 14.8928C1.3996 14.8168 1.35562 14.8728 1.33162 14.8888C1.37561 14.8608 1.4196 14.8328 1.46759 14.8128C1.34762 14.8688 1.50358 14.8088 1.52357 14.8048C1.66753 14.7608 1.4236 14.7928 1.57955 14.8008C1.63954 14.8048 1.69952 14.8008 1.7595 14.8008C2.1314 14.8008 2.50329 14.8008 2.87519 14.8008C4.07485 14.8008 5.27051 14.8008 6.47017 14.8008C7.14998 14.8008 7.84179 14.8408 8.5216 14.8008C8.67355 14.7928 8.43362 14.7608 8.57758 14.8048C8.59757 14.8088 8.75353 14.8688 8.63356 14.8128C8.68155 14.8328 8.72554 14.8608 8.76953 14.8888C8.66156 14.8168 8.78952 14.9127 8.80551 14.9287C8.91748 15.0287 8.77752 14.8728 8.82151 14.9487C8.8455 14.9847 8.8655 15.0207 8.88549 15.0607C8.82951 14.9407 8.88949 15.0967 8.89349 15.1167C8.93748 15.2607 8.90549 15.0167 8.89749 15.1727C8.89749 15.1967 8.89749 15.2207 8.89749 15.2447C8.89749 15.4126 8.89749 15.5806 8.89749 15.7525C8.89749 17.58 8.89749 19.4035 8.89749 21.231C8.89749 23.6783 8.89749 26.1256 8.89749 28.5769C8.89749 29.9765 8.90149 31.3761 8.89749 32.7797C8.89749 32.7997 8.89749 32.8197 8.89749 32.8437C8.90549 32.9956 8.93748 32.7557 8.89349 32.8997C8.88549 32.9317 8.8735 32.9677 8.8655 32.9996C8.90549 32.8757 8.8495 33.0236 8.83751 33.0436C8.77752 33.1676 8.90949 32.9956 8.80551 33.0836C8.78952 33.0996 8.66156 33.1956 8.76953 33.1236C8.72554 33.1516 8.68155 33.1796 8.63356 33.1996C8.75353 33.1436 8.59757 33.2036 8.57758 33.2076C8.41362 33.2636 8.67755 33.2156 8.5136 33.2196C8.20168 33.2276 7.89777 33.4875 7.91377 33.8194C7.92976 34.1353 8.17769 34.4272 8.5136 34.4192C9.39335 34.3953 10.0692 33.7074 10.0812 32.8277C10.0852 32.6877 10.0812 32.5478 10.0812 32.4078C10.0812 31.692 10.0812 30.9762 10.0812 30.2604C10.0812 27.8811 10.0812 25.5018 10.0812 23.1184C10.0812 20.943 10.0812 18.7677 10.0812 16.5923C10.0812 16.1364 10.0852 15.6765 10.0812 15.2207C10.0772 14.5009 9.60929 13.8211 8.88549 13.6571C8.59357 13.5891 8.28166 13.6131 7.98575 13.6131C5.89834 13.6131 3.81092 13.6131 1.72351 13.6131C1.08769 13.6131 0.471867 13.869 0.17595 14.4649C0.0359899 14.7488 0 15.0487 0 15.3566C0 15.9405 0 16.5243 0 17.1041C0 19.3875 0 21.6708 0 23.9502C0 26.2455 0 28.5409 0 30.8403C0 31.4401 0 32.0399 0 32.6397C0 32.8517 0 33.0636 0.0599831 33.2676C0.271923 34.0074 0.947732 34.4112 1.68752 34.4112C3.76294 34.4112 5.84235 34.4112 7.91776 34.4112C8.11771 34.4112 8.31365 34.4112 8.5136 34.4112C8.82551 34.4112 9.12942 34.1353 9.11343 33.8114C9.09743 33.4955 8.8495 33.2196 8.5136 33.2196Z" fill="#fff"/><path d="M9.48176 15.5407C9.42577 15.5407 9.36979 15.5407 9.30981 15.5407C9.22583 15.5367 9.14985 15.5567 9.07787 15.5927C9.00189 15.6166 8.93791 15.6566 8.88593 15.7166C8.82594 15.7726 8.78596 15.8366 8.76196 15.9086C8.72597 15.9805 8.70598 16.0565 8.70998 16.1405C8.71797 16.2965 8.76596 16.4564 8.88593 16.5644C9.00189 16.6723 9.14585 16.7403 9.30981 16.7403C9.36579 16.7403 9.42178 16.7403 9.48176 16.7403C9.56574 16.7443 9.64171 16.7243 9.71369 16.6883C9.78967 16.6643 9.85365 16.6244 9.90564 16.5644C9.96562 16.5084 10.0056 16.4444 10.0296 16.3724C10.0656 16.3005 10.0856 16.2245 10.0816 16.1405C10.0736 15.9845 10.0256 15.8246 9.90564 15.7166C9.78967 15.6086 9.64571 15.5407 9.48176 15.5407Z" fill="#fff"/></svg>