<svg width="46" height="35" viewBox="0 0 46 35" fill="none" xmlns="http://www.w3.org/2000/svg"><path d="M45.4166 16.1474C45.4166 15.4132 45.272 14.6861 44.991 14.0078C44.7101 13.3294 44.2982 12.7131 43.779 12.1939C43.2598 11.6747 42.6435 11.2628 41.9651 10.9818C41.2867 10.7009 40.5597 10.5562 39.8254 10.5562H39.1647V1.00037C39.1618 0.823303 39.1128 0.650049 39.0224 0.497762C38.9321 0.345476 38.8035 0.219438 38.6494 0.132133C38.4953 0.0448275 38.3211 -0.000717216 38.144 8.53984e-06C37.967 0.000734296 37.7931 0.0477054 37.6398 0.136271L20.7137 9.59049H9.02299C8.19209 9.5879 7.38648 9.87621 6.74588 10.4054C6.10528 10.9346 5.67009 11.6713 5.51578 12.4877H4.09257C3.1379 12.5971 2.25681 13.0538 1.61716 13.7709C0.97752 14.4879 0.624023 15.4153 0.624023 16.3762C0.624023 17.3371 0.97752 18.2644 1.61716 18.9815C2.25681 19.6986 3.1379 20.1553 4.09257 20.2646H5.51578C5.67009 21.0811 6.10528 21.8178 6.74588 22.347C7.38648 22.8761 8.19209 23.1644 9.02299 23.1619H9.78543V30.9387C9.90002 31.9843 10.3965 32.9508 11.1798 33.6529C11.963 34.3549 12.9778 34.7432 14.0297 34.7432C15.0815 34.7432 16.0963 34.3549 16.8796 33.6529C17.6628 32.9508 18.1593 31.9843 18.2739 30.9387V23.1619H20.612L37.6398 32.6669L38.1481 32.8194L38.6564 32.6669C38.8085 32.5791 38.9354 32.4533 39.0244 32.3019C39.1135 32.1504 39.1618 31.9785 39.1647 31.8028V22.1961H39.8254C40.5597 22.1961 41.2867 22.0515 41.9651 21.7705C42.6435 21.4895 43.2598 21.0777 43.779 20.5585C44.2982 20.0393 44.7101 19.4229 44.991 18.7446C45.272 18.0662 45.4166 17.3392 45.4166 16.6049V16.1474ZM2.21189 16.3508C2.22514 15.8608 2.42911 15.3954 2.78038 15.0537C3.13165 14.7119 3.60246 14.5207 4.09257 14.5209H5.46495V18.2314H4.09257C3.59378 18.2314 3.11542 18.0333 2.76273 17.6806C2.41003 17.3279 2.21189 16.8495 2.21189 16.3508ZM16.2916 30.9387C16.2111 31.4675 15.9439 31.95 15.5382 32.2987C15.1326 32.6473 14.6154 32.839 14.0805 32.839C13.5456 32.839 13.0284 32.6473 12.6228 32.2987C12.2171 31.95 11.9498 31.4675 11.8694 30.9387V23.1619H16.2916V30.9387ZM20.0529 21.1287H9.02299C8.61857 21.1287 8.23071 20.968 7.94474 20.6821C7.65877 20.3961 7.49812 20.0082 7.49812 19.6038V13.1485C7.49812 12.7441 7.65877 12.3562 7.94474 12.0703C8.23071 11.7843 8.61857 11.6237 9.02299 11.6237H20.0529V21.1287ZM37.1315 30.0238L22.0861 21.5862V11.1662L37.1315 2.72856V30.0238ZM43.3835 16.6049C43.3835 17.5486 43.0086 18.4536 42.3414 19.1208C41.6741 19.7881 40.7691 20.1629 39.8254 20.1629H39.1647V12.5894H39.8254C40.7691 12.5894 41.6741 12.9643 42.3414 13.6315C43.0086 14.2988 43.3835 15.2038 43.3835 16.1474V16.6049Z" fill="#fff"/></svg>