<svg width="47" height="30" viewBox="0 0 47 30" fill="none" xmlns="http://www.w3.org/2000/svg"><path d="M37.5923 11.0534C37.2168 11.0536 36.8416 11.0762 36.4688 11.1213C35.9758 9.5045 34.9817 8.08914 33.632 7.08251C32.2823 6.07588 30.648 5.53087 28.9685 5.52729C28.1105 5.52649 27.2584 5.66976 26.4472 5.95122C25.4726 3.82926 23.8074 2.10625 21.7274 1.06765C19.6473 0.029051 17.2773 -0.2628 15.01 0.240449C12.7427 0.743699 10.7142 2.01184 9.26058 3.83478C7.80692 5.65772 7.01538 7.92604 7.01707 10.2639C7.01769 11.0961 7.12039 11.925 7.32282 12.7317C5.17677 13.0615 3.23319 14.1942 1.88009 15.9036C0.526986 17.6131 -0.136075 19.7735 0.0232796 21.9537C0.182634 24.1338 1.15268 26.1732 2.73975 27.6647C4.32683 29.1563 6.41416 29.9902 8.58503 30H37.5923C40.0873 30 42.4802 29.0019 44.2445 27.2253C46.0088 25.4487 47 23.0392 47 20.5267C47 18.0142 46.0088 15.6046 44.2445 13.8281C42.4802 12.0515 40.0873 11.0534 37.5923 11.0534ZM37.5923 28.4211H8.58503C6.72788 28.4292 4.94254 27.6992 3.61675 26.3896C2.29096 25.08 1.53179 23.2966 1.50412 21.4267C1.47645 19.5568 2.18251 17.7514 3.46896 16.4026C4.75541 15.0539 6.51836 14.2706 8.37492 14.223C8.49858 14.2195 8.61966 14.1866 8.72827 14.1269C8.83687 14.0673 8.92992 13.9826 8.9998 13.8798C9.06969 13.7771 9.11443 13.6591 9.13036 13.5355C9.14629 13.412 9.13297 13.2864 9.09148 13.1691C8.34373 11.0142 8.46951 8.64948 9.44155 6.58739C10.4136 4.5253 12.1536 2.93207 14.2843 2.15308C16.415 1.37408 18.7648 1.47209 20.8242 2.42586C22.8836 3.37963 24.4868 5.1123 25.2861 7.24827C25.3237 7.35021 25.3818 7.44322 25.4568 7.52148C25.5318 7.59974 25.622 7.66156 25.7218 7.70307C25.8216 7.74458 25.9289 7.76487 26.0368 7.76269C26.1448 7.7605 26.2511 7.73588 26.3492 7.69036C27.1697 7.30614 28.0636 7.10678 28.9685 7.10617C30.4155 7.10863 31.8173 7.61383 32.9373 8.53649C34.0572 9.45914 34.8267 10.7427 35.1157 12.1704C35.136 12.2721 35.176 12.3687 35.2334 12.4548C35.2908 12.5409 35.3645 12.6148 35.4503 12.6722C35.536 12.7296 35.6322 12.7694 35.7332 12.7894C35.8343 12.8093 35.9382 12.8091 36.0392 12.7886C36.5505 12.6852 37.0707 12.6328 37.5923 12.6323C39.6715 12.6323 41.6656 13.464 43.1358 14.9445C44.6061 16.425 45.432 18.433 45.432 20.5267C45.432 22.6204 44.6061 24.6284 43.1358 26.1089C41.6656 27.5894 39.6715 28.4211 37.5923 28.4211Z" fill="#fff"/></svg>