<svg width="51" height="53" viewBox="0 0 51 53" fill="none" xmlns="http://www.w3.org/2000/svg"><path d="M42.9864 46.3601C41.4785 46.3601 39.9705 46.1281 38.5785 45.5481L38.8105 44.9681L38.5785 45.5481C37.7665 45.2001 37.0706 44.8521 36.3746 44.3881C36.2586 44.2721 36.1426 44.1562 36.1426 43.9242V41.7202C36.1426 41.6042 36.1426 41.4882 36.1426 41.2562C36.1426 40.9082 36.1426 40.6762 36.2586 40.3282C36.7226 37.5443 39.0425 35.3404 41.7104 35.3404C42.0584 35.3404 42.2904 35.5724 42.2904 35.9203C42.2904 36.2683 42.0584 36.5003 41.7104 36.5003C39.6225 36.5003 37.7665 38.2403 37.4185 40.4442C37.4185 40.6762 37.4185 40.9082 37.4185 41.1402C37.4185 41.2562 37.4185 41.3722 37.4185 41.4882V43.4602C37.9985 43.8082 38.5785 44.0402 39.1585 44.3881C41.7104 45.4321 44.6104 45.4321 47.1623 44.3881L47.3943 44.9681L47.1623 44.3881C47.8583 44.1561 48.4383 43.8082 49.0183 43.4602V42.0682C49.0183 41.9522 49.0183 41.7202 49.0183 41.6042C49.0183 39.2843 47.7423 37.3123 45.8863 36.7323C45.5384 36.6163 45.0744 36.5003 44.7264 36.5003C44.3784 36.5003 44.1464 36.2683 44.1464 35.9203C44.1464 35.5724 44.3784 35.3404 44.7264 35.3404C45.1904 35.3404 45.7703 35.4564 46.2343 35.5724C48.6703 36.3843 50.1782 38.8203 50.1782 41.4882C50.1782 41.7202 50.1782 41.8362 50.1782 42.0682V43.6922C50.1782 43.9242 50.0622 44.0402 49.9462 44.1561C49.2503 44.6201 48.4383 45.0841 47.6263 45.4321C46.1183 46.1281 44.6104 46.3601 42.9864 46.3601Z" fill="#0341F4" stroke="#0341F4" stroke-width=".6"/><path d="M43.1023 36.5003C41.0143 36.5003 39.3904 34.7604 39.3904 32.7884V31.5124C39.3904 29.4245 41.1303 27.8005 43.1023 27.8005C45.1902 27.8005 46.8142 29.5405 46.8142 31.5124V32.7884C46.8142 34.7604 45.1902 36.5003 43.1023 36.5003ZM43.1023 28.8445C41.7103 28.8445 40.5504 30.0045 40.5504 31.3965V32.6724C40.5504 34.0644 41.7103 35.2244 43.1023 35.2244C44.4943 35.2244 45.6542 34.0644 45.6542 32.6724V31.3965C45.6542 30.0045 44.4943 28.8445 43.1023 28.8445Z" fill="#0341F4" stroke="#0341F4" stroke-width=".6"/><path d="M7.75692 46.3601C6.24896 46.3601 4.741 46.1281 3.34903 45.5481L3.58102 44.9681L3.34903 45.5481C2.53705 45.2001 1.84106 44.8521 1.14508 44.3881C1.02908 44.2721 0.913086 44.1562 0.913086 43.9242V41.7202C0.913086 41.6042 0.913086 41.4882 0.913086 41.2562C0.913086 40.9082 0.913086 40.6762 1.02908 40.3282C1.49307 37.5443 3.81302 35.3404 6.48095 35.3404C6.82895 35.3404 7.06094 35.5724 7.06094 35.9203C7.06094 36.2683 6.82895 36.5003 6.48095 36.5003C4.393 36.5003 2.53705 38.2403 2.18906 40.4442C2.18906 40.6762 2.18906 40.9082 2.18906 41.1402C2.18906 41.2562 2.18906 41.3722 2.18906 41.4882V43.4602C2.76904 43.8082 3.34903 44.0402 3.92901 44.3881C6.48095 45.4321 9.38088 45.4321 11.9328 44.3881L12.1648 44.9681L11.9328 44.3881C12.6288 44.1561 13.2088 43.8082 13.7888 43.4602V42.0682C13.7888 41.9522 13.7888 41.7202 13.7888 41.6042C13.7888 39.2843 12.5128 37.3123 10.6569 36.7323C10.3089 36.6163 9.84487 36.5003 9.49688 36.5003C9.14889 36.5003 8.91689 36.2683 8.91689 35.9203C8.91689 35.5724 9.14889 35.3404 9.49688 35.3404C9.96087 35.3404 10.5409 35.4564 11.0048 35.5724C13.4408 36.3843 14.9488 38.8203 14.9488 41.4882C14.9488 41.7202 14.9488 41.8362 14.9488 42.0682V43.6922C14.9488 43.9242 14.8328 44.0402 14.7168 44.1561C14.0208 44.6201 13.2088 45.0841 12.3968 45.4321C10.8888 46.1281 9.38088 46.3601 7.75692 46.3601Z" fill="#0341F4" stroke="#0341F4" stroke-width=".6"/><path d="M7.8728 36.5003C5.78485 36.5003 4.16089 34.7604 4.16089 32.7884V31.5124C4.16089 29.4245 5.90085 27.8005 7.8728 27.8005C9.96075 27.8005 11.5847 29.5405 11.5847 31.5124V32.7884C11.5847 34.7604 9.96075 36.5003 7.8728 36.5003ZM7.8728 28.8445C6.48083 28.8445 5.32086 30.0045 5.32086 31.3965V32.6724C5.32086 34.0644 6.48083 35.2244 7.8728 35.2244C9.26477 35.2244 10.4247 34.0644 10.4247 32.6724V31.3965C10.4247 30.0045 9.26477 28.8445 7.8728 28.8445Z" fill="#0341F4" stroke="#0341F4" stroke-width=".6"/><path d="M25.3717 19.4488C23.8637 19.4488 22.3557 19.2168 20.9638 18.6368L21.1958 18.0568L20.9638 18.6368C20.1518 18.2888 19.4558 17.9408 18.7598 17.4768C18.6438 17.3608 18.5278 17.2448 18.5278 17.0128V14.8089C18.5278 14.6929 18.5278 14.5769 18.5278 14.3449C18.5278 13.9969 18.5278 13.7649 18.6438 13.4169C19.1078 10.633 21.4278 8.42902 24.0957 8.42902C24.4437 8.42902 24.6757 8.66101 24.6757 9.009C24.6757 9.35699 24.4437 9.58899 24.0957 9.58899C22.0078 9.58899 20.1518 11.3289 19.8038 13.5329C19.8038 13.7649 19.8038 13.9969 19.8038 14.2289C19.8038 14.3449 19.8038 14.4609 19.8038 14.5769V16.5488C20.3838 16.8968 20.9638 17.1288 21.5438 17.4768C24.0957 18.5208 26.9956 18.5208 29.5476 17.4768L29.7796 18.0568L29.5476 17.4768C30.2436 17.2448 30.8235 16.8968 31.4035 16.5488V15.1569C31.4035 15.0409 31.4035 14.8089 31.4035 14.6929C31.4035 12.3729 30.1276 10.401 28.2716 9.82098C27.9236 9.70499 27.4596 9.58899 27.1116 9.58899C26.7636 9.58899 26.5316 9.35699 26.5316 9.009C26.5316 8.66101 26.7636 8.42902 27.1116 8.42902C27.5756 8.42902 28.1556 8.54501 28.6196 8.66101C31.0555 9.47299 32.5635 11.9089 32.5635 14.5769C32.5635 14.8089 32.5635 14.9249 32.5635 15.1569V16.7808C32.5635 17.0128 32.4475 17.1288 32.3315 17.2448C31.6355 17.7088 30.8235 18.1728 30.0116 18.5208C28.5036 19.2168 26.9956 19.4488 25.3717 19.4488Z" fill="#0341F4" stroke="#0341F4" stroke-width=".6"/><path d="M25.4875 9.58898C23.3996 9.58898 21.7756 7.84902 21.7756 5.87707V4.6011C21.7756 2.51315 23.5156 0.889191 25.4875 0.889191C27.5755 0.889191 29.1995 2.62915 29.1995 4.6011V5.87707C29.1995 7.84902 27.5755 9.58898 25.4875 9.58898ZM25.4875 1.93317C24.0956 1.93317 22.9356 3.09314 22.9356 4.4851V5.76107C22.9356 7.15304 24.0956 8.31301 25.4875 8.31301C26.8795 8.31301 28.0395 7.15304 28.0395 5.76107V4.4851C28.0395 3.09314 26.8795 1.93317 25.4875 1.93317Z" fill="#0341F4" stroke="#0341F4" stroke-width=".6"/><path d="M14.3635 47.3331C17.5774 49.721 21.4889 51.0081 25.5069 51C29.5248 50.9918 33.4309 49.6889 36.635 47.2881" stroke="#0341F4" stroke-width="2.2"/><path d="M44.042 26.8726C43.8202 24.0363 42.8349 21.3192 41.1962 19.025C39.5574 16.7307 37.3298 14.9497 34.7622 13.8809" stroke="#0341F4" stroke-width="2.2"/><path d="M6.95655 26.8726C7.1783 24.0363 8.16359 21.3192 9.80234 19.025C11.4411 16.7307 13.6687 14.9497 16.2363 13.8809" stroke="#0341F4" stroke-width="2.2"/></svg>