<svg xmlns="http://www.w3.org/2000/svg" viewBox="0 0 32.69 35.16"><path d="M20.09,20.17a10.5,10.5,0,0,0,5.44-4.63A10.35,10.35,0,0,0,23.09,2.42a10.62,10.62,0,0,0-13.49,0A10.35,10.35,0,0,0,7.17,15.54a10.5,10.5,0,0,0,5.44,4.63,14.56,14.56,0,0,0-9,4.76A14.27,14.27,0,0,0,0,34.38a.78.78,0,0,0,.23.55.8.8,0,0,0,.56.23H31.9a.8.8,0,0,0,.56-.23.78.78,0,0,0,.23-.55,14.27,14.27,0,0,0-3.6-9.45,14.56,14.56,0,0,0-9-4.76ZM7.39,10.44A8.79,8.79,0,0,1,8.9,5.52a8.93,8.93,0,0,1,4-3.26,9,9,0,0,1,9.76,1.92A8.81,8.81,0,0,1,21.32,17.8,9,9,0,0,1,10,16.7a8.82,8.82,0,0,1-2.63-6.26ZM1.61,33.6a12.74,12.74,0,0,1,4-8.52A13,13,0,0,1,14.5,21.6h3.7A13,13,0,0,1,27,25.07a12.74,12.74,0,0,1,4,8.52Z" fill="#fff"/></svg>