<svg xmlns="http://www.w3.org/2000/svg" viewBox="0 0 39.53 35.02"><path d="M3.46,12.34A2.94,2.94,0,0,0,5.84,10h4.83a2,2,0,0,1,2,2,3,3,0,0,0,3,3h8.3a3,3,0,0,0,3-3,2,2,0,0,1,2-2h4.81a2.94,2.94,0,1,0,2.38-3.41,2.94,2.94,0,0,0-2.38,2.38H28.85a3,3,0,0,0-3,3,2,2,0,0,1-2,2H15.6a2,2,0,0,1-2-2,3,3,0,0,0-3-3H5.84a2.94,2.94,0,1,0-2.38,3.41ZM34.67,9.41a1.9,1.9,0,1,1,.55,1.39,1.87,1.87,0,0,1-.56-1.31v0S34.68,9.41,34.67,9.41ZM1.58,8.09a1.91,1.91,0,0,1,2.71,0A1.94,1.94,0,0,1,4.85,9.4v.09a1.87,1.87,0,0,1-.56,1.31,1.91,1.91,0,0,1-2.72-2.7Z" fill="#fff"/><path d="M39.48,25.06a2.94,2.94,0,0,0-3.41-2.38,2.94,2.94,0,0,0-2.38,2.38H28.86a2,2,0,0,1-2-2,3,3,0,0,0-3-3h-8.3a3,3,0,0,0-3,3,2,2,0,0,1-2,2H5.84a2.94,2.94,0,1,0,0,1h4.83a3,3,0,0,0,3-3,2,2,0,0,1,2-2h8.3a2,2,0,0,1,2,2,3,3,0,0,0,3,3h4.81a2.95,2.95,0,0,0,5.8-1Zm-34.63.56a1.92,1.92,0,0,1-2,1.87,2,2,0,0,1-1.31-.56,1.91,1.91,0,1,1,2.71-2.71,1.87,1.87,0,0,1,.56,1.31v.09Zm33.09,1.31a1.91,1.91,0,0,1-3.26-1.31v-.09a1.87,1.87,0,0,1,.56-1.31,1.91,1.91,0,0,1,2.7,2.71Z" fill="#fff"/><path d="M29.32,30a2.89,2.89,0,0,0-.85,1.85h-.7a2.6,2.6,0,0,1-2.43-1.69L23.73,25.8a3.65,3.65,0,0,0-3.4-2.37H19.21a3.63,3.63,0,0,0-3.4,2.37l-1.62,4.34a2.6,2.6,0,0,1-2.43,1.69h-.7a3,3,0,1,0-.1,1h.79a3.63,3.63,0,0,0,3.4-2.37l1.61-4.34a2.6,2.6,0,0,1,2.43-1.69h1.12a2.6,2.6,0,0,1,2.43,1.69l1.61,4.34a3.65,3.65,0,0,0,3.4,2.37h.79a3,3,0,0,0,.75,1.29,2.94,2.94,0,1,0,0-4.17ZM10,32.23s0,.07,0,.11a1.92,1.92,0,1,1-.55-1.62A1.89,1.89,0,0,1,10,32.23Zm22.71,1.19a1.91,1.91,0,0,1-3.25-1.08.59.59,0,0,0,0-.11,1.91,1.91,0,0,1,3.81-.32A1.88,1.88,0,0,1,32.74,33.43Z" fill="#fff"/><path d="M30.13,18a3,3,0,1,0,0-1H9.39a2.94,2.94,0,1,0-.82,2.6A2.88,2.88,0,0,0,9.39,18H30.13Zm1-.55a1.91,1.91,0,1,1,0,.06v-.06ZM8.4,17.54a2.77,2.77,0,1,1,0-.07v.07Z" fill="#fff"/><path d="M10.2,5a2.91,2.91,0,0,0,.85-1.85h.7a2.6,2.6,0,0,1,2.43,1.69l1.61,4.34a3.65,3.65,0,0,0,3.4,2.37h1.12a3.63,3.63,0,0,0,3.4-2.37l1.61-4.34a2.6,2.6,0,0,1,2.43-1.69h.7a3,3,0,1,0,.1-1h-.79a3.63,3.63,0,0,0-3.4,2.37L22.75,8.86a2.6,2.6,0,0,1-2.43,1.69H19.2a2.6,2.6,0,0,1-2.43-1.69L15.16,4.52a3.66,3.66,0,0,0-3.4-2.37H11A3,3,0,0,0,10.22.86,3,3,0,1,0,10.2,5ZM29.49,2.79s0-.07,0-.11a1.75,1.75,0,1,1,0,.11ZM8,1a1.94,1.94,0,0,1,1.51.55A1.92,1.92,0,0,1,10,2.68a.59.59,0,0,0,0,.11A1.91,1.91,0,1,1,8,1Z" fill="#fff"/></svg>