<svg width="38" height="38" viewBox="0 0 38 38" fill="none" xmlns="http://www.w3.org/2000/svg"><path d="M6.05993 14.2198C4.04979 11.6141 4.79428 9.52947 5.98547 8.18938C7.40001 6.62595 9.63351 6.32815 11.3458 7.29599C13.356 8.48718 14.026 10.4973 13.1326 12.8797C13.356 12.9541 13.5049 12.7308 13.6538 12.6564C15.4405 11.3907 17.3018 10.1995 19.0886 8.93388C19.8331 8.41273 19.982 8.48718 20.5031 9.15723C20.9498 9.82727 21.471 10.4229 21.9176 11.0929C22.3643 11.6885 22.3644 11.9119 21.6943 12.3586C19.163 14.1453 16.6317 16.0066 14.1005 17.7934C13.7282 18.0912 13.5049 18.3145 13.5793 18.8357C13.6538 19.5801 13.5793 20.3246 13.5793 21.0691C13.5793 21.4414 13.7282 21.5903 14.1005 21.5903C15.0683 21.5903 16.0361 21.5903 17.004 21.5903C19.0886 21.5903 20.3542 22.8559 20.4287 25.015C20.4287 26.355 20.4287 27.6951 20.4287 29.0352C20.4287 29.4819 20.5031 29.7053 21.0243 29.7053C22.5877 29.7053 24.1511 29.7053 25.6401 29.7053C26.3846 29.7053 26.608 29.8542 26.608 30.6731C26.608 32.5343 26.608 34.3956 26.608 36.2568C26.608 37.0013 26.3846 37.1502 25.6401 37.1502C21.6943 37.1502 17.8229 37.1502 13.8771 37.1502C13.1326 37.1502 12.9837 37.0013 12.9837 36.2568C12.9837 34.3211 12.9837 32.4599 12.9837 30.5242C12.9837 29.9286 13.2815 29.6308 13.8771 29.6308C15.4406 29.6308 15.4406 29.6308 15.4406 27.9929C15.4406 26.5784 15.4406 26.5784 13.9516 26.5784C13.2071 26.5784 12.4626 26.5784 11.7181 26.5784C11.1969 26.5784 11.1225 26.7273 11.1225 27.2484C11.1225 30.152 11.1225 33.1299 11.1225 36.0335C11.1225 37.0758 11.048 37.1502 10.0057 37.1502C9.0379 37.1502 8.07006 37.1502 7.17667 37.1502C6.35773 37.1502 6.20881 37.0013 6.20881 36.1824C6.20881 32.9066 6.20881 29.5564 6.20881 26.2806C6.20881 26.0572 6.28328 25.8339 6.13438 25.5361C6.05993 25.6105 5.98547 25.6105 5.98547 25.685C5.01763 26.8762 5.01764 26.8762 3.9009 25.7594C3.08196 24.9405 2.263 24.1216 1.44405 23.3026C0.0295159 21.8881 0.0295295 20.2502 1.29517 18.7612C2.48636 17.4211 3.67754 16.081 4.86873 14.7409C5.01763 14.3687 5.46433 14.1453 6.05993 14.2198ZM4.71983 25.0894C5.01762 24.6427 5.24098 24.2705 5.53877 23.9727C5.76212 23.6749 5.76212 23.4515 5.46432 23.2282C4.94317 22.707 4.42205 22.1859 3.9009 21.5903C3.6031 21.2925 3.4542 20.9202 3.82645 20.548C4.64539 19.729 5.38987 18.9101 6.20881 18.1656C6.65551 17.7189 7.17667 17.9423 7.25112 18.5379C7.25112 18.7612 7.25112 18.9101 7.25112 19.1335C7.25112 24.4194 7.25112 29.7053 7.25112 34.9912C7.25112 35.1401 7.25112 35.3634 7.25112 35.5123C7.25112 35.8101 7.32557 35.8846 7.62337 35.8846C8.14452 35.8846 8.7401 35.8846 9.26124 35.8846C9.55904 35.8846 9.70795 35.7357 9.70795 35.4379C9.70795 34.8423 9.70795 34.3211 9.70795 33.7255C9.70795 31.2687 9.70795 28.7374 9.70795 26.2806C9.70795 25.7594 9.7824 25.3128 10.4524 25.3128C12.2392 25.3128 14.026 25.3128 15.8128 25.3128C16.334 25.3128 16.5573 25.6105 16.5573 26.1317C16.5573 26.6528 16.5573 27.2484 16.5573 27.7696C16.5573 28.3652 16.2595 29.2586 16.7062 29.5564C17.1529 29.8542 17.9718 29.6308 18.5674 29.6308C18.9397 29.6308 19.0141 29.5564 19.0141 29.1841C19.0141 27.6951 19.0141 26.2061 19.0141 24.6427C19.0141 23.526 18.1952 22.8559 17.0784 22.7815C15.7383 22.7815 14.4727 22.7815 13.1326 22.7815C12.3881 22.7815 12.1648 22.5581 12.1648 21.8136C12.1648 20.6224 12.1648 19.4312 12.1648 18.3145C12.1648 17.7189 12.3881 17.3467 12.8348 16.9744C15.0683 15.411 17.3018 13.7731 19.5353 12.2097C20.5776 11.4652 20.5776 11.4652 19.8331 10.4229C19.5353 10.0506 19.3864 10.0506 19.0141 10.3484C17.4507 11.4652 15.8872 12.6564 14.1749 13.6986C12.6115 14.6665 11.4947 15.8577 10.8247 17.57C10.6758 17.9423 10.4524 18.2401 10.3035 18.6123C10.1546 18.9101 10.0057 19.1335 9.70795 19.1335C9.3357 19.1335 9.1868 18.9101 9.03791 18.6123C8.59121 17.7934 8.21895 16.9 7.77226 16.081C7.40001 15.411 5.91103 15.1876 5.38989 15.7088C4.1987 17.0489 2.93304 18.389 1.74185 19.8035C1.0718 20.548 1.14626 21.5158 1.8163 22.2603C2.78414 23.2282 3.75198 24.1216 4.71983 25.0894ZM19.6842 35.959C21.3965 35.959 23.0344 35.959 24.7467 35.959C25.1934 35.959 25.3423 35.8101 25.2679 35.3634C25.2679 34.0233 25.2679 32.7577 25.2679 31.4176C25.2679 30.9709 25.119 30.8965 24.6723 30.8965C21.3221 30.8965 17.9718 30.8965 14.5472 30.8965C14.1749 30.8965 14.026 31.0454 14.026 31.4176C14.026 32.7577 14.026 34.0978 14.026 35.3634C14.026 35.8101 14.1749 35.8846 14.5472 35.8846C16.3339 35.959 18.0463 35.959 19.6842 35.959ZM12.2392 11.1674C12.2392 9.45503 10.8991 8.04049 9.18679 8.04049C7.47445 8.04049 6.05993 9.30613 6.05993 11.0929C6.05993 12.8052 7.40002 14.2198 9.11236 14.2198C10.8247 14.2198 12.2392 12.8797 12.2392 11.1674ZM9.03791 15.5599C9.26125 16.1555 9.55906 16.6766 9.85685 17.1978C10.0802 16.7511 10.3035 16.3788 10.5269 15.9321C10.6758 15.7088 10.6758 15.4854 10.3035 15.5599C9.85684 15.5599 9.4846 15.5599 9.03791 15.5599ZM5.98547 20.2502C4.94318 21.1436 4.94318 21.2925 5.98547 21.9625C6.05992 21.3669 6.13437 20.8458 5.98547 20.2502Z" fill="#EB00FF"/><path d="M37.1057 5.58371C37.0312 6.10485 36.659 6.1793 36.2123 6.25375C34.1277 6.3282 32.6387 7.96609 32.2664 9.45508C32.192 9.75287 32.192 10.0507 32.1176 10.274C32.0431 10.7207 31.9687 11.1674 31.4475 11.1674C30.9264 11.1674 30.8519 10.7207 30.8519 10.274C30.703 8.33834 29.4374 6.84935 27.5761 6.3282C27.2783 6.25375 26.9805 6.25375 26.7572 6.25375C26.3105 6.1793 26.0127 6.0304 26.0127 5.58371C26.0127 5.13701 26.3105 4.98811 26.7572 4.98811C29.0651 4.98811 30.9264 2.90353 30.9264 0.744494C30.9264 0.372247 31.0753 0.0744494 31.5219 0C32.0431 0 32.192 0.372247 32.192 0.744494C32.2665 1.93569 32.7131 2.90353 33.5321 3.72247C34.2766 4.46697 35.17 4.83921 36.2867 4.91366C36.659 4.91366 37.0312 5.06256 37.1057 5.58371ZM31.5219 7.96609C32.1175 6.99825 32.7876 6.25375 33.681 5.73261C33.8299 5.65816 33.9043 5.50926 33.681 5.43481C32.7876 4.91366 32.1175 4.16917 31.5219 3.20133C30.9264 4.09472 30.3308 4.83921 29.5118 5.36036C29.214 5.58371 29.2885 5.65816 29.5118 5.80706C30.3308 6.3282 30.9264 7.0727 31.5219 7.96609Z" fill="#EB00FF"/><path d="M23.2577 15.5599C22.9599 15.3365 22.811 15.0388 22.5877 14.741C22.4388 14.5176 22.6621 14.4432 22.811 14.3687C24.6723 13.0286 26.5335 11.6885 28.3203 10.274C28.6925 9.97619 28.8414 10.1995 28.9903 10.4973C29.1392 10.7207 29.5859 10.944 29.1392 11.3163C27.278 12.7308 25.3423 14.0709 23.4811 15.4854C23.4066 15.4854 23.3322 15.4854 23.2577 15.5599Z" fill="#EB00FF"/><path d="M26.8313 7.81717C26.7569 8.04051 26.608 8.11496 26.5335 8.18941C25.5657 8.85946 24.5234 9.45505 23.5556 10.1995C23.1089 10.5718 23.0344 10.1251 22.8111 9.90175C22.5877 9.60395 22.3644 9.3806 22.8855 9.15726C23.8534 8.56166 24.8212 7.89162 25.789 7.29602C25.9379 7.22157 26.0868 6.92377 26.3102 7.07267C26.4591 7.29602 26.6824 7.59382 26.8313 7.81717Z" fill="#EB00FF"/><path d="M21.769 16.6022C21.6201 16.7511 21.5456 16.8255 21.4712 16.9C21.1734 17.1233 20.8756 17.3467 20.5778 17.57C20.2055 17.9423 20.0566 17.7934 19.7588 17.4211C19.3866 16.9744 19.4611 16.7511 19.9078 16.4533C20.1311 16.3044 20.3544 16.081 20.5778 15.9321C20.7267 15.8577 20.8756 15.4854 21.0989 15.7832C21.3967 16.0066 21.5456 16.3044 21.769 16.6022Z" fill="#EB00FF"/></svg>