<svg width="28" height="39" viewBox="0 0 28 39" fill="none" xmlns="http://www.w3.org/2000/svg"><path d="M16.9372 0H10.461C10.2893 0 10.1245 0.0682311 10.0031 0.189683C9.88164 0.311135 9.81341 0.47586 9.81341 0.647619V2.59048H7.22293C7.05117 2.59048 6.88645 2.65871 6.76499 2.78016C6.64354 2.90161 6.57531 3.06634 6.57531 3.2381V5.18095H0.74674C0.574981 5.18095 0.410257 5.24918 0.288804 5.37064C0.167352 5.49209 0.0991211 5.65681 0.0991211 5.82857V38.2095C0.0991211 38.3813 0.167352 38.546 0.288804 38.6675C0.410257 38.7889 0.574981 38.8571 0.74674 38.8571H26.6515C26.8233 38.8571 26.988 38.7889 27.1094 38.6675C27.2309 38.546 27.2991 38.3813 27.2991 38.2095V5.82857C27.2991 5.65681 27.2309 5.49209 27.1094 5.37064C26.988 5.24918 26.8233 5.18095 26.6515 5.18095H20.8229V3.2381C20.8229 3.06634 20.7547 2.90161 20.6332 2.78016C20.5118 2.65871 20.3471 2.59048 20.1753 2.59048H17.5848V0.647619C17.5848 0.47586 17.5166 0.311135 17.3952 0.189683C17.2737 0.0682311 17.109 0 16.9372 0ZM20.8229 8.41905V6.47619H26.0039V37.5619H1.39436V6.47619H6.57531V8.41905C6.57531 8.59081 6.64354 8.75553 6.76499 8.87698C6.88645 8.99844 7.05117 9.06667 7.22293 9.06667H20.1753C20.3471 9.06667 20.5118 8.99844 20.6332 8.87698C20.7547 8.75553 20.8229 8.59081 20.8229 8.41905ZM19.5277 3.88571V7.77143H7.87055V3.88571H10.461C10.6328 3.88571 10.7975 3.81748 10.919 3.69603C11.0404 3.57458 11.1086 3.40985 11.1086 3.2381V1.29524H16.2896V3.2381C16.2896 3.40985 16.3578 3.57458 16.4793 3.69603C16.6007 3.81748 16.7655 3.88571 16.9372 3.88571H19.5277Z" fill="#fff"/><path d="M11.8288 26.9041C11.9815 27.0568 12.1885 27.1426 12.4045 27.1426C12.6204 27.1426 12.8274 27.0568 12.9801 26.9041L21.3597 18.5246L20.2083 17.3733L12.4045 25.1771L8.37482 21.1475L7.2235 22.2988L11.8288 26.9041Z" fill="#fff"/></svg>