<svg width="36" height="36" viewBox="0 0 36 36" fill="none" xmlns="http://www.w3.org/2000/svg"><path d="M28.2504 10.2916C29.2814 12.8503 29.5506 15.6857 28.9706 18.3885C28.3755 21.1671 26.9236 23.7031 24.8388 25.6325C22.9169 27.4104 20.5022 28.6006 17.9283 29.0631C15.4037 29.518 12.7654 29.2337 10.3811 28.286C7.92848 27.308 5.764 25.5794 4.25151 23.4188C2.76556 21.2998 1.89749 18.7752 1.7724 16.1899C1.65109 13.6198 2.24623 11.0384 3.50474 8.79426C4.81253 6.46299 6.79885 4.53732 9.16804 3.30155C11.45 2.11127 14.0467 1.59953 16.6092 1.79665C19.1982 1.99755 21.7001 2.95281 23.7774 4.5032C24.2967 4.89364 24.7857 5.32578 25.2482 5.78445C25.5931 6.12941 26.1314 5.59492 25.7826 5.24997C23.8191 3.29397 21.3096 1.91037 18.5955 1.3266C15.961 0.761788 13.1824 0.928578 10.6502 1.83455C7.99292 2.78223 5.66544 4.49941 3.95204 6.73971C2.28793 8.91936 1.28719 11.5615 1.05217 14.2908C0.820933 16.9784 1.363 19.719 2.5874 22.1223C3.86107 24.6204 5.8853 26.7356 8.31892 28.123C10.6729 29.4687 13.406 30.1321 16.1126 30.0146C18.8267 29.9008 21.4992 29.0214 23.7357 27.4748C26.1731 25.7879 28.0571 23.3846 29.1071 20.6136C30.1306 17.9033 30.3011 14.8897 29.6226 12.077C29.4596 11.3985 29.2435 10.7351 28.982 10.0869C28.9062 9.89736 28.728 9.76468 28.5157 9.82154C28.3338 9.87461 28.1746 10.0983 28.2504 10.2916Z" fill="#fff" stroke="#fff"/><path d="M34.6876 34.1464C33.683 33.1419 32.6747 32.1336 31.6702 31.129C30.0705 29.5294 28.4708 27.9297 26.8712 26.33C26.5073 25.9661 26.1434 25.6022 25.7832 25.2421C25.4383 24.8971 24.9 25.4316 25.2488 25.7766C26.2533 26.7811 27.2616 27.7894 28.2661 28.794C29.8658 30.3936 31.4655 31.9933 33.0652 33.593C33.4291 33.9569 33.793 34.3208 34.1531 34.6809C34.4943 35.0296 35.0325 34.4952 34.6876 34.1464Z" fill="#fff" stroke="#fff"/><path d="M9.65035 18.9469C10.507 18.0902 11.3637 17.2336 12.2204 16.3769C13.5851 15.0122 14.9497 13.6476 16.3106 12.2867C16.6214 11.9759 16.9323 11.665 17.2431 11.3542C17.0649 11.3542 16.8868 11.3542 16.7086 11.3542C17.3 11.9455 17.8913 12.5369 18.4827 13.1282C19.4265 14.0721 20.3704 15.016 21.3143 15.9599C21.5304 16.1759 21.7502 16.3958 21.9663 16.6119C22.1104 16.7559 22.3567 16.7559 22.5008 16.6119C22.9026 16.2101 23.3082 15.8045 23.71 15.4026C24.6804 14.4322 25.6471 13.4656 26.6175 12.4952C27.7888 11.3239 28.9601 10.1525 30.1352 8.97743C31.1474 7.96531 32.1595 6.9532 33.1716 5.94108C33.6606 5.45208 34.1723 4.97825 34.6424 4.47029C34.65 4.46271 34.6575 4.45513 34.6651 4.44755C35.0101 4.1026 34.4756 3.56432 34.1306 3.91306C33.7288 4.31487 33.3232 4.72048 32.9214 5.12229C31.951 6.09271 30.9844 7.05934 30.0139 8.02975C28.8426 9.20108 27.6713 10.3724 26.4962 11.5475C25.4841 12.5596 24.472 13.5717 23.4598 14.5839C23.13 14.9136 22.7965 15.2472 22.4667 15.577C22.3113 15.7324 22.1331 15.8841 21.9891 16.0546C21.9815 16.0622 21.9739 16.0698 21.9663 16.0774C22.1445 16.0774 22.3226 16.0774 22.5008 16.0774C21.9094 15.486 21.3181 14.8947 20.7267 14.3033C19.7829 13.3595 18.839 12.4156 17.8951 11.4717C17.679 11.2556 17.4592 11.0358 17.2431 10.8197C17.0991 10.6757 16.8527 10.6757 16.7086 10.8197C15.8519 11.6764 14.9952 12.5331 14.1385 13.3898C12.7739 14.7544 11.4092 16.1191 10.0484 17.4799C9.73754 17.7908 9.4267 18.1016 9.11586 18.4125C8.77091 18.7574 9.3054 19.2919 9.65035 18.9469Z" fill="#fff" stroke="#fff"/><path d="M28.733 4.54085C30.3895 4.54085 32.0498 4.54085 33.7063 4.54085C33.9452 4.54085 34.1802 4.54085 34.419 4.54085C34.2939 4.41576 34.165 4.28688 34.0399 4.16178C34.0399 5.81832 34.0399 7.47864 34.0399 9.13517C34.0399 9.37398 34.0399 9.60901 34.0399 9.84782C34.0399 10.3368 34.7981 10.3368 34.7981 9.84782C34.7981 8.19129 34.7981 6.53097 34.7981 4.87443C34.7981 4.63562 34.7981 4.4006 34.7981 4.16178C34.7981 3.95709 34.6237 3.78271 34.419 3.78271C32.7625 3.78271 31.1021 3.78271 29.4456 3.78271C29.2068 3.78271 28.9718 3.78271 28.733 3.78271C28.244 3.78271 28.244 4.54085 28.733 4.54085Z" fill="#fff" stroke="#fff"/></svg>