<svg width="34" height="34" viewBox="0 0 34 34" fill="none" xmlns="http://www.w3.org/2000/svg"><path d="M22.9599 12.7764C22.9599 6.44821 18.5674 1.68345 12.8348 1.38565C7.25107 1.0134 2.26295 5.10812 1.51846 10.6918C1.14621 13.4465 1.81625 16.0522 3.37969 18.3601C3.52859 18.509 3.60304 18.6579 3.75194 18.8813C3.90084 19.1791 3.82638 19.4769 3.60303 19.7002C3.30523 19.9236 3.00745 19.9236 2.70965 19.7002C2.56075 19.6258 2.4863 19.4024 2.3374 19.328C-2.9485 12.2553 1.22065 1.68346 9.93123 0.194467C16.855 -0.996723 23.1088 3.39579 24.3 10.3196C24.8956 13.8187 24.0022 17.02 21.7687 19.7747C21.4709 20.2214 21.4709 20.4447 21.8431 20.7425C21.992 20.8914 22.1409 21.0403 22.2898 21.1892C22.7365 21.7103 23.1088 22.2315 23.9277 21.5614C24.5233 21.1148 25.2678 21.3381 25.8634 21.9337C28.0225 24.0927 30.2559 26.2518 32.3405 28.4852C33.3828 29.602 33.3084 31.2399 32.2661 32.2822C31.2238 33.3245 29.5859 33.3989 28.4692 32.3566C26.2357 30.1976 24.0766 28.0386 21.9176 25.8795C21.2475 25.2095 21.1731 24.3161 21.7687 23.5716C21.9921 23.2738 21.9921 23.1249 21.7687 22.8271C21.322 22.3804 20.9498 21.7103 20.4286 21.5614C19.9075 21.4125 19.4608 22.157 19.0141 22.4548C14.7705 25.2095 9.26119 25.135 5.16647 22.157C5.01758 22.0081 4.79422 21.9337 4.71977 21.7848C4.49642 21.487 4.49642 21.1892 4.71977 20.8914C4.94312 20.5936 5.24092 20.5192 5.53872 20.7425C5.76207 20.8169 5.91098 20.9658 6.13433 21.1147C9.7079 23.4227 13.4304 23.7949 17.2273 21.8592C20.9498 19.7002 22.811 16.4244 22.9599 12.7764ZM31.596 30.272C31.596 29.6764 31.3727 29.3786 31.0004 29.0064C29.2881 27.294 27.5758 25.5817 25.8634 23.8694C24.5233 22.5293 24.5233 22.5293 23.1832 23.8694C22.7365 24.2416 22.811 24.5394 23.1832 24.9117C24.6722 26.4007 26.1612 27.8896 27.7247 29.3786C28.2458 29.8998 28.8414 30.4954 29.3625 31.0165C29.7348 31.3888 30.2559 31.5377 30.7771 31.2399C31.2982 31.1654 31.5216 30.7187 31.596 30.272Z" fill="#EB00FF"/><path d="M12.2393 21.4126C7.17674 21.487 2.93313 17.3179 2.93313 12.1808C2.85868 7.04384 6.95339 2.80022 12.1649 2.72577C17.3019 2.65132 21.5455 6.8205 21.6199 11.8831C21.5455 17.2434 17.4508 21.4126 12.2393 21.4126ZM20.1309 11.8086C20.1309 7.26719 15.8873 3.61917 11.0481 4.28922C8.14458 4.73591 6.06001 6.3738 4.94327 9.12843C3.82653 11.8831 4.27322 14.4888 5.98556 16.8712C6.20891 17.169 6.3578 17.3179 6.6556 16.9456C7.40009 16.0522 8.2935 15.68 9.41024 15.68C11.2715 15.68 13.1327 15.68 14.9939 15.68C16.1107 15.68 17.0785 16.0522 17.7486 16.9456C18.1208 17.3923 18.2697 17.169 18.4931 16.8712C19.5353 15.4566 20.0565 13.8187 20.1309 11.8086ZM12.2393 17.0945C11.2715 17.0945 10.3781 17.0945 9.41024 17.0945C8.66574 17.0945 8.07015 17.3923 7.62346 17.9879C7.40011 18.2113 7.47454 18.3602 7.69789 18.5835C10.0803 20.4447 14.3983 20.4447 16.7063 18.5835C17.0041 18.3602 17.0041 18.2113 16.7807 17.9879C16.334 17.3923 15.664 17.0945 14.9195 17.0945C14.0261 17.0945 13.1327 17.0945 12.2393 17.0945Z" fill="#EB00FF"/><path d="M15.813 9.94732C15.813 10.5429 15.813 11.1385 15.5897 11.7341C15.0685 13.2976 13.5795 14.3398 11.9416 14.1909C10.3038 14.042 8.88922 12.8509 8.66587 11.1385C8.51697 10.394 8.51697 9.57508 8.66587 8.75614C8.88922 6.8949 10.3782 5.55481 12.2394 5.55481C14.1007 5.55481 15.5152 6.8949 15.813 8.75614C15.813 9.20283 15.813 9.57507 15.813 9.94732ZM14.324 9.94732C14.324 9.64952 14.324 9.42618 14.324 9.12838C14.2496 7.93719 13.3562 7.11824 12.165 7.11824C10.9738 7.11824 10.0804 8.01164 10.006 9.20283C10.006 9.72397 10.006 10.3196 10.006 10.9152C10.0804 12.0319 10.9738 12.9253 12.165 12.9253C13.2817 12.9253 14.2496 12.1064 14.324 10.9152C14.3985 10.5429 14.324 10.2451 14.324 9.94732Z" fill="#EB00FF"/></svg>