<svg xmlns="http://www.w3.org/2000/svg" viewBox="0 0 41.69 43.13"><path d="M20.84,43.13C9.35,43.13,0,33.45,0,21.56S9.35,0,20.84,0,41.69,9.67,41.69,21.56,32.34,43.13,20.84,43.13Zm0-42.19C9.85.94.91,10.19.91,21.56S9.85,42.19,20.84,42.19s19.94-9.25,19.94-20.62S31.84.94,20.84.94Z" fill="#fff"/><path d="M13.83,30.4a1.55,1.55,0,0,1-1.12-.48,1.68,1.68,0,0,1,0-2.32l11-11.35-3,.46h-.07a1.85,1.85,0,0,1-1.81-1.88,1.89,1.89,0,0,1,.53-1.33A1.75,1.75,0,0,1,20.59,13l6.66-.33h0a1.78,1.78,0,0,1,1.47.72,1.88,1.88,0,0,1,.72,1.48l-.34,6.93a1.81,1.81,0,1,1-3.62,0,.57.57,0,0,1,0-.07l.44-3.13L15,29.92A1.55,1.55,0,0,1,13.83,30.4ZM25,15.11a.45.45,0,0,1,.41.26.48.48,0,0,1-.09.54L13.35,28.26a.72.72,0,0,0,0,1,.68.68,0,0,0,1,0L26.25,16.91a.44.44,0,0,1,.52-.09.47.47,0,0,1,.24.49l-.64,4.49a.91.91,0,1,0,1.81,0l.34-6.94a.94.94,0,0,0-.39-.75A.46.46,0,0,1,28,14a.9.9,0,0,0-.75-.41l-6.66.35a.9.9,0,0,0-.66.28,1,1,0,0,0-.27.66.92.92,0,0,0,.88.94l4.34-.66Z" fill="#fff"/></svg>