<svg width="14" height="16" viewBox="0 0 14 16" fill="none" xmlns="http://www.w3.org/2000/svg"><path fill-rule="evenodd" clip-rule="evenodd" d="M13.0755 3.60639V4.15285C12.6796 4.06831 12.3034 3.91799 11.9615 3.71033C12.3001 3.91628 12.6755 4.0679 13.0755 4.15303V6.17394C11.7408 6.17394 10.505 5.74981 9.4959 5.02904V10.2683C9.4959 12.8892 7.37017 15.0138 4.74804 15.0138C3.76971 15.0138 2.86033 14.7182 2.10489 14.2111C2.10457 14.2108 2.10425 14.2105 2.10393 14.2102C0.834988 13.3583 0 11.9107 0 10.2681C0 7.64739 2.12573 5.52277 4.74814 5.52277C4.96604 5.52266 5.18369 5.53741 5.39959 5.56693V6.14869C3.42468 6.18947 1.74622 7.43539 1.07035 9.1804C1.7463 7.43546 3.42474 6.18964 5.39949 6.14887V8.19182C5.19171 8.12591 4.9702 8.09014 4.74039 8.09014C3.54082 8.09014 2.56857 9.06202 2.56857 10.2609C2.56857 11.1085 3.05455 11.8424 3.76325 12.1999C4.1601 12.7205 4.78676 13.0565 5.49214 13.0565C6.6455 13.0565 7.58874 12.1578 7.65976 11.0229C7.58864 12.1577 6.64535 13.0563 5.49214 13.0563C4.78676 13.0563 4.1601 12.7203 3.76326 12.1997C4.05713 12.348 4.3889 12.4313 4.74039 12.4313C5.93747 12.4313 6.90806 11.4634 6.91221 10.2681V0.0136719H9.4959V0.34387C9.505 0.442631 9.51814 0.540979 9.53526 0.638669H7.66405V0.638846H9.53526C9.71455 1.66115 10.3262 2.53458 11.175 3.06398C11.215 3.10764 11.2561 3.1503 11.2981 3.19194C11.2561 3.15029 11.2151 3.10754 11.175 3.06371C11.745 3.41935 12.4037 3.6074 13.0755 3.60639Z" fill="#EB00FF"/></svg>