<svg width="14" height="16" viewBox="0 0 14 16" fill="none" xmlns="http://www.w3.org/2000/svg"><path fill-rule="evenodd" clip-rule="evenodd" d="M13.0755 3.60639V4.15285C12.344 3.99664 11.6796 3.61587 11.175 3.06371C11.745 3.41935 12.4037 3.6074 13.0755 3.60639ZM9.4959 0.34387C9.505 0.442631 9.51814 0.540979 9.53526 0.638669H7.66405V0.638916H9.53507C9.71437 1.66122 10.326 2.53465 11.1748 3.06405C11.6708 3.60535 12.3303 3.99454 13.0753 4.1531V6.17401C11.7406 6.17401 10.5048 5.74988 9.49571 5.02911V10.2684C9.49571 12.8892 7.36998 15.0139 4.74785 15.0139C3.76952 15.0139 2.86014 14.7182 2.1047 14.2112C2.1042 14.2107 2.1037 14.2102 2.10319 14.2097C0.834662 13.3577 0 11.9103 0 10.2681C0 7.64739 2.12573 5.52277 4.74814 5.52277C4.96604 5.52266 5.18369 5.53741 5.39959 5.56693V6.14869C4.08882 6.17576 2.90864 6.7337 2.0655 7.6161C2.90863 6.73384 4.08871 6.176 5.3993 6.14894V8.19189C5.19153 8.12598 4.97001 8.09021 4.7402 8.09021C3.54063 8.09021 2.56838 9.06209 2.56838 10.2609C2.56838 11.1085 3.05437 11.8425 3.76307 12.2C4.15991 12.7205 4.78657 13.0565 5.49195 13.0565C6.24363 13.0565 6.90606 12.6748 7.29596 12.0948C6.90602 12.6747 6.24365 13.0563 5.49214 13.0563C4.78676 13.0563 4.1601 12.7203 3.76326 12.1997C4.05713 12.348 4.3889 12.4313 4.74039 12.4313C5.93747 12.4313 6.90806 11.4634 6.91221 10.2681V0.0136719H9.4959V0.34387Z" fill="#EB00FF"/></svg>