<svg width="200" height="64" fill="none" xmlns="http://www.w3.org/2000/svg"><g clip-path="url(#a)" fill="#fff"><path fill-rule="evenodd" clip-rule="evenodd" d="M44.155 54.895a19.499 19.499 0 0 1-.871-1.805c-.603-1.31 0-1.056-.398-1.806-.397-.763-.653 0-1.743-1.679-.218-.33-.653-.19-.705.598-.05.788 1.282 1.539 1.897 3.471.615 1.933 1.128 2.15.603 3.332-.513 1.183-2.935 1.106-2.935 1.106 1.922 1.997 5.806-.674 4.152-3.217ZM23.878 52.62c-2.627-2.607-1.679-2.34 0-4.667 1.218-1.716 7.306-3.242 10.318-3.904l-.064-.28c-1.538.064-3.858.153-6.178.14-3.973 0-5.575-1.5-6.613-1.31-3.948.738-1.141 5.227-5.78 4.591-4.64-.636-4.487 4.133-4.487 4.133 1.32-2.645 2.679-2.276 3.73-2.327 1.217-.05 2.397.84 4.101-.598.372-.305 2.064-3.013 1.82-1.665a5.68 5.68 0 0 1-1.384 2.327c-.397.445-.602.788.18 1.208l1.166.699c1.871 1.068 1.564 2.289.346 2.225-.897-.05-1.923-.47-2.781-.56-.36-.037-.744.115-.192.37.333.152.64.356.91.597 1.37 1.36-.27.827 3.652.598a12.985 12.985 0 0 0 1.859-.216c1.59-.293-.256-1.005-.603-1.36Zm2.654-32.846c-1.141.725-3.038.37-3.038.37.244.355 1.615.762 2.307.75a2.153 2.153 0 0 0 1.602-.75 3.013 3.013 0 0 0 .36-3.18s-.13 2.098-1.231 2.81Zm-1.73-5.95.486-.204a8.312 8.312 0 0 1-.397-2.022c.051-1.03.18-2.047.372-3.052H24.8s-.205 1.552-.487 2.887c-.282 1.335-.974 1.08-1.333 1.068-.359-.025-3.127-.42-3.127-.42v.407l1.59.23c1.153.24 2.28.61 3.357 1.105Zm-2.936-6.638c.36.101.744.152 1.115.14a1.281 1.281 0 0 0 1.09-.662c-1.795-.178-2.307-.8-2.307-.8s1.704-.09 2.563-.204c.859-.115 2.435-.534 2.435-.534s-.064 1.398-.076 2.2c-.013.8 1.038.597 1.396.52.36-.075.513-1.754.603-3.127.051-1.043-.73-1.056-1.18-.865-1.063.496-2.14.94-3.255 1.322-1.14.23-2.307.267-3.46.115l-.103.432 1.782 1.081-.603.382ZM54.64 40.78a41.492 41.492 0 0 0-3.897-8.583c-1.345-2.01-2.038-.572-2.563-.114-.526.457-2.102 3.077-2.794-.305-.692-3.37-4.217-6.295-4.217-6.295a14.15 14.15 0 0 1 .346 6.04c-.192 1.628.23 2.2.23 3.18 0 .978-2.986 1.64-3.14 2.415-.153.776 4.435 3.879 8.819.75 1.32-.94 2.127 2.709 2.55 3.688.423.98-.423 1.297.577 2.416.987 1.12.23 2.098.23 2.81 0 .713 1.975 2.34 2.334 1.971.602-.597-.808-4.361-1.372-5.645-.577-1.285-1.487-5.468-2.14-6.613-.372-.648-2.295-.19-2.295-.19l-.128-.51s.27-.343.513-.597c1.987-2.047 1.82-1.208 3.896 1.297 2.077 2.505-.435 3.484 1.397 4.781 1.795 1.297 2.256 1.666 1.654-.496ZM26.903 8.94c-.448.114-1.55.292-1.038 2.797.513 2.505 1.872 1.895 2.243 1.577a2.258 2.258 0 0 1-1.935-2.366c-.051-2.174 2.474-1.78 2.474-1.78a2.507 2.507 0 0 0-1.744-.229Zm1.385 6.548c-3.115.178-4.204-.928-6.332-1.945-2.128-1.018-3.973-.267-4.255.203.986.064 2.114.458 4.255 1.78 4.28 2.683 6.332-.038 6.332-.038ZM1.73 38.53a1.515 1.515 0 0 0 1.282-1.463c.192.267.295.598.282.941.564-.725.423-1.983-.948-2.734 0 0 .076 1.654-.987 2.226-1.064.572-1.282.992-1.346 1.59-.026.292.038.584.192.838.141.23.359.395.602.458-.32-.458-.384-1.5.923-1.856Zm27.43-12.59c0-1.004.256-1.5.538-1.512.858-.039 1.05 1.17 1.063 1.5.026.56-.23 1.094-.679 1.424.602.051 1.102-.788 1.18-1.322a2.048 2.048 0 0 0-.308-1.59s1.82 1.73 1.602 3.624c-.218 2.162-2.679 3.306-2.679 3.306.73.255 2.845.051 4.204-1.665.743-.941 1.077-2.378.167-4.642-.82-2.047-2.397-3.789-.757-7.718a5.635 5.635 0 0 1 3.64-3.332 5.653 5.653 0 0 1 4.884.814.915.915 0 0 1 .32.407c.167.458-1.038 1.055-.512 1.322.435.14.846.33 1.243.547.243.216.461.445.64.7a.42.42 0 0 0 .347.152c-1.167-1.36-1.359-2.9-1.551-4.54-.923-.241-2.371-.966-3.807-1.144a9.632 9.632 0 0 0-5.268.826c-2.435 1.209-5.075 3.536-5.075 8.94a8.55 8.55 0 0 0 .807 3.904Zm-14.151 3.612c1.487 1.564 3.102.941 3.82 1.017.717.09 1.538 1.908 1.102 3.675-.436 1.768-.603 1.463-.91 2.569-.372 1.399 1.371 2.416.961 3.688-.115.356-.359.864-.064 1.271.474.598 1.218-.203 2.192-.063a2.777 2.777 0 0 0 1.743-.344c-.116-.546-2.294-.216-2.782-1.093-.217-.382-.781-4.4.475-6.193 1.153-1.64.09-2.162-.718-3.484 1.09-.598 3.653-1.857 3.653-1.857a11.045 11.045 0 0 1 1.935 2.938c.282.56.436 1.182.436 1.805 0 .649-.218 1.285-.602 1.806.525-.076 1.012-1.017 1.166-1.742a4.58 4.58 0 0 0-.167-2.162 10.297 10.297 0 0 0-2.435-3.84 35.88 35.88 0 0 0-4.486 1.946c-.68-1.26-1.358-1.043-2.204-.967a1.563 1.563 0 0 1-1.346-.814c.923.255 1.91.166 2.781-.241 2.692-1.107 1.666-3.345 1.666-3.345a1.825 1.825 0 0 1-1.576 1.857c-1.013.14-3.653-.509-3.653-.509s2.14-.241 2.563-1.462c.603-1.666 2.295-1.017 2.295-1.017a1.773 1.773 0 0 0-2.307-.23c-.846.51-2.256.675-3.987-.203-1.73-.877-2.358.573-2.704.598-.32.076-.59-.483-.41-1.068.18-.598 2.179-1.145 5.165-1.26 1.974-.075 2.935.306 3.371.599 0-.166-.525-.89-2.153-1.285-1.628-.394-1.513-1.055-1.449-2.187.077-1.132-1.589-.687-2-.826-.41-.14 0-1.03 0-1.03a1.28 1.28 0 0 0-.999 1.322c0 .47.462.801.91 1.017.449.216.513.598-.282 1.081-.91.522-1.858.992-2.832 1.399-2.782 1.208.692 3.217-.526 3.84a2.631 2.631 0 0 0-1.59 1.882c-.089.623.09 1.259.475 1.755 2.397-1.31 3.986-.407 5.473 1.157Zm1 23.258a7.574 7.574 0 0 0-2.974-.166c-.91.217-1.833.357-2.756.407a2.826 2.826 0 0 1-2.742-1.92 6.111 6.111 0 0 1 2.678-2.53c5.076-2.798 3.397-5.951 3.076-9.614-.153-1.856.218-3.547 1.18-4.412 1.358-1.208 3.653-1.068 3.653-1.068-.257-.33-3.32-1.424-5.653-.738-2.5.725-2.96 2.518-3.396 3.79a4.746 4.746 0 0 1-3.038 3.331c-3.73 1.552-3.474 4.45-3.474 4.45s-1.345-2.873 2.27-5.289c4.588-3.077 2.819-5.43 4.357-6.854 1.218-1.094 2.64-.928 4.82-.33-.41-.471-6.23-2.887-6.91 2.25-.576 4.362-4.793 3.752-5.51 7.846-.513 2.912 2.268 5.353 2.268 5.353s-2.217-4.4 2.153-6.18c3.038-1.208 4.743-2.657 5.204-4.056v1.45c.051 1.97 1 3.522.705 6.294-.167 1.526-2.974 3.052-4.55 4.629a4.43 4.43 0 0 1 .602-1.959c.513-.61.962-1.271 1.333-1.958.295-.648.385-1.36.257-2.047-.077-.42-.231-.84-.449-1.208l-.205.076c.41.954.359 2.035-.141 2.938-.41.648-.897 1.258-1.423 1.805a5.041 5.041 0 0 0-.935 2.633c-.013.317.012.648.077.966-.641 1.678.09 3.828.679 4.832.705 1.208 1.358 2.06 1.012 3.433-.346 1.374.86.903 1.718.916h.807c.564 0 .795-.407.449-.954a13.923 13.923 0 0 0-2.307-2.95 4.59 4.59 0 0 1-1.68-3.586 4.386 4.386 0 0 0 3.039 1.628c1.089.102 2.114-.318 2.96-.445a6.65 6.65 0 0 1 2.602.089 5.022 5.022 0 0 1 2.128 1.068 3.5 3.5 0 0 1 1.064 1.78c.32 1.234-.552 2.416-1.218 3.014.051.05.09.089.141.127a3.326 3.326 0 0 0 1.602-3.51 4.438 4.438 0 0 0-3.473-3.37v.039Zm30.723-2.492c-.475-1.26-1.372-.713-1.77-.852-.397-.14-.922-.636-1.089-1.971-.166-1.336-1.307-.598-1.307-.598s1.32 2.632 1.82 4.03c.5 1.4.987.319 1.628 1.082.64.763.602 4.705.205 5.976a7.243 7.243 0 0 1-2.461 3.624c.923-.114 2.64-1.894 3.115-3.064.333-.827.41-1.717.243-2.594l.77-.064-.462-1.22.743-.115s-.974-3.014-1.435-4.26v.026Zm-9.024-2.785c-1.217 0-2.576.457-3.973-.827a3.2 3.2 0 0 0-3.653-.598s1.192 1.17.526 1.654c-1.077.788-.282 1.703-.372 2.072-.09.356-1.18.433-2.987-.381a4.523 4.523 0 0 0-2.589-.356c-.474.076-.307.407-.205.508 0 0 .757.687 1.064.878.295.19.846.648 1.077.483.23-.165-.257-1.043-.257-1.043s3.564 1.208 4.82 1.208c1.448 0 .09-2.416 1.217-2.505.577-.063 1.295.84 2.474.992.82.114 1.615-.229 2.435-.432.82-.204 1.218.839 1.308 1.805.025.28.09.56.218.827.243-1.373.628-4.336-1.103-4.285Zm.116-1.984c-.436.598-.103 1.513 1.038 1.806.82.178 1.59.56 2.217 1.106.744.725 1.09.827 1.27.827L10.74 5.888l-.423.305L36.67 42.42c.308.394 1.538 2.568 1.154 3.128Zm.897-26.399c-.77-.737-.551-2.187-.551-2.187-.334.267-.744 2.162-.052 3.128.795 1.12 1.513 1.272 2.154 2.48a1.475 1.475 0 0 0-.192-.928c-.244-.496-.347-.903.243-1.081 1.666-.483 3.204 1.895 4.102 1.856a1.793 1.793 0 0 0 1.602-1.208c-.449.28-.962.42-1.487.395-1.295-.153-1.884-1.59-3.345-1.882-.923-.217-1.705.165-2.474-.573ZM16.7 56.853a1.114 1.114 0 0 1-1.474.395 1.017 1.017 0 0 1-.051-1.335 1.048 1.048 0 0 0-.603.407 1.31 1.31 0 0 0 .487 1.767 1.315 1.315 0 0 0 1.82-.153c.257-.394.257-.89 0-1.284-.064.064-.115.14-.18.203Z"/><path d="M87.49.153 64.112 63.847 87.49.153ZM87.082.002 63.721 63.71l.795.287L87.877.29l-.795-.287ZM94.758 12.436h2.794l1.384 3.383h.244l1.384-3.383h2.743v8.456h-1.654v-6.6h-.243l-1.59 3.765h-1.614l-1.551-3.764h-.244v6.6h-1.666l.013-8.457ZM113.176 16.67c0 2.493-1.461 4.388-4.153 4.388-2.691 0-4.152-1.895-4.152-4.387 0-2.493 1.461-4.387 4.152-4.387 2.692 0 4.153 1.882 4.153 4.387Zm-1.833 0c0-1.563-.73-2.81-2.332-2.81-1.603 0-2.333 1.247-2.333 2.81 0 1.565.743 2.811 2.333 2.811 1.589-.013 2.332-1.246 2.332-2.81ZM119.341 14.75c-.154-.673-.666-.966-1.551-.966-.756 0-1.397.293-1.397.967 0 .56.487.763 1.064.864l1.589.28c1.333.242 2.32.966 2.32 2.48 0 1.411-1.115 2.67-3.435 2.67-2.153 0-3.473-1.068-3.653-2.747h1.82c.154.941.975 1.209 1.897 1.209.923 0 1.564-.395 1.564-1.069 0-.674-.461-.94-1.153-1.055l-1.628-.28c-1.41-.242-2.179-1.043-2.179-2.314 0-1.399 1.141-2.53 3.217-2.53 1.82 0 3.166.953 3.345 2.479l-1.82.013ZM130.261 18.197a3.347 3.347 0 0 1-3.563 2.86c-2.602 0-4.088-1.805-4.088-4.386 0-2.582 1.499-4.387 4.088-4.387 1.897 0 3.179 1.068 3.474 2.62h-1.859a1.508 1.508 0 0 0-1.615-1.043c-1.525 0-2.256 1.207-2.256 2.81 0 1.602.731 2.81 2.256 2.81a1.585 1.585 0 0 0 1.705-1.284h1.858ZM139.721 16.67c0 2.493-1.462 4.388-4.153 4.388-2.692 0-4.153-1.895-4.153-4.387 0-2.493 1.461-4.387 4.153-4.387 2.691 0 4.153 1.882 4.153 4.387Zm-1.833 0c0-1.563-.731-2.81-2.333-2.81-1.602 0-2.333 1.247-2.333 2.81 0 1.565.744 2.811 2.333 2.811 1.589 0 2.333-1.246 2.333-2.81ZM146.86 14.992l1.166 3.815h.218l.769-6.383h1.692l-1.051 8.456h-2.499l-1.218-4.222h-.231l-1.217 4.222h-2.5l-1.051-8.456h1.705l.756 6.383h.244l1.153-3.815h2.064ZM99.692 34.308h-3.255l-.692 2.289h-1.756l2.717-8.456h2.769l2.73 8.456h-1.846l-.667-2.289Zm-2.807-1.539h2.333l-.897-2.937h-.525l-.91 2.937ZM110.69 31.892v.992c0 1.97-1.051 3.865-3.743 3.865s-4.127-1.805-4.127-4.387c0-2.58 1.474-4.387 4.14-4.387 1.948 0 3.178 1.03 3.499 2.569h-1.82c-.192-.598-.744-.992-1.666-.992-1.526 0-2.295 1.208-2.295 2.81 0 1.603.769 2.823 2.307 2.823a1.806 1.806 0 0 0 1.41-.47c.372-.356.577-.852.539-1.373h-2.025v-1.437h3.781v-.013ZM118.764 35.033v1.564h-6.434V28.14h6.306v1.577h-4.524v1.78h3.525v1.538h-3.525v1.997h4.652ZM127.66 28.128v8.456h-2.218l-3.294-5.837h-.231v5.85h-1.627V28.14h2.217l3.294 5.836h.231v-5.849h1.628ZM136.875 33.888c-.243 1.742-1.807 2.989-3.576 2.861-2.602 0-4.089-1.805-4.089-4.387 0-2.58 1.5-4.387 4.089-4.387 1.897 0 3.179 1.069 3.474 2.62h-1.859a1.521 1.521 0 0 0-1.615-1.043c-1.525 0-2.256 1.208-2.256 2.81 0 1.603.731 2.81 2.256 2.81a1.585 1.585 0 0 0 1.705-1.284h1.871ZM141.669 31.51l1.82-3.382h1.884l-2.986 5.43v3.026h-1.782v-3.026l-2.974-5.43h1.872l1.833 3.382h.333ZM102.679 48.067c0 2.492-1.461 4.387-4.153 4.387-2.692 0-4.166-1.908-4.166-4.387 0-2.48 1.462-4.387 4.153-4.387 2.692 0 4.166 1.894 4.166 4.387Zm-1.833 0c0-1.564-.731-2.81-2.333-2.81-1.602 0-2.345 1.246-2.345 2.81s.743 2.81 2.332 2.81c1.59 0 2.346-1.246 2.346-2.81ZM106.024 45.41v1.945h3.538v1.564h-3.564V52.3h-1.781v-8.456h6.306v1.577l-4.499-.013ZM117.175 43.832v8.456h-1.781v-8.456h1.781ZM126.609 43.832v8.456h-2.218l-3.294-5.836h-.231v5.85h-1.627v-8.457h2.217l3.294 5.837h.231v-5.85h1.628ZM135.927 43.832v8.456h-2.218l-3.281-5.836h-.243v5.85h-1.628v-8.457h2.217l3.294 5.837h.231v-5.85h1.628ZM145.809 48.067c0 2.492-1.461 4.387-4.153 4.387-2.692 0-4.153-1.895-4.153-4.387 0-2.493 1.461-4.387 4.153-4.387 2.692 0 4.153 1.894 4.153 4.387Zm-1.82 0c0-1.564-.731-2.81-2.333-2.81-1.602 0-2.333 1.246-2.333 2.81s.744 2.81 2.333 2.81c1.589 0 2.333-1.246 2.333-2.81ZM146.501 43.832h1.833l1.897 6.752h.525l1.897-6.752h1.82l-2.499 8.456H149l-2.499-8.456ZM160.113 50.012h-3.256l-.692 2.29h-1.756l2.717-8.457h2.769l2.73 8.456h-1.82l-.692-2.289Zm-2.794-1.538h2.32l-.898-2.938h-.525l-.897 2.938ZM169.508 45.384h-2.653V52.3h-1.782v-6.917h-2.653v-1.552h7.088v1.552ZM172.533 43.832v8.456h-1.782v-8.456h1.782ZM182.466 48.067c0 2.492-1.461 4.387-4.153 4.387-2.691 0-4.153-1.895-4.153-4.387 0-2.493 1.462-4.387 4.153-4.387 2.692 0 4.153 1.894 4.153 4.387Zm-1.82 0c0-1.564-.731-2.81-2.333-2.81-1.602 0-2.332 1.246-2.332 2.81s.743 2.81 2.332 2.81c1.59 0 2.333-1.246 2.333-2.81ZM191.425 43.832v8.456h-2.23l-3.281-5.836h-.269v5.85h-1.628v-8.457h2.243l3.281 5.837h.244v-5.85h1.64ZM197.988 46.147c-.154-.674-.667-.967-1.551-.967-.756 0-1.397.293-1.397.967 0 .56.487.763 1.064.864l1.589.28c1.333.242 2.32.967 2.32 2.48 0 1.411-1.115 2.67-3.435 2.67-2.153 0-3.474-1.068-3.653-2.747h1.82c.154.941.974 1.209 1.897 1.209s1.564-.395 1.564-1.069c0-.674-.462-.94-1.154-1.055l-1.628-.28c-1.41-.242-2.179-1.043-2.179-2.314 0-1.399 1.141-2.53 3.217-2.53 1.821 0 3.166.953 3.346 2.479l-1.82.013Z"/></g><defs><clipPath id="a"><path fill="#fff" d="M0 0h200v64H0z"/></clipPath></defs></svg>