<svg width="237" height="55" fill="none" xmlns="http://www.w3.org/2000/svg"><path d="M0 42.94c0 4.98 3.37 8.07 8.78 8.07h5.25c3.31 0 5.96.98 8.11 3l.44.42.45-.43c2.13-2.01 4.78-2.99 8.1-2.99h5.26c5.4 0 8.75-3.09 8.75-8.07V0H0v42.94ZM.95.95h43.24v41.99c0 4.46-2.92 7.12-7.8 7.12h-5.26c-3.47 0-6.27 1-8.55 3.06-2.29-2.06-5.09-3.06-8.55-3.06H8.78c-4.9 0-7.83-2.66-7.83-7.12V.95Z" fill="#fff"/><path d="M7.33 27.53c.21.17.44.3.67.44.22.12.23.14.12.36-.02.05-.06.1-.08.15-.69 1.29-.85 2.63-.35 4.02.09.25.21.5.34.81.12-.59.22-1.09.33-1.59.15-.68.45-1.26 1.05-1.66.19-.13.37-.29.55-.44.04-.03.1-.05.16-.08.19.26.34.53.35.83.04.63-.04 1.25-.36 1.82-.22.4-.43.81-.61 1.23-.38.87-.27 1.71.3 2.47.2.27.43.5.66.78-.08.1-.19.22-.28.34-.17.22-.17.42-.01.65.07.1.17.18.25.28.12.16.28.31.34.5.16.49.3.98.16 1.51-.06.21-.04.43.18.56.41.24.86.3 1.33.24.21-.03.23-.08.2-.3-.04-.28-.13-.54-.31-.77-.22-.28-.44-.56-.65-.85-.34-.47-.38-1.14-.09-1.59.64.32 1.31.52 2.03.62 0 .09.01.15 0 .2-.05.43-.07.87-.02 1.31.06.63.57 1.28 1.14 1.46.66.2 1.29.09 1.89-.2.61-.3 1-.9.88-1.76-.04-.25-.11-.49-.18-.77.14-.2.38-.15.6-.17.22-.02.39.08.48.3.1.25.19.5.3.74.06.13.04.22-.03.34-.19.34-.35.7-.54 1.05-.11.21-.05.37.1.51.11.1.23.17.34.27.19.17.17.33-.08.38-.21.05-.45.05-.66 0-.39-.08-.65.04-.82.4-.05.11-.11.21-.26.24-.35.06-.53.31-.65.62-.02.05 0 .12 0 .2.15-.07.25-.12.36-.16.72-.29 1.45-.25 2.18-.09.76.16 1.46.48 2.12.9.03.02.08.02.13.03.07-.35.02-.64-.32-.8-.09-.04-.17-.1-.27-.13-.46-.15-.92-.28-1.38-.42-.13-.04-.27-.05-.29-.26.28-.08.56-.08.82-.02.7.15 1.39.33 2.09.5.21.05.42.14.65.21.02-.08.06-.14.06-.2-.04-.31-.09-.62-.26-.89-.13-.21-.24-.43-.37-.64-.16-.26-.18-.52-.06-.83.59-.03 1.13.19 1.69.34.57.15 1.12.35 1.73.54.02-.26.04-.49.06-.71.09-.04.18-.07.26-.1.31-.11.31-.11.54.15.63.71 1.41 1.16 2.32 1.42.19.05.38.08.63.01-.14-.11-.25-.19-.34-.28-.1-.1-.23-.18-.21-.34.04-.02.06-.04.08-.03.34.1.68.21 1.02.31.27.08.35.04.47-.22.11-.26.16-.54.13-.82-.01-.08 0-.16 0-.27.26.02.41.16.58.26.46.27.46.27.86-.1l.12-.12c.74-.82 1.2-1.77 1.42-2.85.03-.16.09-.31.14-.45.25-.03.48.11.66-.06-.02-.21-.32-.23-.25-.47.33-.04.67.03 1-.17-.06-.05-.1-.08-.14-.11-.45-.25-.82-.59-1.07-1.04-.28-.5-.54-1-.82-1.5-.21-.39-.36-.42-.7-.19-.01.01-.04 0-.12 0-.15-.26-.33-.54-.49-.83-.11-.2-.17-.4-.18-.64 0-.17-.08-.35-.18-.49-.11-.17-.22-.17-.4-.06-.06.04-.13.07-.23.13-.03-.25-.06-.46-.09-.71-.15 0-.29-.01-.42 0a.354.354 0 0 1-.34-.17c-.13-.21-.26-.42-.38-.63-.1-.18-.05-.27.16-.3.04-.01.09 0 .13 0 1.18-.02 2.31-.27 3.35-.83.45-.24.92-.41 1.41-.54.2-.05.4-.07.56.1.34.36.68.72 1.01 1.08.16.18.25.39.2.65-.04.2.05.36.19.51.15.17.28.38.41.57.16.24.17.5.08.77-.06.17-.1.34-.18.51-.11.25-.05.45.15.59.28.2.57.4.87.56.23.12.36.03.39-.22.05-.44.02-.87-.22-1.27-.3-.5-.46-1.04-.46-1.63 0-.56-.25-1-.62-1.4-.29-.31-.53-.66-.77-1.01-.16-.23-.26-.5-.39-.74-.22-.39-.49-.7-1-.65-.23.02-.47.02-.7.02-.06 0-.12-.04-.19-.06 0-.02-.01-.05-.01-.07.44-.13.7-.47.99-.78.34-.37.68-.74 1.04-1.1.18-.19.23-.18.42-.01.06.05.11.11.16.17.27.29.53.58.81.86.17.17.27.34.24.59-.03.25.09.42.34.51.09.03.18.1.23.18.27.43.25.66-.1 1.05-.03.03-.06.07-.09.1-.21.2-.2.43-.09.68.16.34.41.58.77.7.29.1.44.04.47-.26.03-.25.02-.52-.03-.76-.12-.58-.26-1.16-.19-1.76.04-.36-.1-.62-.34-.87-.36-.38-.72-.77-1.07-1.17-.35-.4-.67-.81-.79-1.35-.02-.09-.06-.17-.1-.25-.16-.28-.4-.36-.67-.19-.2.13-.38.31-.54.49-.27.32-.58.56-.95.73-.22.1-.35.06-.46-.17-.05-.12-.09-.25-.11-.39-.11-.64-.35-1.22-.74-1.75-.17-.23-.36-.43-.52-.66-.29-.4-.65-.74-.81-1.22-.33-.94-.68-1.87-1.02-2.81-.07-.18-.12-.37-.19-.61.24.02.42.03.6.06.41.06.82.13 1.16.4.17.13.32.29.49.4.14.09.29.16.45.19.08.02.2-.03.26-.1.03-.03-.04-.15-.07-.23-.01-.04-.03-.07-.04-.11.12.02.2.07.28.13.2.14.34.14.5-.04.08-.09.11-.24.12-.36.01-.21-.01-.42-.02-.63-.01-.22-.1-.38-.31-.48-.13-.07-.26-.18-.35-.3-.43-.59-.84-1.19-1.25-1.79a1.19 1.19 0 0 1-.17-.36c-.07-.25-.14-.49-.34-.68-.02-.02-.02-.08-.03-.13.12-.02.23-.03.37-.05-.12-.25-.2-.49-.34-.69a.887.887 0 0 0-.43-.34c-.21-.06-.45-.08-.66-.04-.42.1-.73-.03-1.03-.32-.17-.16-.37-.28-.57-.41-.04-.03-.12-.02-.2-.02.02.14.03.24.05.4-.4-.05-.77-.1-1.15-.14-.02.3.28.39.34.65-.11.02-.2.05-.29.05-.48.02-.96 0-1.43.14-.07.02-.17-.03-.24-.08a.858.858 0 0 0-.76-.14c-.42.1-.8.28-1.16.51-.07.04-.15.07-.29.13 0-.24-.04-.43.01-.58.24-.73.2-1.46-.02-2.18-.09-.31-.23-.6-.35-.92.02-.03.05-.08.09-.11.3-.25.42-.59.44-.95.01-.19-.07-.4-.16-.56-.08-.15-.27-.04-.41-.06-.15-.02-.32-.04-.44-.12-.39-.24-.78-.24-1.18-.03-.5.26-1.02.46-1.58.55-.41.07-.82.09-1.23-.06-.11-.04-.22-.06-.37-.1.13.53.48.82.85 1.08-.12.22-.34 0-.46.14 0 .03-.01.06.01.07.35.3.75.48 1.23.45.11-.01.22 0 .32.03.28.09.54.12.81-.02.09-.04.18-.09.26-.02 0 .03.01.04.01.05-.01.03-.03.06-.05.08-.47.37-.62.88-.62 1.46 0 .3-.03.6-.18.88-.05.11-.06.24-.1.35-.02.08-.05.16-.09.25-.24-.06-.45-.14-.67-.17-.15-.02-.32-.03-.46.02-.19.07-.33.05-.5-.07-.35-.24-.73-.27-1.11-.04-.24.14-.47.31-.7.46-.18.12-.34.26-.52.36-.12.07-.27.09-.34-.08-.15-.33-.29-.67-.44-1.01-.13-.28-.23-.6-.64-.58-.16.01-.23-.11-.23-.27 0-.09.02-.21-.03-.25-.21-.17-.27-.4-.33-.64-.03-.12-.1-.2-.22-.15-.01.14-.01.27-.01.32.08.2.13.35.2.53-.01 0 .03.01.07.02.15.05.17.17.07.26-.12.13-.27.24-.42.32-.06.03-.22 0-.27-.05-.19-.2-.47-.38-.28-.74-.07-.34.09-.52.4-.62.01 0 .02-.04.03-.05-.1-.13-.21-.26-.31-.39-.41-.56-.81-1.13-1.23-1.69-.08-.11-.2-.21-.32-.29a.345.345 0 0 0-.43.06c-.12.13-.1.27-.02.4.05.1.12.19.18.28.46.66.92 1.32 1.39 1.98.07.1.15.21.08.33-.11.18-.04.32.07.46.11.14.24.27.34.42.1.15.22.3.24.46.06.36.23.65.4.95.1.16.19.33.28.5.16.3.12.56-.13.79-.15.14-.32.26-.44.41-.18.23-.34.47-.48.72-.09.16-.13.36.05.55.21-.05.43-.09.64-.16.34-.12.63.13.56.51-.04.23-.16.42-.4.5-.12.04-.24.06-.35.11-.41.15-.82.29-1.22.46-.63.28-.66 1.01-.35 1.42.27.35.22.54-.13.82-.16.13-.33.23-.49.35-.19.14-.32.32-.28.57.02.15-.05.25-.16.35-.21.19-.35.43-.44.7-.05.14-.04.26.07.37.11.1.21.03.31-.01.24-.09.47-.22.72-.27.6-.12 1.21-.22 1.83-.19.51.03 1.01.1 1.43.41.32.24.62.51.93.77.13.11.25.23.4.3.17.08.39.05.53.15.14.1.21.31.31.46l.02.02c.14.12.13.28.08.43-.04.15-.18.13-.3.15-.66.08-1.31.17-1.94.39-.12.04-.21.03-.31-.05-.16-.13-.33-.26-.51-.38-.69-.47-1.43-.83-2.29-.89-.62-.04-1.17.15-1.63.57-.56.51-.94 1.13-1.27 1.8-.16.32-.27.66-.34 1.01-.07.36-.17.72-.27 1.07-.06.2-.14.24-.29.14-.38-.24-.77-.45-1.03-.85-.32-.5-.33-.76.17-1.26.07-.07.18-.1.29-.15.08.21-.01.42.17.57.14.12.24.29.35.44.38-.31.3-1.01-.13-1.22a.606.606 0 0 0-.29-.06c-.56.05-.94.24-1.11.86-.21.74-.08 1.43.56 1.94ZM13.1 9.54l-1.3-1.87c-.08-.11-.23-.27-.08-.38.18-.13.22.12.29.22l1.26 1.74c.07.1.12.22.19.34-.2.1-.29.06-.36-.05Zm-2.14 26.31c-.25-.37-.5-.67-.65-1.05.02-.02.05-.04.07-.06.08.07.16.13.23.2.12.13.24.27.36.39.18.2.19.19-.01.52Zm.81 3.9c-.11.04-.2.06-.28.09-.08.17.06.26.11.38.03.06.01.14.02.22-.08-.01-.17 0-.24-.04-.27-.17-.33-.33-.21-.62.07-.18.1-.35.03-.55-.11-.32-.09-.53 0-.74.17.11.51.85.57 1.26Zm-.48-4.72c-.31-.13-.51-.31-.61-.58-.03-.08.03-.21.07-.31.16-.36.35-.7.49-1.07.35-.92.44-1.88.32-2.84-.07-.55-.36-1.03-.73-1.45-.1-.11-.15-.21-.1-.36.2-.65.38-1.31.58-1.96.26-.84.83-1.36 1.67-1.6.37-.11.74-.18 1.13-.12.06.01.12.04.22.07-.05.09-.08.17-.13.24-.52.71-.75 1.52-.88 2.37-.11.73-.13 1.47-.11 2.21.01.29.01.58.05.87.05.37 0 .74-.04 1.1-.05.43-.27.76-.6 1.01-.19.15-.4.29-.61.42-.22.14-.36.33-.41.59-.09.46-.2.9-.31 1.41Zm2.17 2.25c-.53-.13-1.04-.34-1.51-.63-.18-.11-.18-.17-.01-.47.66.22 1.33.45 2 .68-.02.31-.2.49-.48.42Zm9.18-8.07c.3.37.61.75.9 1.12.12.16.24.32.34.5.04.08.07.22.02.27-.06.07-.19.14-.28.12-.49-.1-.96-.27-1.21-.75-.1-.19-.21-.3-.45-.24-.05.01-.13-.02-.18-.05-.15-.12-.29-.25-.43-.37-.1-.09-.12-.18-.05-.29.1-.16.21-.32.28-.49.17-.4.36-.79.47-1.21.19-.71.33-1.43.5-2.19.33-.09.7-.19 1.13-.31-.02.16-.01.28-.04.39-.25.75-.51 1.5-.76 2.25-.1.28-.2.57-.3.85-.05.15-.04.28.06.4Zm1.12-.97c.21-.7.43-1.39.65-2.14.1.08.16.12.21.17.23.25.47.51.69.77.21.24.14.76-.11.93-.19.14-1.12.32-1.44.27Zm-2.68.36c-.57.1-1.14.23-1.7.35-.63.14-.74.08-.82-.57-.03-.21-.05-.42-.08-.63-.01 0-.02 0-.03-.01.11-.75.22-1.5.34-2.25.04-.23.09-.46.16-.69.06-.22.11-.25.34-.22.81.1 1.62.21 2.42.32.08.01.15.05.22.07.13.05.18.13.17.28-.1.98-.31 1.94-.54 2.89-.08.28-.21.41-.48.46Zm1.54-4.11c-.82-.25-1.67-.42-2.44-.83-.14-.07-.32-.13-.31-.31.01-.19.22-.23.36-.24.35-.04.71-.04 1.07-.04.07 0 .15.05.21.09.49.34.88.78 1.27 1.28-.1.04-.14.06-.16.05Zm-2.11-2.52c-.41.21-.81.42-1.23.62-.21.1-.44.17-.67.22-.31.07-.57-.06-.78-.28-.13-.14-.13-.26.01-.37.33-.26.72-.46 1.14-.33.41.13.75.05 1.08-.16l.17-.11c.34-.23.39-.22.6.22-.11.07-.21.14-.32.19ZM18.6 32.46c.27-.34.45-.38.82-.14.05.03.09.07.13.1.01.01.02.04.04.09-.43.55-1.13.77-1.63 1.26-.15-.27-.14-.38.03-.57.2-.24.41-.49.61-.74Zm-.94.68c-.15.2-.34.35-.5.54-.41.49-.35.95.2 1.29.24.15.44.31.54.58.03.07.03.15.04.23-.4-.02-.76-.03-1.11-.04-.77-.03-1.48.17-2.14.58a.47.47 0 0 1-.28.07c-.57-.08-1.12-.21-1.63-.47-.19-.1-.38-.18-.56-.27.04-.34.32-.89.57-1.1.43-.37.91-.63 1.5-.7.34-.04.67-.18 1-.29.83-.28 1.62-.64 2.38-1.07.04-.02.08-.03.13-.04.02 0 .04.01.09.01.1.28-.08.48-.23.68Zm-1.42 6.3c-.27.14-.76-.01-.87-.29-.03-.07-.01-.19.03-.25.1-.13.21-.26.34-.36.24-.18.51-.32.83-.37.3.48.1 1.05-.33 1.27Zm5.36 2.34c-.28.19-1.04.09-1.57-.19-.52-.28-.97-.88-.98-1.33.41.03.8.11 1.13.34.37.26.7.55 1.05.83.13.11.25.23.37.35Zm2.55-2.18c-.07-.01-.15-.02-.22-.04-.39-.12-.78-.2-1.19-.19-.53.02-1.05.06-1.58.04-.42-.02-.85.01-1.26-.15a1.88 1.88 0 0 1-.91-.71c-.24-.35-.2-.73-.07-1.1.1-.31.08-.41-.24-.48a5.17 5.17 0 0 0-.96-.14c-.58-.02-1.16-.05-1.73.13-.52.16-1 .4-1.32.87-.49.73-.51 1.5-.21 2.31.02.07.04.14.06.2-.02.02-.04.03-.06.05-.08-.08-.18-.14-.25-.23-.45-.57-.51-1.24-.36-1.91.07-.32.22-.63.38-.92.32-.58.9-.83 1.47-1.05.65-.25 1.32-.33 2.01-.19.33.07.65.15.98.2.55.08 1.09.06 1.63-.08.05-.01.11-.03.16-.05.36-.13.62-.02.87.28.28.33.64.59.96.89.06.06.12.12.18.17-.01.02-.03.05-.04.07-.12-.01-.24-.02-.39-.04.04.09.05.15.08.2.35.55.88.88 1.45 1.16.1.05.2.1.3.14.32.15.33.17.26.57Zm3.53-.85c-.27.56-.7.98-1.19 1.35-.02.02-.06.02-.16.04.21-.48.4-.9.59-1.32l-.04-.04c-.18.11-.36.23-.55.32-.19.09-.4.17-.63.21.3-.45.48-.93.58-1.44-.29.12-.55.29-.83.34-.43.08-.88.08-1.33.11a.3.3 0 0 0-.04-.08c.06-.05.11-.12.18-.15.31-.15.63-.29.95-.43.06-.03.11-.06.24-.13-.3-.04-.53-.06-.75-.09-.22-.02-.44-.05-.67-.13.29-.13.59-.24.86-.39.27-.16.5-.36.81-.58-.12-.03-.18-.05-.23-.05a7.03 7.03 0 0 1-2.62-.29c-.12-.04-.23-.11-.35-.2.86-.01 1.69-.11 2.48-.45-.44.01-.87-.01-1.3-.13-.41-.12-.82-.25-1.22-.41v-.08c.08-.01.15-.04.23-.03.76.07 1.49-.05 2.22-.23.36-.09.72-.17 1.07-.29.72-.25 1.03.41.96.88-.06.45-.11.91-.17 1.36-.04.29.08.5.32.65.3.17.47.45.6.75.15.3.14.62-.01.93Zm-.18-3.93c.08-.31.15-.62.22-.94.26-.01.47.15.47.43 0 .15-.02.32-.07.46-.13.35-.28.7-.44 1.05-.03.07-.1.12-.19.22-.09-.45-.1-.83.01-1.22Zm4.07 3.3c-.33.68-.88 1.11-1.57 1.39-.16.07-.33.12-.51.18-.13.41-.26.82-.4 1.25-.36-.1-.65-.25-.88-.5-.19-.2-.19-.48.03-.7.25-.25.52-.51.82-.68.64-.36 1.31-.66 1.97-.99.19-.09.37-.18.56-.28.09.14.03.23-.02.33Zm-.83-5.76c.33.47.4 1.05.73 1.52.13-.08.23-.14.33-.21.12-.09.23-.08.33.01.09.09.07.18 0 .27-.21.3-.08.57.32.59.17.01.27.09.33.24.12.33.25.66.38 1.01-.07.03-.15.07-.24.11.02.15.03.31.05.46-.12.11-.21.03-.29-.05-.29-.28-.59-.55-.86-.84-.17-.18-.3-.38-.47-.6.05-.07.09-.11.12-.16.19-.27.14-.45-.17-.59-.18-.08-.31-.19-.37-.4-.06-.26-.18-.5-.26-.76-.06-.18-.13-.39.07-.6Zm-.79.63c.22.11.29.28.31.56-.11-.05-.17-.08-.23-.12-.17-.13-.34-.14-.52-.03-.12.07-.15.16-.07.28.12.19.22.39.36.56.34.42.66.85.77 1.4.04.21.06.42.07.63.01.3.14.51.41.63.04.02.07.05.14.11-.12.16-.23.33-.36.48-.16.19-.32.37-.5.55-.34.33-.75.34-1.15.17-.38-.16-.71-.52-.67-.99.03-.29.05-.58.08-.87.07-.69.13-1.38.2-2.07.01-.11 0-.22-.02-.33-.06-.5-.32-.76-.82-.74-.38.02-.75.11-1.12.19-.24.05-.47.14-.71.19-.11.02-.25 0-.35-.06-.38-.22-.74-.47-1.11-.69-.43-.26-.87-.5-1.31-.74-.02-.01-.06 0-.08-.01.07.29.2.57.21.85.01.28-.11.56-.18.87.02.03.08.07.11.12.05.07.13.19.11.21-.07.07-.17.15-.26.16-.24.02-.5.03-.74-.01-.61-.1-1.21-.24-1.81-.35-.28-.05-.56-.1-.87-.12.49.54 1.03 1.02 1.34 1.68-.03.03-.06.07-.08.07-.5 0-.96.19-1.43.32-.18.05-.3.02-.4-.13-.14-.22-.27-.44-.41-.65-.24-.38-.1-.71.15-1.01.12-.14.24-.27.39-.37.49-.33.81-.8 1.16-1.25.08-.11.15-.23.24-.32a.48.48 0 0 1 .25-.14c.86-.14 1.72-.27 2.59-.39 1.27-.18 2.46-.63 3.64-1.11.15-.06.24-.04.34.09.19.24.38.47.59.69.14.15.14.29.05.45-.16.29-.15.3.14.44.51.28 1.03.55 1.55.8Zm2.87-7.58c.11-.32.3-.55.64-.68.35-.14.69-.32 1.03-.48.23-.1.23-.1.53.01-.2.25-.36.49-.56.7-.25.27-.51.53-.8.75-.14.11-.35.15-.53.16-.28 0-.4-.2-.31-.46Zm-6.93-10.02c.23-1.25.78-2.34 1.96-2.98.13-.07.27-.11.4-.17.22-.08.43-.1.65 0 .12.05.26.06.39.11.11.04.21.05.32-.01.17-.11.31-.06.46.05.23.17.49.32.72.49.14.1.26.21.37.34.16.18.1.33-.13.4-.11.03-.22.04-.33.07-.05.01-.08.05-.17.11.1.02.15.03.21.04.05.01.11.01.14.01.08.13.13.27.23.33s.25.03.38.05c.07.01.15.04.21.08.05.04.09.1.12.16.28.65.79 1.11 1.3 1.56.03.03.06.06.09.1.01.02.01.04.02.07-.03.13-.14.12-.24.12-.28-.02-.55 0-.82.1-.09.04-.22.01-.32-.02-.5-.15-1-.32-1.5-.48-.2-.06-.41-.11-.61-.18-.67-.25-.88-.8-.56-1.46.05-.11.11-.22.16-.33 0-.01-.01-.02-.03-.06-.31.24-.54.51-.58.92-.05.51.11.97.34 1.41.22.41.5.8.67 1.24.26.65.46 1.33.68 1.99.06.17.1.34.14.52.22.83.13 1.65-.07 2.46-.1.41-.24.81-.39 1.21-.13.33-.18.34-.54.25-.35-.09-.69-.19-1.04-.26-.28-.06-.57-.1-.85.03.2.16.43.21.67.27.47.1.94.2 1.38.42.17.09.28.21.33.4.06.25.12.5.2.74.06.17 0 .27-.16.3-.29.06-.59.12-.89.15-.33.03-.67.01-1 .01-.01.02-.02.05-.03.07.06.05.12.11.19.14.58.21 1.16.4 1.74.61.07.02.13.08.18.13.15.17.33.26.56.26.67.01 1.34.02 2.01-.1.47-.09.95-.13 1.44-.06a.8.8 0 0 1 .6.38c.08.13.17.27.23.41.02.04 0 .12-.03.15s-.11.04-.15.02c-.12-.06-.24-.13-.35-.2-.24-.14-.47-.14-.73-.02-.56.26-1.12.5-1.69.74-.56.24-1.13.31-1.74.26-.76-.06-1.51-.15-2.24-.39-.58-.19-1.11-.49-1.49-.99-.53-.69-1.06-1.39-1.58-2.09-.31-.42-.4-.88-.27-1.4.2-.78.23-1.59.34-2.39.11-.82.25-1.64.36-2.45.05-.38.06-.76.1-1.14.06-.86.09-1.69.24-2.5Zm-.14-.84c.08.1.02.21-.04.31-.64 1.02-.88 2.14-.8 3.33.03.49.07.98.07 1.47.01.72-.39 1.19-1.02 1.48-.18.08-.38.12-.58.15-.13.02-.21-.06-.18-.2.11-.51.23-1.01.67-1.35.18-.14.22-.29.19-.5-.04-.25-.07-.51-.1-.76-.05-.38.04-.74.15-1.09.1-.34.27-.66.4-.99.02-.04.03-.08.05-.12-.33.11-.55.39-.92.45.01-.08.01-.14.03-.18.28-.56.63-1.09 1.07-1.53.2-.19.44-.34.67-.49.11-.08.24-.1.34.02Zm-.72-2.39c.01-.01.04.01.09.02-.03.06-.05.12-.08.16-.25.25-.44.53-.59.85-.05.12-.13.25-.23.32-.67.45-1.04 1.11-1.26 1.85-.18.62-.25 1.27-.41 1.9-.07.26-.2.52-.35.75-.12.19-.35.27-.65.24.14.32.34.52.56.69.21.17.47.28.71.42-.15.31-.3.64-.47 1-.5-.66-.97-1.29-1.41-1.88.3-.44.57-.83.83-1.24.34-.54.52-1.14.54-1.78.01-.31.1-.59.23-.87.54-1.1 1.39-1.9 2.49-2.43Zm-2.99-1.44c.28 0 .32.05.25.32-.04.16-.08.29.18.34.03-.19.05-.38.08-.57.65-.11.76 0 .6.57-.09.32-.24.62-.41.91-.12.22-.23.21-.44.07-.34-.24-.48-.61-.61-.98-.09-.24-.13-.5-.22-.74-.06-.18-.01-.3.11-.42.39-.41 1.18-.38 1.55.06-.19.23-.49.28-.77.16-.14-.06-.29-.1-.44-.1-.09 0-.18.09-.27.14.09.19.22.24.39.24Zm.65-2.26c.11.22.19.45.27.68.05.16.09.33.14.54-.3-.02-.52-.03-.74-.05-.25-.03-.36-.18-.32-.42.04-.28.14-.54.31-.77.14-.19.23-.2.34.02Zm-3.13.08c-.01-.03-.02-.05-.03-.08.37-.16.74-.32 1.15-.5-.23.42-.69.65-1.12.58Zm1.45-1.04c-.36.2-.7.44-1.12.51-.31.05-.58-.04-.83-.2-.05-.04-.08-.11-.15-.22.23.02.41.03.58.05.34.05.64-.01.93-.19.34-.2.68-.4 1.01-.59.25-.14.51-.16.78-.07.05.02.09.07.15.12-.03.05-.06.09-.08.09-.48.02-.87.28-1.27.5Zm-2.45 5.13c.39.28.75.6 1.11.92.34.3.65.62 1.09.76.22.07.46.09.75.14-.27.16-.53.23-.77.21-.26-.01-.51-.11-.78-.18.22.39 1.05.66 2.01.62 0 .1.03.22-.01.31-.1.23-.21.47-.35.68-.24.35-.58.45-1 .35-1.58-.37-2.63-1.37-3.33-2.78-.07-.14-.11-.29-.13-.45-.03-.22-.09-.41-.3-.53-.05-.03-.07-.1-.13-.18.67-.26 1.28-.27 1.84.13Zm-3.67-1.12c.24.33.47.64.7.96 1.52 2.11 3.04 4.21 4.56 6.32l3.24 4.5c1.14 1.58 2.3 3.15 3.45 4.72.72 1 1.45 1.99 2.16 3 .11.16.22.31.44.32.15.01.2.13.21.26.04.3.07.59.12.97-.4-.19-.75-.36-1.13-.54.04-.1.06-.18.1-.24.12-.17.1-.32-.03-.49-.78-1.08-1.55-2.17-2.33-3.25-1.04-1.46-2.09-2.91-3.13-4.37-.85-1.18-1.7-2.36-2.55-3.55-1.84-2.57-3.68-5.13-5.52-7.7l-.36-.48c-.11-.16-.1-.29.07-.43Zm1.41 8.98c-.76-.06-1.46-.29-2.17-.57-.77-.3-1.53-.26-2.26.16-.03.02-.06.02-.1.04-.14-.15-.09-.28.02-.41.25-.29.56-.47.92-.58.9-.27 1.8-.54 2.69-.82.18-.06.36-.13.53-.2.07-.03.12-.08.24-.16-1.22-.21-2.32-.06-3.42.37-.3-.51-.25-.76.2-1.09.4-.29.86-.38 1.33-.39.66 0 1.32.07 1.96.25.58.17 1.15.35 1.73.53.02.01.03.03.06.06-.16.19-.41.2-.6.32s-.4.21-.6.31c-.21.11-.42.21-.63.31-.2.1-.4.19-.61.28-.21.08-.44.15-.65.26.18.09.35.01.52-.02.19-.03.38-.05.57-.07.19-.03.38-.05.56-.09.18-.03.36-.08.56-.12-.1.32-.3.45-1.11.79.05.03.09.06.12.06.61-.02 1.21-.05 1.75-.39.14-.09.29-.17.44-.24.05-.02.15-.02.18.01.03.04.04.13.02.18-.14.34-.36.63-.66.83-.48.32-1.01.43-1.59.39Zm-.31 4.52c.53-.25 1.09-.31 1.66-.41.24-.04.29.02.31.27.03.42.06.85.1 1.27.1 1.1-.31 2.04-.89 2.93-.37.56-.78 1.06-1.37 1.41-.23.14-.43.32-.64.49-.08.07-.15.16-.27.29.46.24.91.2 1.32.26.07.15.01.23-.11.28-.24.09-.48.19-.72.27-.42.15-.85.27-1.26.44-.82.34-1.42.92-1.85 1.68-.1.19-.21.37-.31.56-.06.1-.14.21-.26.14-.06-.04-.11-.17-.11-.25.05-.74.39-1.31 1-1.73.67-.46 1.1-1.07 1.17-1.9.12-1.38.31-2.76.64-4.11.22-.89.77-1.5 1.59-1.89ZM8.91 29.6c.3-.42.41-.9.42-1.39.02-.88.27-1.7.66-2.47.19-.38.4-.74.63-1.15-.09.05-.15.07-.2.11-.26.23-.52.46-.78.68-.06.05-.14.09-.25.15-.01-.09-.02-.14-.01-.17.49-.93 1.13-1.72 2.08-2.22.26-.14.53-.2.81-.18.89.06 1.62.49 2.24 1.11.08.08.14.17.07.3-.07.13-.16.2-.32.18-.37-.04-.73-.07-1.1-.1-.98-.08-1.63.42-2.12 1.21-.37.6-.6 1.25-.71 1.94-.14.84-.54 1.53-1.18 2.08-.07.06-.16.1-.23.14-.02-.02-.04-.05-.06-.07.01-.05.02-.1.05-.15Z" fill="#fff"/><path d="M22.68 11.74c-.18-.19-.39-.15-.64-.1.18.38.37.41.64.1ZM61.49 4.09c0-2.17-1.62-3.59-3.94-3.59h-2.36v7.22h2.36c2.32.01 3.94-1.49 3.94-3.63Zm-4.83 2.3V1.84h.88c1.46 0 2.43.83 2.43 2.25 0 1.39-.97 2.3-2.43 2.3h-.88ZM68.31 6.39h-3.52V4.56h2.49V3.31h-2.49V1.84h3.38V.5h-4.86v7.23h5V6.39ZM71.66 5.18h1.24c1.52 0 2.61-.95 2.61-2.34 0-1.41-1.08-2.33-2.61-2.33h-2.72v7.22h1.48V5.18Zm0-3.37h1.24c.69 0 1.09.43 1.09 1.03 0 .62-.4 1.05-1.09 1.05h-1.24V1.81ZM77.83 6.79h2.96l.41.94h1.59L79.57.37h-.49l-3.23 7.36h1.59l.39-.94Zm1.48-3.66.96 2.44h-1.93l.97-2.44ZM85.7 5.18h1.08l1.87 2.55h1.66l-2.05-2.84c.78-.38 1.27-1.13 1.27-2.06 0-1.41-1.08-2.33-2.61-2.33H84.2v7.22h1.48V5.18h.02Zm0-3.37h1.24c.69 0 1.09.43 1.09 1.03 0 .62-.41 1.04-1.09 1.04H85.7V1.81ZM93.23 7.73h1.48V1.84h2.32V.5h-6.11v1.34h2.31v5.89ZM99.95 3.87l1.82 2.28h.48l1.82-2.28v3.86h1.48V.37h-.48l-3.06 3.91L98.96.37h-.48v7.36h1.47V3.87ZM112.8 6.39h-3.52V4.56h2.49V3.31h-2.49V1.84h3.39V.5h-4.87v7.23h5V6.39ZM116.15 3.39l4.18 4.47h.5V.5h-1.48v4.32L115.16.37h-.49v7.36h1.48V3.39ZM124.58 7.73h1.48V1.84h2.32V.5h-6.11v1.34h2.31v5.89ZM58.6 13.51c-2.12 0-3.83 1.62-3.83 3.74S56.47 21 58.6 21c2.12 0 3.85-1.62 3.85-3.74s-1.73-3.75-3.85-3.75Zm.01 6.12c-1.35 0-2.32-.97-2.32-2.38 0-1.39.97-2.38 2.32-2.38 1.32 0 2.32.99 2.32 2.38 0 1.41-1 2.38-2.32 2.38ZM69.03 14.98v-1.34h-4.75v7.23h1.48v-2.75h2.68v-1.34h-2.68v-1.8h3.27ZM79.23 14.98v-1.34h-4.86v7.23h4.99v-1.34h-3.52V17.7h2.49v-1.26h-2.49v-1.46h3.39ZM87.39 21v-7.36h-1.48v4.32l-4.19-4.45h-.48v7.36h1.47v-4.34L86.9 21h.49ZM94.94 13.64h-6.11v1.34h2.31v5.89h1.48v-5.89h2.32v-1.34ZM100.44 18.03c.78-.38 1.27-1.13 1.27-2.06 0-1.41-1.08-2.33-2.61-2.33h-2.72v7.22h1.48v-2.55h1.08l1.87 2.55h1.66l-2.03-2.83Zm-1.34-1.02h-1.24v-2.07h1.24c.69 0 1.09.43 1.09 1.03.01.63-.4 1.04-1.09 1.04ZM108.76 14.98v-1.34h-4.87v7.23h5v-1.34h-3.52V17.7h2.49v-1.26h-2.49v-1.46h3.39ZM110.76 20.87h1.48v-2.55h1.24c1.52 0 2.61-.95 2.61-2.34 0-1.41-1.08-2.33-2.61-2.33h-2.72v7.22Zm1.48-5.92h1.24c.69 0 1.09.43 1.09 1.03 0 .62-.41 1.05-1.09 1.05h-1.24v-2.08ZM123.01 15.97c0-1.41-1.08-2.33-2.61-2.33h-2.72v7.22h1.48v-2.55h1.08l1.87 2.55h1.66l-2.05-2.84c.8-.37 1.29-1.12 1.29-2.05Zm-2.61 1.04h-1.24v-2.07h1.24c.69 0 1.09.43 1.09 1.03.01.63-.4 1.04-1.09 1.04ZM130.06 14.98v-1.34h-4.86v7.23h4.99v-1.34h-3.52V17.7h2.49v-1.26h-2.49v-1.46h3.39ZM133.54 16.53l4.19 4.47h.49v-7.36h-1.48v4.32l-4.19-4.45h-.48v7.36h1.47v-4.34ZM145.46 19.53h-3.52V17.7h2.49v-1.26h-2.49v-1.46h3.38v-1.34h-4.86v7.23h5v-1.34ZM150.2 21c1.75 0 3.07-1.18 3.07-3.12v-4.24h-1.48v4.35c0 1.08-.68 1.64-1.59 1.64-.9 0-1.59-.56-1.59-1.64v-4.35h-1.48v4.24c0 1.94 1.31 3.12 3.07 3.12ZM160.78 15.97c0-1.41-1.08-2.33-2.61-2.33h-2.72v7.22h1.48v-2.55h1.08l1.87 2.55h1.66l-2.05-2.84c.79-.37 1.29-1.12 1.29-2.05Zm-2.61 1.04h-1.24v-2.07h1.24c.69 0 1.09.43 1.09 1.03.01.63-.4 1.04-1.09 1.04ZM165.13 19.69c-.86 0-1.38-.5-1.77-1.05l-1.02.77c.54.96 1.54 1.6 2.79 1.6 1.43 0 2.53-.82 2.53-2.17 0-1.03-.65-1.61-1.78-2.11l-.82-.36c-.53-.24-.84-.42-.84-.83 0-.48.42-.7.9-.7.59 0 1.03.31 1.38.83l1.01-.78c-.43-.79-1.24-1.37-2.39-1.37-1.36 0-2.4.8-2.4 2.05 0 1.02.72 1.61 1.75 2.08l.78.35c.57.26.92.43.92.9-.01.49-.4.79-1.04.79ZM171 17.75h3.2v3.12h1.48v-7.23h-1.48v2.77H171v-2.77h-1.47v7.23H171v-3.12ZM179.41 13.64h-1.48v7.22h1.48v-7.22ZM186.95 15.97c0-1.41-1.08-2.33-2.61-2.33h-2.72v7.22h1.48v-2.55h1.24c1.53.01 2.61-.95 2.61-2.34Zm-3.84-1.02h1.24c.69 0 1.09.43 1.09 1.03 0 .62-.4 1.05-1.09 1.05h-1.24v-2.08ZM56.49 33.07h2.96l.41.94h1.59l-3.22-7.36h-.49l-3.23 7.36h1.59l.39-.94Zm1.47-3.66.96 2.44H57l.96-2.44ZM67.56 31.1l-4.19-4.45h-.49v7.36h1.48v-4.34l4.18 4.47h.5v-7.36h-1.48v4.32ZM77.59 30.37c0-2.17-1.62-3.59-3.94-3.59h-2.36v7.23h2.36c2.32 0 3.94-1.5 3.94-3.64Zm-3.95 2.3h-.88v-4.55h.88c1.46 0 2.43.83 2.43 2.25 0 1.39-.98 2.3-2.43 2.3ZM84.54 26.78h-1.48v7.23h1.48v-7.23ZM91.45 31.1l-4.2-4.45h-.48v7.36h1.48v-4.34l4.18 4.47h.49v-7.36h-1.47v4.32ZM99.84 31.1l-4.19-4.45h-.48v7.36h1.48v-4.34l4.18 4.47h.49v-7.36h-1.48v4.32ZM110.83 30.4c0-2.12-1.73-3.74-3.85-3.74s-3.83 1.62-3.83 3.74 1.71 3.74 3.83 3.74 3.85-1.62 3.85-3.74Zm-3.85 2.37c-1.35 0-2.32-.97-2.32-2.37 0-1.39.97-2.38 2.32-2.38 1.32 0 2.32.98 2.32 2.38s-.99 2.37-2.32 2.37ZM116.76 26.78l-1.79 4.38-1.81-4.38h-1.67l3.23 7.36h.49l3.22-7.36h-1.67ZM120.43 33.07h2.96l.41.94h1.59l-3.22-7.36h-.49l-3.23 7.36h1.59l.39-.94Zm1.48-3.66.96 2.44h-1.93l.97-2.44ZM131.42 26.78h-6.1v1.34h2.3v5.89h1.48v-5.89h2.32v-1.34ZM134.35 26.78h-1.48v7.23h1.48v-7.23ZM139.25 31.16l-1.81-4.38h-1.67l3.23 7.36h.49l3.22-7.36h-1.67l-1.79 4.38ZM145.64 30.84h2.48v-1.26h-2.48v-1.46h3.38v-1.34h-4.86v7.23h4.99v-1.34h-3.51v-1.83ZM157.02 26.78h-2.36v7.23h2.36c2.32 0 3.94-1.5 3.94-3.63 0-2.17-1.62-3.6-3.94-3.6Zm-.01 5.89h-.88v-4.55h.88c1.46 0 2.43.83 2.43 2.25 0 1.39-.97 2.3-2.43 2.3ZM164.27 30.84h2.48v-1.26h-2.48v-1.46h3.38v-1.34h-4.86v7.23h4.99v-1.34h-3.51v-1.83ZM172.45 31.16l-1.81-4.38h-1.67l3.23 7.36h.49l3.22-7.36h-1.67l-1.79 4.38ZM178.83 30.84h2.49v-1.26h-2.49v-1.46h3.39v-1.34h-4.86v7.23h4.99v-1.34h-3.52v-1.83ZM185.7 26.78h-1.47v7.23h4.64v-1.34h-3.17v-5.89ZM193.67 26.65c-2.12 0-3.83 1.62-3.83 3.74s1.71 3.74 3.83 3.74 3.85-1.62 3.85-3.74-1.73-3.74-3.85-3.74Zm.01 6.12c-1.35 0-2.32-.97-2.32-2.37 0-1.39.97-2.38 2.32-2.38 1.32 0 2.32.98 2.32 2.38s-1 2.37-2.32 2.37ZM202.07 26.78h-2.72v7.23h1.48v-2.55h1.24c1.52 0 2.61-.95 2.61-2.34-.01-1.42-1.09-2.34-2.61-2.34Zm0 3.38h-1.24v-2.08h1.24c.69 0 1.09.43 1.09 1.03 0 .63-.4 1.05-1.09 1.05ZM209.81 30.56l-3.05-3.91h-.48v7.36h1.47v-3.86l1.82 2.28h.48l1.82-2.28v3.86h1.48v-7.36h-.48l-3.06 3.91ZM217.08 30.84h2.49v-1.26h-2.49v-1.46h3.39v-1.34h-4.86v7.23h4.99v-1.34h-3.52v-1.83ZM227.15 31.1l-4.19-4.45h-.49v7.36h1.48v-4.34l4.18 4.47h.5v-7.36h-1.48v4.32ZM230.07 26.78v1.34h2.31v5.89h1.48v-5.89h2.32v-1.34h-6.11ZM58.6 39.79c-2.12 0-3.83 1.62-3.83 3.74s1.71 3.74 3.83 3.74 3.85-1.62 3.85-3.74-1.73-3.74-3.85-3.74Zm.01 6.12c-1.35 0-2.32-.97-2.32-2.37 0-1.39.97-2.38 2.32-2.38 1.32 0 2.32.98 2.32 2.38s-1 2.37-2.32 2.37ZM64.28 47.15h1.48V44.4h2.68v-1.34h-2.68v-1.8h3.27v-1.34h-4.75v7.23ZM77.9 43.7l-3.05-3.91h-.48v7.36h1.47v-3.86l1.82 2.28h.48l1.82-2.28v3.86h1.48v-7.36h-.48L77.9 43.7ZM87.1 39.79c-2.12 0-3.83 1.62-3.83 3.74s1.71 3.74 3.83 3.74 3.85-1.62 3.85-3.74-1.73-3.74-3.85-3.74Zm.01 6.12c-1.35 0-2.32-.97-2.32-2.37 0-1.39.97-2.38 2.32-2.38 1.32 0 2.32.98 2.32 2.38s-.99 2.37-2.32 2.37ZM95.65 43l-.82-.36c-.53-.24-.84-.42-.84-.83 0-.48.42-.7.9-.7.59 0 1.03.31 1.38.83l1.01-.78c-.43-.79-1.24-1.37-2.39-1.37-1.36 0-2.4.8-2.4 2.05 0 1.02.72 1.61 1.75 2.08l.78.35c.57.26.92.43.92.9 0 .5-.39.8-1.03.8-.86 0-1.38-.5-1.77-1.05l-1.02.77c.54.96 1.54 1.6 2.79 1.6 1.43 0 2.53-.82 2.53-2.17 0-1.04-.65-1.62-1.79-2.12ZM102.62 41.16c.91 0 1.59.45 2.07 1.22l1.12-.79c-.63-1.11-1.8-1.8-3.19-1.8-2.16 0-3.85 1.62-3.85 3.74s1.7 3.74 3.84 3.74c1.4 0 2.57-.69 3.2-1.8l-1.12-.79c-.48.77-1.16 1.22-2.07 1.22-1.35 0-2.33-.97-2.33-2.36 0-1.4.98-2.38 2.33-2.38ZM110.84 39.79c-2.12 0-3.83 1.62-3.83 3.74s1.71 3.74 3.83 3.74 3.85-1.62 3.85-3.74-1.73-3.74-3.85-3.74Zm.01 6.12c-1.35 0-2.32-.97-2.32-2.37 0-1.39.97-2.38 2.32-2.38 1.32 0 2.32.98 2.32 2.38s-1 2.37-2.32 2.37ZM123.02 44.17l-1.89-4.38h-.5l-1.89 4.4-1.61-4.27h-1.64l2.89 7.36h.48l2.02-4.53 2.02 4.53h.48l2.89-7.36h-1.64l-1.61 4.25ZM135.04 41.16c.91 0 1.59.45 2.07 1.22l1.12-.79c-.63-1.11-1.8-1.8-3.19-1.8-2.16 0-3.85 1.62-3.85 3.74s1.7 3.74 3.84 3.74c1.4 0 2.57-.69 3.2-1.8l-1.12-.79c-.48.77-1.16 1.22-2.07 1.22-1.35 0-2.33-.97-2.33-2.36 0-1.4.99-2.38 2.33-2.38ZM141.46 39.92h-1.48v7.23h1.48v-7.23ZM142.89 41.26h2.31v5.89h1.47v-5.89h2.32v-1.34h-6.1v1.34ZM153.36 42.79l-1.6-2.87h-1.64l2.5 4.39v2.84h1.48V44.3l2.48-4.38h-1.63l-1.59 2.87Z" fill="#fff"/></svg>