<svg width="150" height="37" fill="none" xmlns="http://www.w3.org/2000/svg"><path d="M30.546 28.193c0 2.95-1.889 5.034-5.554 5.034h-3.425c-2.633 0-4.32.911-5.554 2.137-1.234-1.234-2.938-2.137-5.554-2.137H7.034c-3.668 0-5.572-2.082-5.572-5.034V.823h29.084v27.37ZM.925.283v27.91l.014.29.013.29.028.29.041.29.056.276.07.261.082.276.083.247.11.263.124.233.123.248.138.22.165.223.166.22.18.193.19.191.194.18.22.178.222.153.235.164.249.123.263.138.274.111.275.111.29.083.305.082.304.082.317.056.331.041.346.027.343.012.36.015h3.639l.234.014h.218l.223.029.205.012.192.027.205.026.192.042.193.04.179.042.179.041.18.056.165.055.165.056.167.055.164.07.152.07.153.07.152.07.138.082.137.083.138.082.138.084.124.082.135.097.126.097.123.096.111.095.124.097.11.096.124.111.484.484.481-.483.125-.112.111-.096.124-.097.111-.095.123-.096.124-.097.123-.097.138-.082.138-.084.138-.082.138-.083.137-.082.153-.07.152-.07.152-.07.165-.07.152-.055.166-.056.18-.055.18-.056.18-.041.178-.041.194-.041.193-.041.191-.027.206-.027.206-.012.22-.03h.22l.222-.014h3.666l.36-.014.343-.012.346-.027.33-.041.318-.056.304-.082.305-.082.29-.083.273-.11.276-.112.249-.138.247-.123.246-.164.223-.153.222-.179.205-.179.18-.19.178-.194.18-.22.154-.223.137-.22.124-.248.123-.233.097-.263.096-.247.083-.276.07-.261.055-.276.04-.29.028-.29.012-.29.015-.29V.283H.925Z" fill="#fff"/><path d="M20.133 10.997c-.04-.152-.537-.593-.8-1.029-.263-.436-.306-.722-.399-.839.056.617.525 1.325 1.2 1.862M21.748 8.49a2.177 2.177 0 0 1-.014-.51.154.154 0 0 0-.027-.124c-.029-.015-.029.193-.041.288a.438.438 0 0 0 .029.263c.04.097.055.111.055.082M21.953 8.654a3.876 3.876 0 0 1-.055-.648.146.146 0 0 0-.041-.152 3.298 3.298 0 0 0-.03.358.6.6 0 0 0 .056.345c.041.111.07.136.07.097ZM22.176 8.833a4.346 4.346 0 0 1-.083-.823c.015-.111-.014-.152-.055-.18a3.15 3.15 0 0 0-.012.456.727.727 0 0 0 .07.41c.053.139.082.165.082.124M20.892 7.11c-.041-.18-.055-.359-.097-.388a.978.978 0 0 0 .22.842 2.362 2.362 0 0 0-.123-.455ZM20.534 8.282c-.014-.07-.179-.276-.29-.496a3.427 3.427 0 0 0-.205-.411 1.187 1.187 0 0 0 .497.91M20.438 14.734c.012.097.288.332.455.617.166.286.164.344.234.4-.029-.4-.249-.69-.689-1.029" fill="#fff"/><path d="M20.148 10.598c-.027-.138-.484-.552-.73-.965-.248-.414-.276-.66-.373-.76.055.567.483 1.235 1.104 1.725M20.411 8.654c0-.082-.222-.331-.358-.58a5.192 5.192 0 0 0-.22-.484 1.51 1.51 0 0 0 .578 1.064ZM20.45 7.523c-.083-.192-.124-.344-.18-.373a.985.985 0 0 0 .385.774 3.8 3.8 0 0 0-.206-.412M20.699 7.278c-.056-.152-.111-.304-.152-.317a.747.747 0 0 0 .29.648 3.2 3.2 0 0 0-.138-.331ZM20.493 14.389c.015.07.25.304.385.539.07.141.148.279.234.411a1.441 1.441 0 0 0-.617-.952M21.004 14.271a.617.617 0 0 0-.331-.475c.014.041.123.152.206.276.037.07.08.14.125.206" fill="#fff"/><path d="M19.183 8.61c.04.51.411 1.132.991 1.587-.027-.124-.442-.496-.648-.883-.206-.387-.263-.617-.343-.703ZM20.133 11.412c-.055-.166-.592-.648-.882-1.131-.29-.483-.317-.759-.412-.868.056.648.564 1.421 1.296 2M19.47 8.088c.015.426.318.953.787 1.323-.015-.097-.332-.411-.496-.73-.165-.32-.222-.525-.29-.593ZM19.644 7.842a1.645 1.645 0 0 0 .689 1.184c-.015-.082-.276-.37-.428-.648a4.904 4.904 0 0 0-.261-.536ZM19.32 8.351c.027.47.358 1.029.895 1.46-.027-.108-.385-.468-.578-.822-.193-.354-.247-.58-.317-.648" fill="#fff"/><path d="M18.726 9.674c.097.69.675 1.572 1.44 2.193-.054-.179-.69-.745-.992-1.255-.302-.51-.343-.798-.454-.936M17.762 19.521v-.263l-.124.026.056.25c.029 0 .04-.013.07-.013M17.57 19.575v-.276l-.07.027.04.249h.03ZM17.9 19.449v-.218l-.056.012.014.235c.014-.015.027-.015.041-.027M16.066 6.35c.041.029.03.07-.012.097a.282.282 0 0 1-.152 0c-.041-.041-.015-.068-.056-.097a.206.206 0 0 1 .22 0Zm-.372.123c.13.034.266.048.401.042.206-.124.191-.206-.029-.262a.91.91 0 0 0-.384 0c.096.126.055.153.012.22ZM20.575 14.086c.015.056.194.235.305.412.053.109.113.215.179.317a1 1 0 0 0-.484-.73" fill="#fff"/><path d="M28.793 19.739a.254.254 0 0 1-.222-.097c-.097-.11-.124-.179-.111-.26l.07-.318c.014-.082.04-.068.082 0 .128.143.21.32.235.51.026.097.012.153-.056.165h.002Zm-.125.428c-.068 0-.124-.07-.194-.097l.111.152c.054.083-.055.124-.152.041l-.302-.232c-.083-.125-.054-.261.098-.442.04-.041.08-.056.124-.015l.234.153c.04.026.04.055.015.082-.07.07-.041.111.068.222.07.054.055.138 0 .138l-.003-.002Zm-.315-1.874c-.138-.165-.111-.261.07-.247-.165-.263.014-.317.18-.043.088.21.112.44.069.662-.015.082-.111.11-.138 0-.04-.133-.1-.26-.18-.374l-.001.002Zm-1.51-2.413a.206.206 0 0 0-.276-.041c0 .123-.026.152-.096.056a.253.253 0 0 1 0-.346.22.22 0 0 1 .304-.041c.082.04.111.096.111.138l-.166.055.205.056c.11.096.013.275-.082.123Zm-.856.965c-.22.275-.372.331-.44.138l-.07.357c-.053.167-.096.194-.123.07a2.76 2.76 0 0 1 .164-.8c.041-.123.097-.136.167-.068.247-.399.191-.179.082.124l.068.041c.302-.566.179-.111.152.138Zm-.8.152-.027.592c-.055.083-.096.235-.152 0l.082-.538-.096.193c-.082 0-.097-.082-.111-.249-.015-.167 0-.261.11-.22l.07.179.056-.126c.097-.053.111 0 .07.167l-.002.002Zm.265 1.54a.356.356 0 0 1 .32.182c.076.121.174.228.287.316-.317-.497-.33-.705-.055-.524a.736.736 0 0 1 .343.771c.07.194.041.237-.317 0-.137-.082-.152-.123 0-.193l-.425-.33c.372.579.096.427-.18.028.206.454.054.29-.22.07h-.07c.484.386.083.29-.234.055l-.055.027c.843.592-.041.277-.412.043.264.235.566.4.498.411-.191.056-.551-.11-.965-.288.33.206.617.332.44.385-.067.041-.384-.111-.938-.331-.137-.027-.178-.012-.123.043.481.18.76.33.704.4-.056.07-.457-.083-.98-.344-.152-.07-.33-.138-.51-.237.305.317 1.504.747 1.257.868-.096.041-.304-.041-.566-.179a11.397 11.397 0 0 1-.993-.633c-.29-.235-.551-.467-.757-.648l-.014.07c.715.785 2.096 1.489 1.668 1.46-.167 0-.111.015-.25-.055-.978-.49-1.64-1.282-2.11-1.93l-.026.027c.592.925 1.697 1.682 1.586 1.78-.111.096-.8-.484-1.235-.966a7.275 7.275 0 0 1-.718-.94l-.012.111c.924 1.56 2.123 1.852 1.874 2.041-.07.053-.111-.014-.179-.056-1.102-.662-1.405-1.44-1.985-2.137l-.027.054c.385.617 1.029 1.312 1.56 1.944.068.084.012.164-.056.123-.592-.387-1.13-1.234-1.736-2.15l-.014.056c.512.98 1.627 2.15 1.297 2.067a4.44 4.44 0 0 1-.577-.72c-.18-.263-.4-.58-.566-.785l-.027.094c.274.428.69.897.823 1.284l-.041.014-.887-1.177-.055.054c.372.469.822 1.008.759 1.131l-.786-.91c.041.275.304.51.22.58a2.51 2.51 0 0 1-.399-.593c-.056-.097 0 .152-.07.07a14.758 14.758 0 0 1-1.53-2.096c-.083-.138-.056-.153.096-.056l1.099 1.156c-.704-.771-1.185-1.38-1.076-1.477.372.458.777.887 1.214 1.284-.883-1.006-1.27-1.49-1.159-1.475.233.138.786.8 1.235 1.296-.617-.854-1.393-1.557-1.393-1.695 0-.07.165-.07.22 0 .4.518.834 1.01 1.296 1.475-.343-.537-1.234-1.393-1.2-1.475.036-.082.139-.07.276 0 .304.452.66.866 1.062 1.234-.303-.428-1.006-1.146-.936-1.234a.13.13 0 0 1 .179.014c.138.22.304.387.483.634.144.167.3.324.465.469l-.843-1.09c.027-.027.055-.042.082-.027a.152.152 0 0 1 .126.041c.234.366.51.703.822 1.006l-.689-.994c.015-.082.25-.04.305 0l.592.856c-.249-.592-.617-.882-.426-.868.192.014.288.175.443.38.096.138.205.235.275.332l-.384-.634c0-.055.137-.027.263.041l.257.294-.125-.238c.014-.082.11-.041.178 0l.235.372.041-.027c-.14-.234-.234-.345-.167-.372l.206.027.196.205c-.054-.248.179-.193.565-.055.25.082.484.372.704.823-.056.026-.152-.097-.264-.235a1.722 1.722 0 0 0-.164-.179c.276.47.551.924.594 1.158-.082.07-.386-.454-.73-1.061.18.481.412.911.482 1.102-.042.015-.167-.22-.346-.51a2.817 2.817 0 0 1-.179-.22l.442.883a.189.189 0 0 1 .082.261c-.082.15-.028.206.138.343.31.146.658.185.992.112a16.22 16.22 0 0 1 1.89-.223l.01.01Zm-3.58 4.004.081-.056.14.551-.411-.232.019-.099c-4.919-6.701-9.097-12.383-11.855-16.27-.039-.206.014-.29.206-.22 3.626 4.796 8.028 11.029 11.82 16.326Zm.275 1.199c.055.164.179.411-.18.068-.22-.111-.246 0-.069.345l.372.537c.022.244.135.47.317.634l.305.617c.012.095.04.188.082.276.04.232.096.357.29.384-.18.395-.478.724-.854.94-.823.442-1.462.261-1.392-.823.04-.58.152-1.061.166-1.645.233-.924.012-1.395-.786-1.44-.411.014-.732.014-.964.179-.233.164-.537.096-.965-.152-.823-.617-1.44-.953-1.862-.953.4.457.51.912.194 1.366.33.152.317.302-.015.455a8.963 8.963 0 0 1-2.633-.4c-.304-.055-.36 0-.152.165.69.276 1.062.69 1.062 1.267a7.503 7.503 0 0 0-1.029.083.413.413 0 0 1-.592-.124c-.498-.51-.552-.965.012-1.351.319-.22.786-.73 1.366-1.502.387-.029.73-.111 1.117-.165 1.545-.193 3.007-.524 4.18-1.172a.37.37 0 0 1 .481.136l.911 1.201-.263.097.691.524c-.125.097-.043.165.11.22-.083.124-.03.25.096.237l.004-.004Zm.051-.506a.093.093 0 0 1 .083.094.09.09 0 0 1-.083.085.091.091 0 0 1-.096-.052.092.092 0 0 1 .024-.106.09.09 0 0 1 .072-.021Zm.068-.885c.07-.068.152-.109.18-.082.026.027-.015.097-.083.181-.068.084-.152.123-.18.097-.026-.027.015-.111.083-.194v-.002Zm.124.5c-.041.027-.056.124-.056.358a.637.637 0 0 1-.055-.469c.096-.249.193-.317.275-.317.167.18-.11.29-.164.428Zm-.111.897c-.056-.014-.07-.084-.03-.152.042-.068.083-.111.126-.082.043.028.068.082.027.152-.041.07-.082.11-.123.084v-.002Zm.316.235a.221.221 0 0 1-.205.096.119.119 0 0 1-.041-.179.206.206 0 0 1 .222-.096c.07.026.08.096.026.178h-.002Zm.126.275a.15.15 0 0 1-.181-.041c-.027-.041-.013-.095.055-.123a.164.164 0 0 1 .18.028c.04.054.014.111-.056.136h.002Zm-.058-1.405c.124-.14.18-.014.317.041l-.167.083.18.055-.165.082.302.15-.193.056.249.15-.223.056c.223.07.36.123.344.193l-.232.054c.096.04.288.055.302.14.014.084-.152.026-.22.04l.206.139h-.192l.138.07c-.012.123-.068.19-.152.205-.22-.027-.041-.164-.194-.358-.41-.565-.384-1.028-.302-1.158l.002.002Zm1.1 1.438c.03-.043.03-.111-.04-.123-.07-.013-.112-.015-.153-.083-.055-.164.03-.248.165-.29.11 0 .152.041.123.111l-.068.054c.098.02.185.074.247.152-.068 0-.11.015-.123.07.234-.041.222.331.014.261-.138-.04-.206.015-.138.25.054.275.247.343.235.055-.029-.138.44-.167.496.136l-.18-.07c.04.22.22.123.247.316l-.152.015c.17.11.304.268.385.454-.191-.026-.206-.232-.385-.232.235.317.51.247.648.564a1.293 1.293 0 0 1-.689-.412c.235.331.385.617.331.745-.345-.152-.411-.663-.55-.823 0 .261.192.411.123.703-.138-.164-.206-.427-.206-.84.138.026.193-.07.193-.305s-.152-.235-.123 0c0 .18-.126.234-.498.014-.053.056.029.123.234.249l-.014.206.111-.181.041.58c-.012.152-.053.123-.094-.027l-.042-.29c0 .206-.026.304-.096.29l-.047-.541-.153.193-.04-.304-.139.111v-.372c-.096.055-.205.014-.316-.152a.436.436 0 0 0 .372-.056c-.07-.276.055-.412.29-.44l-.008.012Zm-.97 4.26c-.029.084-.082.138-.111.126-.03-.013 0-.085.026-.167.027-.082.083-.138.112-.123.028.014 0 .082-.027.164Zm-.22 0c-.07.111-.14.206-.181.194-.041-.013-.03-.126.04-.25.07-.123.14-.205.182-.193.04.012.012.124-.041.247v.002Zm.08 2.094c.111.029.099.167.099.261-.07-.067-.138-.152-.206-.067-.191-.15-.261-.07-.4-.027a.376.376 0 0 1 .511-.167h-.004Zm-.541-2.326c-.041.096-.097.164-.123.152-.027-.013-.015-.097.028-.194.044-.096.097-.178.124-.164.026.014.014.097-.027.206h-.002Zm-.646 2.096c-.027.07-.111.055-.263-.041-.22-.138-.165-.276.07-.4.082.237.467.385.19.443l.003-.002Zm-.058.607a.076.076 0 0 1-.082-.068.08.08 0 0 1 .082-.083c.056 0 .097.027.097.083 0 .055-.041.068-.097.068Zm-.275 0c-.013 0-.041-.027-.054-.083-.012-.055-.014-.082.013-.096.026-.015.04.026.055.082.015.055.015.082-.014.095v.002Zm-.124.094c-.028.012-.07-.027-.096-.11-.027-.085-.013-.139.014-.139s.07.041.097.111c.026.07.014.138-.013.138h-.002Zm-.061-1.826c.07-.083.152-.124.179-.095.026.029.014.109-.054.191s-.14.126-.166.097c-.027-.029-.013-.111.04-.193Zm-.097-.235c-.029-.014-.014-.095.041-.165a.205.205 0 0 1 .054-.055c-.015-.014-.015-.027-.027-.027-.056.068-.126.095-.152.082-.027-.012-.015-.096.04-.166a.029.029 0 0 1 .027-.027c-.026-.027-.026-.043-.04-.055-.042.026-.069.04-.095.026-.027-.014 0-.07.04-.125-.028-.054-.04-.111 0-.136.083-.07.124.027.207.206.028.07 0 .11.04.152.042.041.112.082.139.123a.343.343 0 0 1 .07.29c-.027.015-.013-.014-.07-.125-.013.014-.027.027-.027.041-.056.056-.111.097-.124.07-.012-.027-.012-.082.03-.136l.053-.055c-.013-.015-.013-.029-.027-.043-.015-.015-.015.028-.027.043-.055.068-.123.109-.152.082Zm-.331-5.075a.79.79 0 0 1 .469.51c.014.138 0 .206-.097.097a1.528 1.528 0 0 0-.372-.617v.01Zm.343.873c0 .152-.07.248-.11.11-.054-.19-.153-.592-.344-.785a.743.743 0 0 1 .454.677v-.002Zm-.22.4c-.138-.19-.18-.48-.343-.688a.798.798 0 0 1 .44.58c.029.152-.014.234-.097.11v-.001Zm-.07.307c-.11-.125-.164-.33-.302-.456.179.096.261.11.358.372.026.097.014.165-.056.084Zm-.08.385c-.029-.111-.14-.22-.165-.331-.014-.07.027-.054.083 0a.336.336 0 0 1 .082.33Zm-1.861-1.958c.014-.015.067 0 .137.04.07.042.097.085.083.097-.015.013-.07.015-.138-.026-.068-.041-.099-.097-.082-.111Zm-1.187-.856c.343.084.703.372 1.061.677.055.094.029.123-.053.082-.25-.082-.618-.496-1.008-.76Zm1.13 2.606c.03-.206.015-.399.042-.387.027.013.111.206.082.4-.029.193-.096.372-.138.357-.04-.014-.012-.179.015-.372v.002Zm-.33.054c.026-.165.082-.29.11-.29.03 0 .042.135.015.304-.027.169-.07.29-.11.29-.042 0-.042-.138-.015-.304Zm-.305.026c.013-.164.041-.304.083-.304.04 0 .055.138.04.317-.014.179-.055.29-.096.29s-.041-.138-.029-.305l.002.002Zm-.222.04c0-.15.029-.276.056-.276.026 0 .053.125.053.275 0 .15-.027.278-.053.278-.027 0-.056-.123-.056-.278Zm.745 2.69a.668.668 0 0 1 .082.206l-.041.04c-.012-.084-.027-.164-.041-.248v.002Zm1.645-.761a5.622 5.622 0 0 1-.853 1.38c0 .014-.03.027-.03.041a.238.238 0 0 0-.04.056c.014-.027.029-.041.04-.068a5.984 5.984 0 0 0-.04-.206.398.398 0 0 1 .07.153l.121-.206c-.012-.07-.027-.136-.041-.22.029.055.055.096.082.152.027-.056.07-.11.097-.165-.027-.07-.041-.152-.07-.234a.98.98 0 0 1 .097.164c.041-.066.078-.134.11-.205-.014-.07-.04-.136-.055-.206.03.043.058.089.082.136.035-.1.062-.201.083-.305l-1.42.883c.12-.105.251-.206.373-.307a11.07 11.07 0 0 1-.041-.259c.038.07.07.144.096.22.03-.027.07-.055.097-.082-.012-.111-.027-.22-.041-.331.047.087.084.18.11.275.042-.028.085-.07.124-.096-.014-.136-.029-.288-.055-.44.064.116.11.241.138.372a.648.648 0 0 1 .11-.097 9.958 9.958 0 0 0-.07-.617c.093.16.15.338.165.523.027-.027.056-.042.083-.068a5.874 5.874 0 0 0-.083-.677c.102.178.168.374.194.578 0-.012.029-.027.04-.041a6.101 6.101 0 0 0-.081-.8c.126.207.188.446.178.689.027-.027.054-.056.083-.083a4.04 4.04 0 0 0-.276-1.131c-.055.193-.055.261-.111.247.029-.22.014-.317-.027-.344a.971.971 0 0 1-.193.593l.055-.496h-.082c-.07.358-.082.469-.22.592.033-.139.042-.283.027-.425a.39.39 0 0 1-.097.026v.042a.7.7 0 0 1-.152.536c-.014-.193.07-.372.07-.565-.041.014-.07.029-.111.04v.217a1.392 1.392 0 0 1-.111.302c.04-.157.048-.32.026-.481-.026.014-.067.014-.096.027v.055c-.012.041-.013.082-.041.082-.03 0-.027-.026-.027-.07 0-.043-.012-.04-.027-.053a.161.161 0 0 0-.07.012v.015c.013.04.013.068 0 .082-.014 0-.04-.041-.07-.082a.526.526 0 0 0-.068.014c.013.07.013.097-.04.124-.054.026-.07-.041-.083-.111-.041.014-.082.014-.123.028.014.056 0 .097-.015.097-.014 0-.039-.027-.07-.082h-.109c.013.055.013.082 0 .096-.012.015-.04-.026-.07-.082l-.012.014c0-.014 0-.014.012-.014.013 0-.012-.041-.026-.07-.042-.082-.056-.164-.042-.179.015-.014.068.04.111.136.016.03.026.063.03.097a.253.253 0 0 1 .096-.027c0-.027 0-.041-.012-.056-.03-.11-.03-.205 0-.22.028-.014.068.072.094.181a.522.522 0 0 1 .015.07c.04-.014.07-.029.11-.04a.62.62 0 0 1-.012-.137c0-.055 0-.084.013-.084.012 0 .082.084.11.193.03-.014.042-.014.07-.028-.012-.013-.012-.013-.012-.027a.41.41 0 0 1-.026-.165c-.015-.04-.015-.055 0-.07.014-.014.082.097.109.194a.05.05 0 0 0 .014.04.719.719 0 0 1 .07-.026v-.228c0-.056.014-.082.029-.082.014 0 .029.026.039.07.01.043.029.123.041.193a.205.205 0 0 0 .082-.027v-.111c.013-.041.013-.07.027-.07s.041.07.056.138l.11-.041v-.152c0-.042.015-.085.027-.085.013 0 .03.014.03.056a.43.43 0 0 1 .026.137c.029-.014.055-.014.082-.04 0-.085.013-.165.013-.22 0-.056.028-.097.04-.097.013 0 .03.014.03.07a.97.97 0 0 1 .012.205.194.194 0 0 1 .082-.026c.128-.45.203-.914.222-1.38-.028-.056-.053-.097-.082-.153-.027.525-.07.965-.232 1.255a3.454 3.454 0 0 0-.015-1.405h-.041c.014.566.014 1.028-.138 1.351.068-.495.02-1-.138-1.475a.182.182 0 0 0-.082-.028c.123.11.097.55.041.617-.082-.261-.012-.346-.247-.523h-.07a.618.618 0 0 1 .111.51 1.63 1.63 0 0 0-.29-.442h-.13c.18.206.18.249.153.412-.07-.18-.343-.305-.456-.387-.056 0-.07.014-.124.014.138.068.331.317.261.4-.096-.112-.304-.223-.384-.375-.056 0-.027.027-.083.027.03.082 0 .137.015.234a.52.52 0 0 1-.344-.206c-.029 0-.082-.014-.082 0 0 .015.07.14.082.18-.029-.042-.319-.194-.345-.235-.027-.041.053-.015-.111-.027.014.041.11.261.125.303a6.185 6.185 0 0 0-.263-.29c-.07-.013-.126-.013-.196-.027l-.123-.206a8.532 8.532 0 0 0 2.14-.14l.77-.15c.264-.084.443.053.498.455l.041.44a.893.893 0 0 1 .068.923c.075.295.245.557.484.745.22.206.247.498-.015.911v-.014Zm-1.806-.537c.041-.111.056-.152.097-.152s.041.053.041.179c0 .125 0 .234-.097.22-.096-.014-.07-.126-.04-.249v.002Zm-.137-.058c.012-.043.026-.07.039-.07.012 0 .014.027.028.07h-.067Zm.012.373c-.056-.015-.056-.124-.027-.25h.082c0 .153 0 .264-.055.25Zm-.165.026c-.082-.014-.07-.096-.04-.178.028-.083.04-.124.067-.124.027 0 .041.041.041.136s0 .166-.07.166h.002Zm-.183 0c-.053-.014-.04-.082-.027-.152h.083c0 .082 0 .152-.056.152Zm-.29-1.462c-.039 0-.053-.097-.053-.235 0-.137.014-.234.053-.234.04 0 .056.111.056.235 0 .123-.03.234-.056.234Zm-.053 1.006c-.056.027-.041-.027-.07-.111a.277.277 0 0 1-.015-.18c.027 0 .068.07.097.153.029.082.027.123-.014.138h.002Zm-.181-1.006c-.03 0-.07-.123-.07-.276 0-.152.027-.275.07-.275.043 0 .068.123.068.275 0 .152-.03.276-.068.276Zm-.07.924c-.027-.07-.041-.138-.027-.138.014 0 .041.04.068.096a.41.41 0 0 1 .029.136c-.013.015-.056-.041-.07-.094Zm-.097-.965c-.029.014-.084-.082-.111-.206-.027-.123-.041-.236-.014-.236.026 0 .082.084.123.205.041.122.027.235 0 .235l.002.002Zm-.222.024c-.099.015-.07-.04-.099-.164-.029-.123-.012-.249.015-.249.026 0 .11.123.123.237.012.113.041.164-.04.179v-.002Zm-.263-.024c-.03 0-.083-.097-.097-.206-.014-.109-.029-.22 0-.22s.082.082.111.193c.029.111.014.22-.012.235l-.002-.002Zm-.218-.054c-.03.015-.07-.055-.111-.166-.042-.111-.042-.192-.015-.206a.37.37 0 0 1 .111.179c.029.097.041.193.015.193Zm-.305.015c-.053.014-.039-.027-.053-.124-.015-.096-.015-.179 0-.179.014 0 .08.083.096.18.017.096.027.123-.04.123h-.003Zm-.19-1.273-.096-.165a.315.315 0 0 1 .111.014l.111.18a.381.381 0 0 1-.125-.027v-.002Zm-.013 1.27c-.027 0-.054-.04-.083-.11-.029-.07-.04-.136-.012-.136.029 0 .055.041.07.109.014.068.039.123.027.138h-.002Zm-.288-1.35c-.027-.056-.11-.042-.18-.069-.07-.026-.04-.043-.166-.07l.372.044.083.137-.013-.014c-.04 0 .124.442-.096-.027v-.002Zm.043 1.367a.204.204 0 0 1-.082-.138c-.015-.07 0-.11.026-.11.044.04.073.093.083.151.012.07 0 .111-.027.097Zm-.264 4.462c.083-.041.165-.041.18 0 .014.04-.042.096-.126.123-.084.027-.165.029-.179 0-.014-.029.041-.094.125-.123Zm.426.138c.029.043-.053.123-.164.166-.111.043-.223.041-.235-.014-.012-.056.056-.11.167-.167.11-.057.22-.041.232.015Zm-.703-.29c-.013-.027.028-.07.096-.097a.148.148 0 0 1 .138 0c.015.041-.027.082-.096.096-.07.015-.124.03-.138 0Zm-.229-4.374c-.44.412-.771.84-.822 1.255-.153-.206.164-.73.66-1.38a4.71 4.71 0 0 0-.841.884c.11-.311.273-.6.483-.855-.537.399-.91.993-.854 2.096-.205-.663-.07-1.296.358-1.917l-.592.617.537-.823-.332.111.03-.123-.206.096v-.14l-.274.22.054-.232c-.097-.055-.165.027-.25.136-.082-.278.223-.372.537-.235.305.114.637.133.953.056.2-.04.405-.044.607-.015.205.112.193.206-.041.25h-.007Zm-.366.69c-.04.072-.096.11-.11.096-.015-.014 0-.082.04-.138a.191.191 0 0 1 .111-.096c.027.026 0 .082-.04.135v.003Zm-.123.343c-.04.082-.082.136-.111.123-.029-.012-.013-.082.014-.152.027-.07.082-.138.111-.123.015.05.01.105-.014.152Zm-.194 3.007-.302-.26c-.082-.168-.014-.291.138-.412a.397.397 0 0 0 .125.275.244.244 0 0 1 .102.295.242.242 0 0 1-.063.092v.01Zm-.055 1.257c-.068 0-.138-.014-.138-.041 0-.027.041-.053.111-.053s.138.026.138.053-.041.041-.111.041Zm-.29-.136c-.014-.014.056-.055.138-.07.082-.014.166-.026.179 0 .012.027-.041.056-.124.083-.082.026-.18.014-.193-.015v.002Zm-.22-.084c-.029-.027.053-.082.193-.111.14-.029.25-.041.276-.014.027.026-.07.082-.193.11-.124.03-.25.042-.276.015Zm.07-3.338c0-.095.027-.165.053-.165.027 0 .056.07.056.165 0 .094-.027.178-.056.178s-.053-.082-.053-.178Zm.012 3.116c.111-.027.235-.041.249-.014.014.026-.055.067-.165.11a.36.36 0 0 1-.248 0c-.015-.026.055-.07.164-.096Zm-.29-.29c-.012-.027.041-.056.111-.056s.138.027.138.056-.041.041-.111.041-.138-.014-.138-.041Zm-.358-3.075a.822.822 0 0 0 .193.442c.027.097-.026.152-.07.111a.712.712 0 0 1-.123-.551v-.002Zm.138 1.904a.271.271 0 0 1-.11-.275c.03-.056.098-.056.11.014.008.063.037.12.082.165.056.04.029.152-.082.096Zm-.317-.07a.29.29 0 0 1 .015-.343c.055-.07.123-.029.11.055a.283.283 0 0 0 .027.235c.027.068-.055.179-.152.053Zm-.23-5.607c-.056-.055.039-.111.068-.084l.164.152c.041.041-.053.111-.096.082l-.136-.15Zm.95-.882c-.055-.056.014-.138.07-.097l.222.193c.054.056-.04.153-.082.111l-.21-.207Zm-.234.082a.069.069 0 0 1-.025-.072.067.067 0 0 1 .031-.041.066.066 0 0 1 .052-.008.069.069 0 0 1 .024.012l.261.22c.07.07-.041.165-.096.123l-.247-.234Zm-.18.14c-.082-.085.03-.194.097-.126l.305.262c.082.07-.041.193-.111.137l-.29-.273Zm-.26.22c-.056-.07.067-.165.137-.123l.25.248c.07.068-.098.18-.139.124l-.249-.25Zm-.017.46-.138-.137c-.027-.041.041-.097.07-.07l.138.14c.039.04-.041.094-.07.07v-.002Zm-.053-.26c-.056-.056.04-.124.082-.083l.164.165c.041.04-.068.11-.094.068l-.152-.15Zm-.153-2.745c.027-.096.126-.152.29-.164l1.852-.278c.096-.012.109.043.096.167a1.358 1.358 0 0 1-.138.483c-.07.054-.082-.18-.07-.539-.137.331-.082.677-.302.73-.097-.152.054-.442.082-.662-.205.194-.14.428-.318.677-.07.014-.054-.22-.015-.593-.055.213-.149.413-.275.593a1.08 1.08 0 0 1-.042-.51c-.08.358-.178.604-.26.648a2.137 2.137 0 0 1 .014-.595l-.042-.04c-.013.227-.078.449-.19.647a.782.782 0 0 1 .028-.634h-.082c-.056.18-.083.332-.167.387-.111-.014-.164-.14-.164-.345a1.269 1.269 0 0 1-.39.722 1.75 1.75 0 0 1 .097-.69l-.004-.004Zm-.201 5.106H12.5l-.07.164-.153.276.097-.304.041-.153a1.381 1.381 0 0 0-.179-.055l-.125.123-.206.235.167-.276.07-.11c-.03 0-.056-.013-.083-.013l-.125.123-.206.235.165-.262.07-.11h-.111l-.083.123-.193.249.138-.288.039-.07a1.279 1.279 0 0 0-.15.04l-.101.235.041-.22a.431.431 0 0 0-.276.262c0-.235.18-.373.525-.412.399-.053.88.027.745.206l.004.002Zm-1.239 2.633c-.026.014-.082-.029-.137-.111-.056-.083-.083-.15-.056-.165.027-.014.082.027.138.111.055.085.07.152.055.165Zm-.166.206c-.013.012-.056-.042-.097-.097-.041-.056-.041-.138-.014-.15.026-.013.055.04.096.11s.041.139.013.139l.002-.003Zm-.14.318c-.029 0-.082-.082-.111-.179-.029-.096-.041-.205-.012-.222.028-.016.096.07.123.181.027.111.041.206 0 .22Zm-.167-2.964c0 .015-.029.041-.082.056 0 .07.014.152.014.234l-.096-.205h-.054c-.002.11.002.22.013.33l-.138-.304a.123.123 0 0 1-.07.015c.014.152.014.317.014.483l-.191-.399v-.035c-.029.082-.041.179-.07.261l-.041-.275c-.041.11-.097.249-.138.386l-.014-.284v-.088h.028l.34-.206c.234-.11.524-.152.481.042l.004-.01Zm-.362 2.327c-.205-.083-.195-.262.056-.428.22.097.22.304-.056.428Zm.774-.3c.04.053.055.11.04.123a.207.207 0 0 1-.096-.082c-.029-.054-.055-.11-.029-.124.027-.014.056.027.083.082h.002Zm-2.195-2.08c-.082-.206-.317-.262-.718-.194a.987.987 0 0 0-.525-.26c.22-.824.73-1.256 1.572-1.393.841-.138 1.711-.595 2.69-1.05.412-.304.47-.166.165.426l-.469.54c-.249.275-.304.565.041.84.47.235.663.455.593.649a1.374 1.374 0 0 0-1.378.304c-.29-.082-.634-.041-1.117.193a1.058 1.058 0 0 0-.856-.055h.002Zm.773.228c-.012.082-.191.235-.384.372l.11-.248a.435.435 0 0 1 .083-.083h-.097c-.08.091-.173.17-.275.235l.082-.206c.014-.014.041-.027.056-.041a.555.555 0 0 1-.07-.015.882.882 0 0 1-.206.165l.055-.136c.097-.123.165-.11.317-.164.082-.041.375.026.331.123l-.002-.002Zm-.177 1.16-.22-.193.068.372-.164-.179-.042.331a.617.617 0 0 1 0-.58c.112-.29.247-.37.332-.358.096.111-.027.332.026.617v-.01ZM9.36 28.76c-.07-.015-.14-.041-.124-.056a.163.163 0 0 1 .138-.026c.068.016.138.04.138.07a.226.226 0 0 1-.152.014v-.002Zm-.235-.233c0-.026.082-.04.179-.026.097.014.167.053.167.082 0 .029-.083.041-.181.027-.1-.015-.165-.056-.165-.083Zm-.082-.22c0-.028.096-.04.22-.028.123.012.193.07.193.096 0 .027-.11.056-.22.027-.109-.029-.206-.053-.193-.095Zm-.233-2.248c-.014.082-.179.235-.386.346l.125-.235a.58.58 0 0 1 .097-.082h-.083c-.086.09-.183.169-.29.234l.097-.193c.015-.027.041-.041.054-.055-.04-.015-.08-.015-.138-.027l.249-.095a.373.373 0 0 1 .29.11l-.015-.003Zm-1.145.276.137-.29a.39.39 0 0 1 .305-.152c0 .096-.194.29-.442.442Zm3.41-4.657-.056.179-.055-.027.029-.152h.082Zm.498.51c0 .055-.124.07-.124-.013v-.166c0-.068.111-.068.111.014l.013.165Zm.193-.317v.179c0 .053-.11.097-.097 0l.015-.179c0-.07.068-.097.082 0Zm.206-.014c0 .055-.027.082-.07.082-.043 0-.07-.027-.07-.082a.072.072 0 0 1 .015-.057.07.07 0 0 1 .054-.025.07.07 0 0 1 .067.051c.003.01.004.02.002.03h.002Zm.232-.056c.013.056-.125.111-.125.014l-.027-.193c0-.068.111-.123.124-.012l.028.191Zm.138-.206a.064.064 0 0 1-.055.07c-.015 0-.041-.029-.041-.07 0-.04.026-.07.04-.07a.062.062 0 0 1 .055.046.062.062 0 0 1 .001.024Zm.194-.329-.027.247c0 .041-.126.07-.126.014l.027-.248c.014-.056.125-.083.125-.013Zm-5.406 4.46c-.087.32-.231.62-.426.888.191-.123.317-.384.469-.744.027-.111.152.027.111.249l-.111.096.014.165-.137.012v.223l-.124.055c.124.304-.029.496-.331.346-.097.37-.51.178-.302-.153.51-.822 1.005-1.645 1.102-2.772.029-.4.276-.58.593-.76.676-.37.909-1.005.896-1.723-.152-3.117.718-4.482 2.057-5.02l-.04.124c-1.2.73-1.698 2.137-1.71 4.054a8.379 8.379 0 0 0 0 1.337l.039-.096c.041-1.13.041-2.096.181-2.759a3.63 3.63 0 0 1 .617-1.489c.07-.115.15-.226.235-.331.11-.111.234-.138.329-.235l-.013.097a3.704 3.704 0 0 0-1.028 1.792 10.587 10.587 0 0 0-.138 2.923c-.008.133-.04.265-.097.386l.054-.026c.088-.185.13-.388.125-.593-.096-1.269 0-2.55.455-3.447.317-.617.51-.856 1.393-1.352l-.027.097c-.745.51-1.44 1.103-1.586 3.116l.04-.04c.139-1.531.69-2.662 1.71-3.086.358-.152.786-.126 1.255-.126l-.082.07a2.191 2.191 0 0 0-1.874.747l.082.027c.51-.523 1.103-.823 1.851-.648l-.055.11a1.757 1.757 0 0 0-1.378.427v.055c.467-.319.897-.469 1.31-.387.138.015.179.126.138.29l-.076.762c.009.705-.07 1.41-.235 2.096l-.068.055.068-1.27-.29 1.573c-.027.178-.152.152-.123-.015.07-.331.179-.786.249-1.27a.165.165 0 0 0-.14.153c-.08.677-.192 1.234-.344 1.422.097-.422.152-.852.165-1.284l-.082.07-.206 1.2c.154.081-.04.205-.095.055l.072-.659-.053-.014-.29 1.061.096-.73-.248.73h-.097l.123-.617-.411 1.13c-.124.026-.138-.015-.041-.206l.263-.771-.082.014c-.167.566-.29.965-.496 1.088l-.07.015c.2-.3.32-.647.344-1.006-.1.413-.299.796-.579 1.117-.04-.042.015-.165.18-.471l.152-.4c-.068-.082-.11-.055-.153.07-.064.29-.191.564-.372.8l.18-.676-.03-.082c-.088.358-.269.686-.524.952l.11.056c.373-.25.883-.165 1.408-.4.11-.055.222-.084.29-.026l-.111.257-.097-.152a.936.936 0 0 1-.249.48l-.04-.302c-.221.482-.373.745-.386.51l.042-.29a1.084 1.084 0 0 0-.317.593c-.082-.014-.097-.179-.07-.411l-.138.51c-.123.026-.152-.111-.082-.412a1.832 1.832 0 0 1-.25.496.52.52 0 0 1-.028-.399l-.138.261c0 .192-.055.262-.138.247.042-.288.042-.399-.014-.331l-.165.442c-.096.056-.123-.055-.11-.302-.153.082-.112.384-.22.51-.083-.056-.1-.193-.083-.346-.07.237-.138.373-.234.387l-.027-.456c-.03.175-.09.345-.177.501l-.124-.33-.055.33c-.097.056-.179-.026-.235-.234-.014.428-.055.786-.33.967.028.109-.097.399-.264.73l.442-.648c.097-.027.138.027.097.234l-.455.747c-.07.082-.152.054-.234 0l-.002-.01Zm.195 2.629c.317.26.261.372-.164.33a.303.303 0 0 1-.223-.33l-.137-.58c.179-.07.222.012.275.22.15.136.247.249.247.358l.002.002Zm.122.88c-.042.014-.097-.056-.112-.138-.014-.082.03-.164.068-.164.04 0 .1.055.111.136.013.08-.012.152-.067.164v.002Zm-.247.26a.342.342 0 0 1-.276-.124.44.44 0 0 1-.055-.54c.11-.15.234-.096.304.098h-.138c.165.082.261.178.261.29l-.205-.056c.152.111.222.206.222.29l-.165-.111.052.152Zm-.856-3.724.123-.07a.26.26 0 0 1 .153.015c-.015.04-.138.07-.276.055Zm.082-.387.305-.04c-.22.193-.44.33-.537.304a.393.393 0 0 1 .234-.268l-.002.004ZM6.36 25.2h.233c-.18.124-.372.206-.44.18a.253.253 0 0 1 .205-.18h.002Zm-.43-.275.124-.136a.233.233 0 0 1 .206-.029c-.015.056-.167.123-.332.165h.003Zm.097-.369a.312.312 0 0 1 .29-.014c-.043.084-.249.152-.483.179l.193-.165Zm-.04-.205a.304.304 0 0 1 .304-.013c-.027.07-.264.15-.51.192l.205-.18Zm-.04-.233a.279.279 0 0 1 .29-.04c-.029.082-.222.178-.469.232l.179-.192Zm.082-.386a.234.234 0 0 1 .206-.027c-.014.07-.167.138-.346.179l.14-.152Zm3.158-7.107.537-.09-.027.11-.51-.02Zm-2.502 6.218a.307.307 0 0 1 .276.068c-.055.07-.263.082-.512.043l.236-.111Zm.206-.179c-.012.041-.138.056-.261.056l.109-.07a.14.14 0 0 1 .152.014Zm-.164-.617.179-.043a.225.225 0 0 1 .193.096c-.041.044-.206.015-.372-.053Zm.04.193a.264.264 0 0 1 .25 0c-.042.07-.223.111-.428.138l.179-.138ZM8.6 20.8c.055.965.22 1.572-.344 2.15-.525.537-.924.469-1.008 1.09-.043.353-.13.698-.261 1.029-.401-.22-.44-.69-.138-1.42.813-1.503.634-2.8-.36-3.945.566-2.137 1.504-3.291 3.048-2.853-.617.677-1.028 1.876-.938 3.943v.006Zm-2.648-.829c-.027.068-.07-.055-.082.027.056-.597.2-1.183.428-1.738a5.07 5.07 0 0 1 1.145-1.668c.29-.276.537-.344.912-.593h-.066c-.27.077-.52.214-.73.4a5.386 5.386 0 0 0-1.255 1.645c-.3.608-.48 1.27-.525 1.946-.051.32-.179.622-.372.882-.22.276-.399.095-.703.91l-.07.026c.042-.184.111-.36.205-.524.095-.138.192-.206.317-.358.277-.33.454-.731.51-1.158.059-.452.15-.9.276-1.337.09-.309.234-.598.426-.856.483-.662.676-1.09 1.793-1.683l-.096.015c-.823.317-1.325.882-1.987 1.97-.51.823-.37 1.862-.772 2.635-.168.301-.375.578-.617.823l-.07.015c.097-.317.442-.566.617-.883a2.9 2.9 0 0 0 .194-.8c.212-1.487.637-2.174 1.273-2.905h-.097c-1.324 1.44-1.131 2.469-1.419 3.46-.206.65-.428.566-.911 1.475a.7.7 0 0 1 .07-.33c.04-.139.179-.262.399-.552.22-.29.386-.772.47-1.518.033-.315.116-.623.248-.912.084-.239.19-.47.316-.689.51-.822.965-1.337 1.6-1.682v-.056c-.647.276-1.213.938-1.645 1.668-.23.373-.407.777-.524 1.2-.097.358-.153.841-.276 1.324-.08.295-.231.566-.44.788-.09.137-.192.266-.305.385.07-.235.041-.47.428-.76a.749.749 0 0 0 .216-.355 6.17 6.17 0 0 1 1.006-3.075c-.22.07-.399.302-.617.662.358-1.078.952-2.207 2.178-2.483.65-.135 1.518.276 2.4 1.062-.717.07-1.324.205-1.723.469l-.029-.082a2.6 2.6 0 0 1 .9-.455l-.083-.015c-.62.149-1.18.486-1.6.965l-.083.012A2.64 2.64 0 0 1 8.81 16.14l-.263.013a2.604 2.604 0 0 0-1.185.746c-.65.648-1.158 1.646-1.407 3.086l-.002-.013Zm-1.666 2.426a.654.654 0 0 1-.097-.346c.013-.164.138-.152.165-.043.029.206-.068.222-.068.387v.002Zm.3-2.304c.111-.18.153-.056.14.109-.146.241-.338.45-.565.617.07-.261.248-.412.425-.73v.004Zm8.142-3.33c0 .04-.123.055-.276.055-.152 0-.275-.014-.275-.056 0-.04.123-.055.275-.055.152 0 .276.027.276.055Zm-1.586-.023a1.3 1.3 0 0 1 .89-.296h.579c.22 0 .19.22-.015.205h-.411a1.834 1.834 0 0 0-.981.262c-.165.07-.18-.07-.054-.165l-.008-.006Zm1.193-2.353c-.082.125-.179.193-.206.152-.026-.041.015-.152.085-.276.07-.123.179-.179.205-.15.027.029-.012.165-.082.276l-.002-.002Zm-.53-.321.07-.29a.809.809 0 0 1-.412.411c.152-.236.179-.345.14-.411a1.063 1.063 0 0 1-.566.428l.097-.262c-.138.07-.206.223-.412.206l.173-.288-.317.136.042-.194-.29.18.11-.25-.333.128-.014-.165-.22.056v-.179l-.194.11-.026-.139-.262.111.013-.205-.192.094-.06-.094-.234.082-.039-.179-.205.206-.042-.165c-.082.056-.137.191-.234.18l-.068-.176c-.111.097-.193.25-.304.261l.028-.246c-.123.109-.22.302-.372.316l.056-.26c-.097.096-.181.277-.305.277l.097-.249c-.138.095-.331.302-.412.29l.056-.249c-.07.043-.123.14-.193.124l.055-.15c.138-.32.426-.375.772-.36.77-.003 1.539.085 2.289.263 1.156.341 1.936.24 2.534-.181.18-.07.235 0 .152.205-.082.206-.205.305-.345.25a.755.755 0 0 1-.249.33l.014-.275a.602.602 0 0 1-.399.323Zm.193.469c-.07.097-.138.152-.167.123-.029-.029 0-.123.07-.22s.126-.152.152-.123c.027.029 0 .123-.055.22Zm-.29.04c-.056.07-.111.112-.138.098a.219.219 0 0 1 .051-.196c.056-.082.111-.123.124-.11.012.011 0 .11-.04.192l.003.017Zm-.443.054c-.14 0-.248-.04-.248-.096s.11-.082.248-.082.233.04.233.082c0 .04-.111.096-.233.096Zm4.059.504c-.11.083-.22.153-.233.124-.012-.029.056-.124.165-.206.109-.082.22-.152.234-.138.015.015-.057.124-.166.22Zm.553 2.247.082-.412c.097-.055.14-.029.126.082l-.18.346-.028-.016Zm-.617 3.324.412.304c.123.097 0 .264-.1.194l-.44-.276c-.152-.097.015-.317.124-.22l.004-.002Zm.16-.247.223.22c.123.111.039.206-.07.152l-.276-.164c-.152-.097.029-.29.123-.206v-.002Zm.3-3.511c.056-.112.167-.083.124.028-.137.63-.214 1.271-.232 1.916l-.056-.124c.07-.718.07-1.131.165-1.822v.002Zm-.302 2.096h-.04a7.579 7.579 0 0 1 .137-2.125c.041-.056.111-.041.097.026a12.628 12.628 0 0 0-.194 2.099Zm-1.104-3.536a.08.08 0 0 1-.077-.05.08.08 0 0 1-.005-.033c0-.055.028-.096.082-.096a.093.093 0 0 1 .082.096.088.088 0 0 1-.082.083Zm.166-.18a.062.062 0 0 1 .012-.045.061.061 0 0 1 .042-.024.066.066 0 0 1 .07.07.077.077 0 0 1-.041.074.076.076 0 0 1-.03.008c-.028 0-.053-.041-.053-.082Zm.11.153c.178-.123.357-.206.386-.165.029.041-.097.18-.29.317-.193.138-.36.194-.399.152-.039-.04.111-.179.302-.304Zm-.73 1.146.038.094a5.701 5.701 0 0 0-.121 2.829c-.125-1.44-.014-2.263.232-2.703v.138c-.19 1.005-.205 1.82-.028 2.48l.055-.04a8.024 8.024 0 0 1 .111-2.675l.097.014a7.167 7.167 0 0 0-.051 2.652l.053-.056c-.111-1.088-.097-1.85.07-2.536l.082.012c-.152 1.05-.166 1.877-.027 2.551l.054-.012c-.111-1.146-.054-1.96.097-2.565l.055.055a9.86 9.86 0 0 0 0 2.469l.056-.027c-.03-.991-.083-1.78.04-2.36l.069-.082c-.1.816-.09 1.641.028 2.454h.056a10.027 10.027 0 0 1 .041-2.55l.054.04c-.056.84-.052 1.684.014 2.523l.056-.015c-.056-1.185-.013-2 .11-2.483.112-.04.112.097.013.251a9.953 9.953 0 0 0 0 2.218l.082.014a8.62 8.62 0 0 1 .111-2.454c.07-.07.138.015.056.18a9.534 9.534 0 0 0-.07 2.274h.097c.11.041.123.082.012.126-.64.143-1.29.244-1.944.302-.123.015-.164-.055-.164-.234a8.396 8.396 0 0 1 .304-2.689l.041-.014a8.212 8.212 0 0 0-.123 2.756c-.07-1.308.094-2.703.343-2.937Zm-.373.164-.029.056-.29.07.123.094-.096.085.193-.027-.012.082-.206.082c.152.015.22.056.18.097l-.18.11.152.055-.19.082.164.111-.206.07a.292.292 0 0 1 .206.152l-.22.095c.123.055.152.084.152.152l-.206.082.165.124-.165.055a.22.22 0 0 1 .165.18l-.194.053c.152.055.222.096.194.152l-.235.111.222.027v.064l-.222.067c.167.07.222.124.222.18l-.205.125.22.041-.206.152c.123-.012.191.015.191.082l-.191.097c.152.029.317.056.469.097l.053.07.042-.07a.354.354 0 0 1 .29 0l.096.138.068-.165.097.181.082-.22.115.292.083-.317.096.262.083-.29.067.234.07-.276.124.262.094-.325.124.275.082-.22.111.194.064-.25.082.165c.07.138-.082.262-.234.29l-2.057.331c-.124.015-.247-.082-.303-.358a4.585 4.585 0 0 1 .013-1.503c.123-1.117.304-1.668.483-2.026a.153.153 0 0 1 .167.11l-.167.098.21.063Zm3.702.07-.837.88c.097-.094.196-.137.276-.22.358-.316.592-.55.524-.37a1.275 1.275 0 0 1-.536.58l-.344.373-.029.082c.373-.387.568-.496.617-.412l-.662.788.732-.565a3.114 3.114 0 0 1-.896.91v.07c.399-.33.703-.538.73-.441a2.732 2.732 0 0 1-.617.689l.372-.18c.027.153-.056.262-.22.346-.206.056-.317.138-.317.22l.249-.094c.012.082-.123.22-.331.384l.29-.082c.012.07-.097.206-.373.4l.264-.054c.014.068-.041.136-.152.232l.372-.123a.23.23 0 0 1-.181.193l.029.07c.22-.125.234-.029.152.012.053.027.206-.026.082.18.152-.07.25-.013.222.096.29.043.276.331.013.305-.14.01-.277.033-.412.07-.164.07-.249.055-.288-.138-.096-.358-.22-.566-.372-.648-.498-.206.097-.455.152-.677a.423.423 0 0 1 .243-.38c-.165.014-.165-.112.014-.359-.082-.014-.123-.055.14-.374-.205.07-.249.014.056-.37-.264.15-.264.055.012-.29-.123-.041-.109-.136.041-.276-.22.015-.179-.084-.07-.166.457-.22.994-.854 1.076-.772l-.02.111Zm-.849 4.406.498-.043a.335.335 0 0 1 .263.165l.235.26c.094.124.012.221-.083.192a5.702 5.702 0 0 1-.952-.37c-.07-.082-.056-.152.041-.206l-.002.002Zm.998.659c.19.04.123.137-.03.137a1.31 1.31 0 0 1-.635-.123 2.61 2.61 0 0 1-.578-.372c-.07-.056-.014-.138.095-.083a4.82 4.82 0 0 0 1.146.443l.002-.002Zm1.232-2.426c.138-.096.195-.068.18.085-.04.426-.096.785-.22.895v-.739l-.055.014c-.041.373-.097.648-.193.76l.018-.688h-.07l-.152.677.041-.592c0-.083-.029-.097-.07-.056-.096.691-.222.98-.358 1.076.11-.323.147-.666.111-1.006l-.04-.029a3.19 3.19 0 0 1-.22.959c-.139-.206.123-.566.07-.911h-.025l-.247.853c-.083 0-.056-.11.026-.329l.015-.477-.041.027a2.345 2.345 0 0 1-.235.617l.041-.634-.177.457.015-.372-.194.084a.705.705 0 0 1 .385-.333 6.63 6.63 0 0 0 1.378-.331l.017-.007Zm.189-.405c-.012.138-.123.235-.123.138a.898.898 0 0 0-.089-.434c-.055-.07.041-.095.097-.041a.368.368 0 0 1 .123.329l-.008.008Zm.064 1.206c0 .055-.015.096-.027.096s-.029-.041-.029-.096c0-.056.013-.097.029-.097.017 0 .027.043.027.096Zm.04-.305c.03 0 .042.015.042.056 0 .04-.014.055-.041.055a.06.06 0 0 1-.053-.077.053.053 0 0 1 .012-.02.05.05 0 0 1 .04-.015Zm-.011-.841c.04 0 .067.055.082.123.014.068.014.138-.027.138s-.055-.041-.07-.111a.226.226 0 0 1 .015-.152v.002Zm-.015.481c.015-.152.181-.111.111.041l-.082.194h-.045l.016-.235Zm-1.008-.551c.111-.041.152-.11.124-.206l-.054-.903c-.039-.179.082-.111.124-.014.096 0 .11.07.028.166.235.027.305.095.18.194l-.194.04.249.026c.111.043.082.123.014.14l-.234.04.29.042c.138 0 .138.04-.029.123l-.123.084.205.027c.095-.014.124.027.083.14.067.33 0 .539-.276.539l-.922.206c-.055-.041-.082-.041-.055-.056a.048.048 0 0 0-.015-.027.06.06 0 0 1 .056-.053.043.043 0 0 1 .041.041c.054-.014.097-.014.138-.027v-.28l-.123.027v.041c0 .056-.03.097-.056.097-.027 0-.056-.041-.056-.097v-.014l-.055.014c-.123-.04-.123-.096-.015-.164l.675-.146Zm-.206-.37.015-.206c.012-.138.123-.027.123.055l-.04.235c-.042.041-.056.014-.098-.068v-.016Zm.056.166a.069.069 0 0 1 .057.016.07.07 0 0 1-.057.122.063.063 0 0 1-.043-.023.062.062 0 0 1-.012-.047.063.063 0 0 1 .012-.047.062.062 0 0 1 .043-.023v.002Zm-2.082-3.233c.12-.103.255-.187.4-.25-.097.097-.194.206-.305.305l.099.056c.12-.095.261-.161.411-.194-.07.056-.138.111-.193.165.113-.023.228-.037.343-.041-.179.082-.288.11-.428.164l.111.07a.841.841 0 0 1 .412-.123c-.097.053-.206.123-.317.179l.097.055a.704.704 0 0 1 .401-.082 1.985 1.985 0 0 0-.305.138l.056.041a.91.91 0 0 1 .372-.082c-.11.04-.193.096-.29.137l.083.042a.635.635 0 0 1 .316-.027c-.085.02-.168.048-.248.082l.29.18-.056.026-.436-.159a.073.073 0 0 0-.056.027c0-.014.015-.027.03-.04l-.112-.028a2.123 2.123 0 0 1-.191.095.51.51 0 0 1 .109-.123l-.11-.042c-.055.027-.125.07-.193.097a.882.882 0 0 1 .111-.138l-.11-.04a2.357 2.357 0 0 1-.235.151.782.782 0 0 1 .138-.179l-.155-.055a1.852 1.852 0 0 1-.205.179.453.453 0 0 1 .11-.206l-.137-.055c-.068.07-.152.137-.232.205.037-.082.083-.161.137-.234l-.22-.082a1.464 1.464 0 0 1-.263.234 1.8 1.8 0 0 1 .138-.276l-.029-.014a.535.535 0 0 1 .317-.372l.029.014a.78.78 0 0 1 .205-.138c-.04.07-.07.138-.11.194l.04.026a.877.877 0 0 1 .358-.22 1.643 1.643 0 0 1-.26.276l.083.062Zm-2.33-1.449a.569.569 0 0 1 .123-.22c.097-.123.167-.22.194-.191a.525.525 0 0 1-.138.22c-.082.124-.167.206-.18.191Zm.179.124-.25.483c-.011.056.015.082.083.07.167-.442.317-.689.428-.703l-.22.662c.097-.206.165-.29.206-.249l-.056.206c.111-.22.193-.317.249-.276l-.027.192a.412.412 0 0 1 .165-.18l.066.157a.532.532 0 0 1 .179-.29l.055.138c.095-.17.225-.317.383-.43l-.083.275.332-.164c.164-.054.193-.015.07.138l-.675.316c-.54.305-1.076.484-1.627.317-.138-.055-.165-.123-.097-.249a.502.502 0 0 1 .228-.193v.179l.36-.47-.193.552c.165-.317.302-.495.428-.483l-.004.002Zm-5.293-2.06a5.95 5.95 0 0 1 1.064-.19 3.74 3.74 0 0 0 1.17-.286c.223-.075.432-.187.617-.332.111-.082.068-.11-.055-.096l-.508.035v-.23l-.194.26-.041-.26-.165.456-.065-.525-.126.566-.08-.551-.206.633-.055-.662-.124.675-.125-.69-.08.69-.14-.648-.056.617-.179-.634-.014.66-.206-.633-.041.566-.138-.552-.055.496-.103-.44-.07.496c-.206-.387-.29-.704-.152-.883a.807.807 0 0 1 .759-.249c.078-.11.182-.2.302-.26l.029.123.331-.111.029.11.358-.193c-.206.264-.247.373-.18.373.069 0 .322-.311.4-.229-.18.276-.015.194.29-.055.082.026-.111.22-.082.249.028.028.135-.054.357-.206.056-.041.18-.18.206-.111.027.068-.068.123-.11.179-.221.261-.165.22.221-.027.056-.027.138-.097.191-.07-.26.346-.152.276.235.041.056-.027.123-.123.193-.055-.483.428-.4.483.22.179-.29.33-.22.345.235.055.041-.014.097 0 .152-.029-.206.206-.234.36-.138.305a.893.893 0 0 1 .443-.124c-.196.194-.181.276.067.235.084.027.001.124-.248.29-.041.07-.083 0-.124-.165-.027.097-.07.097-.11.041l-.056.358-.083-.014v-.206c-.04-.055-.084-.055-.123 0l-.07.276-.123-.07a.601.601 0 0 1-.194.261c-.082-.11-.138-.082-.164.015-.056.014-.083-.027-.138-.015-.041.124-.083.152-.152.07-.114.067-.22.147-.315.239l-.056-.136c-.096.136-.18.22-.234.193l-.097-.096-.152.249-.249.07c0 .067.099.067.263.04a7.29 7.29 0 0 0 .924-.205c.309-.07.613-.157.911-.263.263-.124.566-.344.868-.496.07.053.013.193-.565.648l-.276-.082.152.205a.204.204 0 0 1-.193.083l-.247-.124.082.261c-.18 0-.263-.22-.428-.123l.07.206-.372-.11.07.247-.317-.137-.07.137c-.097 0-.152.03-.164.07.73.124 1.53-.137 2.359-.539.04-.014.056.015.056.083-.105.37-.347.687-.677.884l.11-.442c-.248.11-.524.648-.73.718l.22-.58-.645.537c-.056-.07.029-.22.164-.412-.193 0-.524.455-.58.426-.137-.07.111-.205.167-.302-.179-.015-.304.152-.457.232-.012-.082.083-.179.25-.33l-.54.248c0-.097.206-.181.25-.317a1.44 1.44 0 0 1-.525.27l.166-.262-.475.247.29-.304-.498.234.138-.26-.358.236.152-.29a.905.905 0 0 1-.444.246c.097-.123.165-.22.152-.288a.983.983 0 0 1-.399.235l.07-.235a1.15 1.15 0 0 1-.456.288l.166-.275c.027-.041.013-.097-.04-.054l-.373.305c.082-.152.123-.25.068-.29l-.262.138.027-.153-.304.33c-.041-.013.014-.095.055-.247l-.317.205a1.276 1.276 0 0 1 .823-.662l-.004-.004Zm.794-3.387c.206-.317.372-.411.484-.165.137-.442.29-.483.483-.096.261 0 .317.399.276.993l-.247-.662v.428c-.167-.733-1.234-.305-.994-.498h-.002Zm1.533.498c-.042.012-.083-.056-.11-.152a.288.288 0 0 1-.014-.18c.041 0 .082.054.111.15.03.097.03.182.013.182Zm.29-.484-.138-.822-.097.36-.082-.513c-.07-.055-.082.264-.07.704-.123-.124-.111-.482-.097-.883l-.14.387a1.516 1.516 0 0 1 0-.745c-.082-.07-.138.068-.164.482a1.417 1.417 0 0 1-.029-.757l-.097.206-.028-.484c.465.453.852.979 1.145 1.557v.512l-.16-.586c.012.4 0 .663-.041.58l-.002.002ZM9.564 6.434c.041.111-.04.165-.123.056-.181-.206-.138-.47.055-.704a.469.469 0 0 1 .704-.07c.138.112.097.124-.068.124-.465-.002-.644.234-.568.594Zm-.275-.718c.028.206-.07.235-.262.097l-.22-.276c-.166-.164-.193-.304-.098-.427l.205-.247a.595.595 0 0 1 .445-.126.165.165 0 0 1 .07.18.56.56 0 0 0-.525.372.85.85 0 0 1 .566-.33.156.156 0 0 1 .125.165.16.16 0 0 0-.18.027 1.271 1.271 0 0 1-.332.261c.163-.038.318-.108.454-.206.097.027.112.083.083.194a.245.245 0 0 1-.18.123c-.123 0-.166.056-.137.193h-.014Zm-.712-1.112c-.455-.648-.8-1.173-1.146-1.669-.068-.096.015-.11.056-.055.411.51.8.993 1.234 1.571a.134.134 0 0 1-.152.153h.008Zm.17.193a.35.35 0 0 1 .305-.304l.304.055c.112.082.097.111-.028.123-.25-.04-.385.015-.455.182-.07.166-.132.162-.115-.044l-.01-.012Zm.976.592a.078.078 0 0 1 .07.083.088.088 0 0 1-.07.082.076.076 0 0 1-.068-.082c0-.056.026-.083.068-.083Zm2.58 2.469c.04.029.067.055.096.07l.07-.07a.285.285 0 0 1-.111.193.697.697 0 0 1 .04-.11.635.635 0 0 0-.096-.085v.002Zm.287.654a.267.267 0 0 1-.097.193.329.329 0 0 1 .097-.193Zm.232-.261-.012.04-.014-.014a.528.528 0 0 1-.138.18.438.438 0 0 1 .082-.235.444.444 0 0 1-.096-.068 2.317 2.317 0 0 1-.305.455 1.81 1.81 0 0 1 .4-.73c-.024.084-.051.167-.083.248.029.027.068.054.097.083a.327.327 0 0 0 .067-.083.414.414 0 0 1-.012.124h.014Zm.54.648c0 .205-.015.26-.167.318-.04-.137 0-.236.166-.318Zm-.138-.083c.012-.055.028-.11.04-.152l.027-.027a.106.106 0 0 1 .027-.055c.029-.027.056-.07.082-.095a.41.41 0 0 1-.178.331l.002-.002Zm-1.932-1.818c.578-.193 1.267-.193 2.123.261.648.358 1.255.648 1.833.496.11-.029.123.055 0 .095l-.401.125c-.083.027-.095.082-.138.056-.165-.07-.233-.097-.264-.194h-.15c.083.124.083.18.027.138l-.29-.206c-.082-.055-.111-.043-.07.027l.056.082c.026.042-.03.07-.097.013l-.331-.276c-.082-.07-.138-.07-.124 0l.03.11c.011.055-.139-.07-.25-.207-.04-.053-.109-.053-.109 0v.126c0 .123-.234-.206-.428-.4-.055-.055-.137-.055-.11 0 .055.18.096.276.055.22l-.317-.277c-.056-.053-.179-.094-.152-.012l.096.249c.015.04-.205-.085-.442-.305h-.082c-.15 0 .152.22.111.264-.041.043-.152-.015-.222-.153-.04-.082-.08-.094-.179-.082a.422.422 0 0 1-.179 0c-.152-.029-.152-.097.014-.152l-.01.002Zm.679-.44a.803.803 0 0 1 .87-.138c.372.234.51.165.823.411.347.24.729.426 1.131.554.082.026.07.068-.07.135-.22-.15-.384-.248-.247 0-.028.015-.055 0-.082-.04-.249-.22-.442-.332-.578-.32-.18-.22-.263-.232-.222-.055-.014.07-.041.043-.097-.027-.205-.304-.304-.345-.288-.123 0 .04-.029.04-.082-.027-.181-.331-.22-.346-.138-.027-.012.027-.055.027-.096-.026-.153-.305-.167-.276-.167-.097-.232-.323-.284-.276-.232-.056-.153-.22-.223-.232-.223-.053-.123-.124-.22-.111-.316-.027-.056-.014-.056-.041.014-.082v-.002Zm1.56-.08c.316.035.622.139.896.304.014.041.027.07-.027.041a.508.508 0 0 0-.29-.123c.028.124.014.18-.04.164-.112-.193-.207-.22-.289-.18-.029.014-.041.028-.07.014-.082-.18-.123-.18-.164-.111-.083-.07-.083-.112-.015-.112l-.002.003Zm1.338-1.105a.412.412 0 0 0 .093-.358c-.015-.111.097-.097.11 0a.5.5 0 0 1-.096.442c-.07.041-.166 0-.11-.082l.003-.002Zm.726 1.477c.15.123-.014.234-.152.11-.372-.316-.483-.758-.566-1.157-.028-.124.054-.165.083-.029.097.415.32.791.635 1.078V6.85Zm-.452-3.16c-.25.068-.276.041-.07-.096.061-.05.126-.096.193-.136.143-.085.304-.133.47-.142-.233-.15-.69.082-1.147.304-.137.07-.178.027-.07-.082.157-.14.34-.248.537-.317.225-.087.464-.129.704-.123.165-.152.317.053.138.22a.98.98 0 0 1-.194.123 1.58 1.58 0 0 1-.565.25h.004Zm-.336 0a.078.078 0 0 1-.096-.028c0-.027.027-.054.07-.07a.082.082 0 0 1 .096.026.077.077 0 0 1-.07.07v.002Zm-.689.01a.66.66 0 0 1-.606.112c-.153-.041-.097-.124.04-.136.222-.03.436-.095.636-.193l.313-.153c.154-.07.181-.053.056.07-.14.113-.288.215-.443.305l.004-.004Zm1.058-.643a.061.061 0 0 1-.046.052.061.061 0 0 1-.024.001.06.06 0 0 1-.056-.053c0-.009.002-.017.006-.024a.06.06 0 0 1 .062-.034.064.064 0 0 1 .07.056l-.012.002Zm-1.545.259a2.85 2.85 0 0 1-.525-.317c-.04-.07-.082-.11.111-.07.17.104.368.152.566.138l.013.111a1.886 1.886 0 0 0 1.028-.387.173.173 0 0 0-.15 0c-.25.124-.222.042.247-.193.07-.041.123.014.234-.027l.305-.07c-.25.22-.498.443-.772.648a1.234 1.234 0 0 1-1.047.165l-.01.002Zm2.067-.498v.084l-.11.027c-.056.015-.112-.027-.015-.053a.546.546 0 0 1 .125-.056v-.002Zm.037-.302c.175-.015.351-.01.525.014.343.126.205.237-.015.152a.564.564 0 0 0-.497 0c-.013.136-.247.027-.385.124-.097.043-.111.014-.056-.068a.755.755 0 0 1 .428-.222Zm.786.372a.269.269 0 0 1-.097.276c.041-.262-.082-.237-.11-.387.11 0 .193.014.205.111h.002Zm.302-.22c-.067.07-.082.167-.082.372a.33.33 0 0 1-.165.305c-.07.026-.096 0-.07-.097l.112-.206a.486.486 0 0 0 0-.33c-.041-.22.084-.248.205-.042v-.002Zm-.265.897c-.041.027-.082.027-.097-.015-.014-.04 0-.07.056-.094.055-.025.082-.015.097.012a.07.07 0 0 1-.005.061.072.072 0 0 1-.049.036h-.002Zm0 .833a.348.348 0 0 1 .014.442c-.07-.055-.152-.029-.205-.11-.015-.056-.056-.028-.03-.235a.35.35 0 0 0-.026-.235c-.041-.138.015-.152.18-.082.11.094.123.164.07.22h-.003Zm-.946-.516c-.029.04-.07.055-.082.04a.084.084 0 0 1 0-.096c.026-.041.053-.055.082-.027.029.03.027.056 0 .083Zm.469-.4c-.043.165.08.29.014.455-.066.165-.36.124-.36-.014a.434.434 0 0 1 .346-.442v.002Zm.07-.18c-.043-.22-.126-.344-.25-.387a.516.516 0 0 0-.137-.013v-.084c.096-.018.193-.023.29-.014.179.055.261.152.276.277a.3.3 0 0 1-.183.223l.004-.002Zm.216.086c-.041.027-.083.041-.097.012-.014-.029-.014-.053.014-.096.03-.044.083-.042.097-.015.014.027.014.07-.014.097v.002Zm-.124.356c-.068-.111.015-.152.083-.07a.357.357 0 0 1 .137.261c.013.097-.096.18-.166.097-.07-.083.014-.165-.056-.288h.002Zm-.59.539a.315.315 0 0 1 .343-.152c.124 0 .192.026.192.152.01.124.005.249-.013.372-.04.111-.055.097-.193.111-.138.015-.206-.07-.372.027.096-.235-.015-.331.04-.51h.003Zm-.414.411c-.014-.027.013-.068.08-.082.069-.015.126-.027.14 0 .015.027-.014.07-.082.097-.068.026-.123.014-.138-.015Zm-1.6 3.497c.152.385.124.496-.11.895.129-.28.167-.592.11-.895Zm.98 3.497c0 .053-.03.111-.069.111-.039 0-.049-.043-.049-.099 0-.055.027-.094.056-.094.028 0 .067.039.067.094l-.006-.012Zm.158.027c0 .082-.03.15-.056.15-.027 0-.041-.07-.041-.15 0-.08.014-.165.041-.165.027 0 .056.07.056.165Zm.205.179c-.055 0-.11-.03-.11-.042 0-.012.04-.049.104-.049s.124.029.124.056c0 .026-.056.04-.124.04l.006-.005Zm.132.144a.06.06 0 0 1 .055.053.06.06 0 0 1-.012.047.06.06 0 0 1-.043.023c-.012 0-.041-.027-.041-.07a.062.062 0 0 1 .041-.053Zm.662-1.683c.069-.28.097-.568.083-.856-.027.015-.041.015-.068.027a2.222 2.222 0 0 1-.138.551 1.85 1.85 0 0 0 .056-.537.179.179 0 0 1-.083.027c-.023.15-.06.299-.11.442.026-.14.04-.284.04-.427-.04 0-.082.014-.125.014-.013.179-.04.37-.08.617 0-.206-.015-.411-.015-.617h-.138c-.006.236-.028.47-.068.703-.014-.248-.014-.483-.028-.715-.042-.015-.083-.015-.138-.03-.007.25-.03.5-.07.745-.012-.26-.027-.51-.027-.757l-.125-.043a5.42 5.42 0 0 1-.11.69c0-.25 0-.47.013-.716l-.123-.042c-.015.276-.04.523-.054.823a3.813 3.813 0 0 1-.041-.856.261.261 0 0 1-.111-.055 3.14 3.14 0 0 0-.07.95 1.694 1.694 0 0 1-.014-.979.248.248 0 0 0-.083-.053 2.471 2.471 0 0 1-.193.37c.054-.13.099-.263.134-.4-.041-.026-.097-.055-.138-.081a1.85 1.85 0 0 1-.25.604c.155-.443.225-.911.207-1.38.039.172.062.348.067.525.056.028.097.04.153.07.028-.239.041-.478.04-.718.07.237.088.485.054.73.039.02.08.034.124.041a1.26 1.26 0 0 1 .07-.111c-.015.041-.027.084-.041.125.028 0 .07.013.098.013.027-.082.04-.18.083-.29 0 .11-.013.205-.013.319.04 0 .068.012.111.012 0-.07.013-.152.013-.233.019.082.032.164.04.247.042 0 .098.015.139.015v-.315c.035.12.065.222.065.325.055.012.111.017.167.014-.002-.11.003-.22.014-.33.03.125.042.236.07.33h.138V8.64c.05.16.084.324.103.49.041 0 .084-.014.126-.014a3.497 3.497 0 0 0-.042-.358c.053.109.09.224.112.343.026 0 .055-.012.082-.012-.015-.126-.043-.249-.056-.387.05.116.091.236.124.358a.206.206 0 0 0 .084-.012c-.029-.194-.041-.412-.084-.636.318.786.318 1.146.028 1.944h-.002Zm-.121 1.915c-.029-.082-.123-.123-.317-.123-.082-.027-.082-.111 0-.126h.51c.165 0 .192.084.083.237.055.275-.29.454-.274.012h-.002Zm.276-6.3c0 .014-.013.026-.04.026-.026 0-.04-.014-.04-.027a.045.045 0 0 1 .04-.04c.027 0 .04.014.04.04Zm-.165-.605c0 .04-.056.08-.125.068-.07-.013-.124-.042-.11-.083a.104.104 0 0 1 .124-.07c.07.013.123.042.111.085Zm.426.053a4.296 4.296 0 0 1-.082.58c-.027.056-.054.027-.083-.026.013-.18.041-.332.07-.552l.095-.002Zm-.082-.123c0-.027.014-.056.014-.097.07-.07.097-.111.097-.041a.414.414 0 0 1-.015.138h-.096Zm.51.193c0 .041-.056.07-.111.056-.056-.015-.111-.041-.111-.083 0-.04.055-.053.11-.053.056 0 .112.039.112.082v-.002Zm.084-.273-.442.137.029-.275c-.126-.041-.206-.015-.25.096l-.012.097a.581.581 0 0 1-.152-.123c-.055-.056-.152-.027-.343-.015-.042 0-.1-.014-.126-.014l.085.123a.53.53 0 0 0-.153.194.356.356 0 0 1 .167.026.469.469 0 0 0 .426.042v.372l-.083.014c-.07.029-.082.111-.026.138l.234.111c.097.041.138-.082.138-.164l.055-.428.196.082c.07.01.14.001.206-.027v.331l-.07.097a.205.205 0 0 1-.111.206c0 .123-.015.206-.056.22-.1.14-.215.27-.343.385a.411.411 0 0 1-.264-.027.855.855 0 0 1-.263-.22l-.082-.027.024-.111-.084-.014.027-.112-.107-.02.041-.111-.082-.056.07-.179-.083-.026.097-.138h-.152l.109-.083-.124-.026a.953.953 0 0 1 .18-.745c.235-.074.482-.106.73-.095a.803.803 0 0 1 .594.276v.089Zm.868 1.363a.91.91 0 0 1 .58-.22c.08.02.165.026.247.015.111.07.07.123-.053.152a.152.152 0 0 0-.167-.027c-.123.027-.138.111-.222.138l-.056-.082c-.164.11-.275.411-.399.563l-.029-.15c-.082.012-.135.193-.26.29.011-.11-.015-.164-.056-.164-.206.137-.358.205-.412.15 0-.095.36-.346.823-.663l.004-.002Zm2.549-.177c.247.03.232.223-.03.206-.65-.029-1.102-.014-1.42.193.429-.1.873-.12 1.31-.055.07 0 .055.041.014.07a.253.253 0 0 1-.179.041l-.378-.05c-.498-.014-.938.083-1.255.468h.097a.264.264 0 0 1-.138.152c-.068.041-.068.11-.097.152a.946.946 0 0 0-.123.235l.11.04c-.178.237-.302.387-.33.32.023-.408.173-.798.428-1.117.302-.387.853-.76 1.999-.663l-.008.008Zm-.066 9.078c-.58-.677-1.214-1.46-1.724-2.026l.041-.22c.412.522 1.235 1.501 1.697 2.081.247.305.235.29.373.443 0 .07-.056.043-.155.012a2.551 2.551 0 0 1-.232-.29Zm-.58-.263c-.537-.634-.716-.88-1.214-1.44.012-.085.041-.167.054-.264.442.554 1.172 1.44 1.612 1.973.14.18.041.097.14.206.099.109-.123.096-.193-.043-.056-.068-.346-.358-.401-.443l.002.01Zm-1.3-1.15a1.24 1.24 0 0 0 .055-.206c.455.551.69.823 1.09 1.313.054.067.385.466.443.522a.206.206 0 0 1-.194-.014c-.495-.587-.923-1.07-1.394-1.615Zm-.097.343a.132.132 0 0 1 .012-.07c.03-.053.042-.11.07-.179.412.51.869 1.029 1.235 1.49-.041.043-.126.043-.235-.013-.372-.454-.716-.822-1.074-1.234l-.008.006Zm-.103-.516c.041-.097.097-.165.152-.152.056.012.056.11.03.206-.027.094-.097.152-.139.135-.04-.016-.07-.11-.04-.191l-.003.002Zm-1.475.315c.26-.46.615-.859 1.041-1.17.331-.262.54-.702.718-1.2.082-.206.206-.111.097.22-.18.494-.5.923-.924 1.234-.333.304-.624.65-.868 1.029-.082.123-.152.07-.07-.082l.006-.031Zm.352-6.838c.056-.04.097-.055.124-.04.026.014 0 .07-.042.123a.123.123 0 0 1-.123.043.124.124 0 0 1 .04-.124l.001-.002Zm.054 1.187c.055.111.082.194.055.206-.027.012-.082-.056-.15-.152-.068-.097-.082-.194-.055-.206.026-.012.082.055.152.152h-.002Zm-.025 2.04a.097.097 0 0 1 .111-.04.088.088 0 0 1-.014.123.082.082 0 0 1-.052.05.084.084 0 0 1-.072-.009.115.115 0 0 1 .029-.123h-.002Zm1.16-.454c-.232.317-.387.428-.469.304a3.817 3.817 0 0 1-.51.484l-.123.346c-.056.082-.07.11-.083 0 .015-.305.097-.443.222-.525a.27.27 0 0 1 .097-.265c.305-.138.51-.428.771-.51.083-.206.25-.317.47-.605.152-.152.193-.111.125.123a.937.937 0 0 1-.51.634l.01.014Zm-.79 2.302c.29-.112.544-.303.73-.551.22-.14.181-.015.111.137a.634.634 0 0 1-.275.262c-.186.14-.39.257-.607.345a1.468 1.468 0 0 0-.652.47c-.125.094-.181.055-.14-.14.111-.233.412-.387.844-.525l-.01.002Zm.023-1.325c-.112.207-.169.44-.165.675 0 .278-.345.22-.222-.095.124-.314.165-.51.29-.617.152-.152.192-.138.097.041v-.004Zm.539.621a.845.845 0 0 1-.566.617c-.29.11-.372-.028-.18-.152.207-.116.386-.28.52-.477.193-.276.275-.29.222 0l.004.012Zm-.309-.096c-.055.055-.154.055-.096-.027l.26-.525-.328.455c-.097.123-.111.027-.07-.07l.222-.539c.053-.193.152-.304.275-.317l.305-.29c.068-.082.111.027.068.097l-.22.358c-.047.32-.19.618-.412.854l-.004.004Zm.887-1.01c-.015.096-.015.205-.111.234-.027.37-.07.677-.18.772-.164.205-.22.18-.164-.095l.097-.496a.921.921 0 0 1 .206-.524l.152-.412c.039-.164.11-.152.11.056l-.096.261c.082.043.041.124-.012.206l-.002-.002Zm-.426-1.487c.245-.401.547-.764.897-1.078.276-.192.331-.15.179.152-.4.566-.8 1.234-1.158 1.44a.504.504 0 0 0-.385.263l.247-.125c.125-.015.138.026.055.11-.205.112-.55.649-.633.305-.138.263-.372.22-.385.483l-.029.346c-.053.097-.094.097-.15 0-.04-.496.07-.786.303-.952.633-.385.855-.953 1.061-.936l-.002-.008Zm-.81-.572c.04.082.055.15.04.164-.014.015-.07-.04-.11-.123-.041-.082-.07-.165-.056-.165.015 0 .068.043.123.126l.002-.002Zm-.017-.397c-.056-.111-.07-.206-.027-.206.043 0 .138.084.206.206h-.179Zm.22.053a.577.577 0 0 1 .056.165h-.152a1.092 1.092 0 0 1-.083-.136c-.014 0-.014-.014-.014-.029h.193Zm-.039.235h.123c0 .043 0 .07-.026.07-.027 0-.056-.027-.097-.07Zm1.82-.634c-.137 0-.33.124-.647.525-.083.109-.18.012-.068-.126.174-.213.395-.382.646-.496.263-.109.248.097.07.097Zm-.703-.689c.307-.209.68-.297 1.05-.249.248.029.248.181.11.167a1.897 1.897 0 0 0-1.131.135c-.14.07-.111 0-.029-.053Zm-.29.537c-.041.043-.053 0-.012-.111.234-.292.662-.498 1.462-.475.167.012.138.179-.012.164a1.27 1.27 0 0 0-.387.07c-.157.025-.31.071-.454.138a2.13 2.13 0 0 0-.745.745c-.082.043-.097.014-.056-.083.276-.495.617-.759.953-.788l.014-.026c-.191-.043-.428.04-.773.358l.01.008Zm-.19.71c.346-.564.719-.854 1.091-.965.125.012.179.055.082.164-.34.157-.638.393-.868.69a.29.29 0 0 1-.166.318c0 .206-.124.303-.332.331l-.304.385c.068.097-.041.249-.261.47-.14.151-.196.11-.165-.139.165-.454.482-1.117.634-1.117.084 0 .084-.026.11-.179.013-.11.124-.082.098 0-.027.083.014.124.082.042Zm-.164-1.089c-.068.015 0-.234-.11-.04l-.235.205c-.165.053-.124-.111-.027-.041l.164-.22c.146-.19.317-.356.51-.496.153-.014.18.027.07.123l-.193.097a.468.468 0 0 1-.179.372Zm-1.53-.372a.34.34 0 0 1 .152-.317c.082-.055.111.041.07.097-.082.097-.152.097-.22.22h-.002Zm-.068 1.736a.443.443 0 0 1 .138.124.48.48 0 0 0-.056-.332.428.428 0 0 1 .235.373.476.476 0 0 0-.03-.387c.124.043.207.152.318.331l-.035.278a.22.22 0 0 1-.015.206c-.053-.07-.11-.097-.179-.056l-.012.222c-.041-.096-.097-.11-.152-.04l-.191.178-.056-.123-.027-.552.082-.055-.02-.167Zm.064 5.194c.07-.323.25-.613.506-.823.288-.22.607-.317.979-.565.11-.068.138-.027.068.123a.878.878 0 0 1-.537.29c-.305.072-.51.331-.716.662l.617-.44c.138-.043.167 0 .082.11-.65.33-.565.746-.822.84-.056-.07-.041-.164.028-.29l-.205.093Zm.917.434c0 .082-.027.136-.041.136-.014 0-.041-.056-.041-.136 0-.08.014-.138.041-.138.027 0 .041.07.041.138Zm.574-.845-.469.411c-.152.082-.331.346-.592.745-.167.07-.18.027-.083-.095.09-.121.187-.236.29-.345.07-.111.07-.206.153-.29.18-.254.398-.477.648-.663.275-.179.483-.51.662-.965l.029.083c-.07.648-.276 1.028-.634 1.117l-.004.002Zm-.066.631a5.08 5.08 0 0 0-.335.603c-.04.082-.165.179-.136-.041a.939.939 0 0 1 .375-.652c.19-.136.232-.095.082.096l.014-.006Zm-.263-.062c-.123.124-.152.112-.082-.055a.794.794 0 0 1 .454-.374c.165-.042.111.055.056.096-.147.099-.284.21-.412.331l-.016.002Zm.609.838a1.61 1.61 0 0 1 .029-.358c.316.399.617.703.923 1.102-.041.042-.097.042-.179 0-.263-.275-.483-.454-.773-.744Zm.33.744c-.205.015-.248-.026-.262-.234.096.097.179.138.263.234Zm-.279-.355c-.014-.083-.029-.18-.04-.262.233.233.441.375.661.617a.191.191 0 0 1-.205.027c-.138-.15-.276-.234-.412-.372l-.004-.01Zm2.884-8.63.027.015c-.04.274.009.554.138.8a4.094 4.094 0 0 0-.054-.566V6.66l.111.026c.013.276.111.54.233.564a.952.952 0 0 1-.11-.51l.153.043c0 .29.097.617.234.617a.823.823 0 0 1-.11-.566l.026.013c.019.1.061.195.123.275.056-.068.027-.205-.012-.358a.49.49 0 0 1 .523.056c.07.082.04.123-.056.123h-.095l.22.097c.013.027.054.056-.07.07l-.082.068.29.027c.097.04.083.07.056.11l-.07.083c.288.003.571.079.823.22-.013.111-.138.097-.373-.027.056.138.276.15.262.235-.027.15-.358.014-.508.206l.372.014c.082.056.053.097-.07.097.193.232.343.304.401.137.054-.125.11-.125.165 0 .234.136.275.153.137.18l-.22.043.264.04a.07.07 0 0 1 .026.124c-.178.027-.193.056.138.068.14.07.194.14.14.193-.29.015-.275.056.07.085.082.04.111.094.095.136-.18.04-.153.084.07.084.028.041.053.068.012.109-.206.055-.178.082.082.082.013.097.165.082.222.206.22-.041.317.11.124.11l-.015.044c.317.012.455.095.412.288-.027.082-.455-.164-.276.496l.07.07c.123.027-.014-.305.191-.276.03.015.056.111.015.276-.041.164-.138.22-.288.123-.15-.096-.222-.193-.206-.304l.014-.206c-.152.014-.178-.082-.195-.234 0-.027-.055-.013-.039-.056a.331.331 0 0 0-.428.22c-.012.07-.07.014-.096-.055.014-.041-.083.014-.138-.013-.056-.027-.03-.096-.07-.084-.041.012-.027.041-.082.041-.056 0-.03-.111-.112-.027-.082.085-.068.056-.082-.026-.014-.083.068-.206-.084-.013-.056.027-.068.027-.097-.043-.082-.234-.138-.247-.165-.041-.04.084-.082.097-.082-.027-.08-.358-.096-.358-.07-.014-.012.152-.053.138-.137-.041-.097-.29-.138.026-.206-.111-.068-.138-.029-.4-.194-.47l.097.484c0 .07-.111.082-.123-.027-.056-.319-.264-.87-.22-.69l.123.661c.014.056-.138.03-.165-.055l-.164-.823c-.041-.234-.041.442.055.73 0 .041-.11.041-.096-.014.014-.056-.124-.854-.167-.823-.096.097.167.883-.041.76-.027-.013-.097-.799-.123-.824-.027-.024 0 .76-.03.745-.221-.276.015-1.029-.137-1.061-.027 0-.097.909-.123.882.096.704.662.73.617.938l-.401-.206c.11.206.275.428.386.663-.123.04.015.205.097.29-.123-.015-.097.07.138.29.055.04.07.082.055.123-.29-.07-.316-.07.15.305-.29-.044-.3-.015.03.205.068.05.116.124.137.206.015.055-.041.027-.07.027-.029 0-.138-.083-.164-.095-.083-.014-.03.095.357.387.097.082.138.15.07.179-.469-.29-.442-.22.07.22.124.191.138.275.097.302-.411-.345-.69-.565.029.152.123.124.152.206.053.223-.718-.54-.33-.18.152.316.027.027 0 .07-.028.056-.69-.51-.718-.387.014.372.027.07.068.124.04.18-.03.055-.069 0-.098-.015-.497-.467-.454-.373.112.399.082.125.123.236-.015.164-.617-.701-.823-.855-.012.22.082.14.096.206-.015.167-.565-.771-.578-.677-.028.152.04.097.04.111 0 .097-.508-.617-.66-.771-.027.136.082.166.07.193-.015.11-.617-.77-.635-.674-.028.126.055.097.084.153-.013.111-.715-.822-.715-.787-.028.097.014.22.014.206-.124.097-.068-.082-.068-.152-.138-.22-.442-.537-.497-.496.027.191-.053.055-.123.055-.206-.014-.456-.593-.497-.593-.137-.027l-.25-.041a.618.618 0 0 0-.137-.18c-.426-.41-.578-.454-.152.083.012.014-.027.027-.015.041l-.483-.082a.233.233 0 0 1-.18-.097 3.134 3.134 0 0 0-.676-.823c.027.124.29.346.498.69.053.22-.193.123-.276.084-.152-.206-.205-.237-.428-.498-.617-.73-1.281-1.557-1.82-2.137.02-.1.033-.202.041-.305.505.76 1.102 1.455 1.777 2.068-.055-.276-.936-1.029-1.474-1.75a7.11 7.11 0 0 1-.276-.525c.014-.083.014-.153.027-.25a7.066 7.066 0 0 0 1.804 2.18c-.097-.248-.953-.937-1.407-1.67a4.679 4.679 0 0 1-.358-.717v-.123a7.39 7.39 0 0 0 1.79 2.178c-.083-.247-.965-.965-1.393-1.668a6.18 6.18 0 0 1-.373-.73v-.138a8.739 8.739 0 0 0 1.889 2.316c-.083-.235-1.076-1.103-1.492-1.777a5.335 5.335 0 0 1-.372-.76v-.193c.304.716 1.074 1.668 1.835 2.288-.082-.233-1.029-1.029-1.421-1.669a4.588 4.588 0 0 1-.387-.8.958.958 0 0 1 .014-.205c.264.73.994 1.612 1.765 2.207-.082-.206-.965-.926-1.325-1.53a6.817 6.817 0 0 1-.425-.857 1.412 1.412 0 0 1 .014-.232c.222.716.911 1.584 1.685 2.19-.056-.205-.883-.853-1.235-1.44a5.698 5.698 0 0 1-.425-.923v-.043c.014-.082.014-.179.026-.261.153.718.823 1.646 1.6 2.275-.055-.18-.822-.823-1.13-1.364a9.787 9.787 0 0 1-.47-.979c.235-1.985 1.074-3.158 2.304-3.363l-.006.02Zm.033-.214c-.041-.04-.111-.137-.055-.179.055-.04.14.042.152.124.012.082-.042.111-.097.055Zm-.51-.58c.428.085.8.138 1.028.332.138.096.03.193-.07.123l-.288-.15c.013.123-.098.07-.263-.07-.11.109-.249.055-.399-.111l.095.275c.014.054-.041.054-.068.015L20.34 6c-.097-.123-.027-.193.138-.179h.008Zm1.329.443c.372-.015.662-.22 1.088.012l.193.22c.126.29.015.428-.152.22-.082-.123-.014-.232-.22-.331.117.197.183.42.191.65.317.302.029.372-.055.179l-.124-.566c.029.276.041.484 0 .484-.094 0-.04-.194-.082-.428-.027-.097-.053-.276-.111-.29a1.395 1.395 0 0 0-.634 0c.303-.015.51 0 .578.082a.484.484 0 0 1 .068.428c-.068.111-.11.082-.11-.056l-.042-.179c-.014-.096-.123-.11-.276-.096a.424.424 0 0 1-.316-.03c-.042-.026-.138-.069-.015-.094-.138-.084-.082-.193.015-.205h.004Zm2.602 4.605c.055.056-.138.111-.317-.055-.179-.167-.111-.373.041-.22l.276.275Zm-1.084 5.48a.041.041 0 0 1 0 .056l-.056.04a.033.033 0 0 1-.055-.014L23 16.168a.033.033 0 0 1-.007-.03.033.033 0 0 1 .022-.023l.053-.042a.035.035 0 0 1 .046 0 .034.034 0 0 1 .01.015l.21.261Zm0 .66c-.027.015-.082-.026-.126-.109-.043-.082-.04-.137-.012-.152.029-.014.082.027.123.097.041.07.044.152.015.164Zm-.152.912a8.871 8.871 0 0 0-.938-1.44c-.068-.111.11-.18.248.014.312.422.587.869.823 1.337.124.276 0 .346-.125.097l-.009-.008Zm.133-.241a7.002 7.002 0 0 0-.635-1.061c-.097-.136.04-.206.152-.042.217.336.41.687.578 1.05.07.164-.029.205-.095.053Zm.261-1.598c.097-.015.223.094.25.249a.263.263 0 0 1-.124.33c-.111.015-.222-.082-.263-.248-.041-.167.026-.305.137-.331Zm.097-1.697c0-.18.124-.18.124.028.012.47-.015.94-.083 1.405 0 .07-.123.194-.123.042.014-.58.082-1.05.082-1.475Zm.428 3.908c0 .206-.167.22-.179.029a11.85 11.85 0 0 0-.167-1.337c-.053-.264.03-.305.124-.056.17.434.246.899.222 1.364Zm.29-.136c.029 0 .041.027.041.056 0 .028-.012.055-.04.055-.03 0-.042-.027-.042-.055 0-.03.014-.056.041-.056Zm.082-1.296c.027-.014.083.041.124.111.04.07.039.138 0 .15-.04.013-.085-.026-.111-.094-.027-.068-.041-.152-.013-.165v-.002Zm2.987 4.065c.027-.027.097.027.138.097.041.07.07.164.041.178-.029.015-.097-.026-.138-.11-.04-.085-.07-.15-.04-.165Zm.276 1.378c0 .14-.041.263-.083.263-.04 0-.082-.123-.082-.263s.027-.261.082-.261c.056 0 .083.123.083.261Zm.263.73c-.07.07-.222.07-.331.097l.11.181-.11.053-.041.153c-.206-.165-.331-.317-.261-.484l.137-.29c.07-.094.124-.094.165-.014l.331.304Zm.952-3.392-.152-.51a2.206 2.206 0 0 1 .012-.522c.042-.4.056-.617-.372-.924a10.322 10.322 0 0 1-1.366-1.71c.015-.785-.662-.993-1.088-.137l-.823.58c-.205.138-.343-.082-.343-.304-.082-1.029-.786-1.862-1.56-2.662-.41-1.257-.978-2.304-1.184-3.269.786.083 1.378.235 1.615.47.343.37.785.565.896.304.04-.083-.205-.233-.33-.358.2.044.38.156.507.316.344 0 .455-.26.358-.617.041-.287.03-.51-.096-.604l-.29-.165a8.9 8.9 0 0 1-1.214-1.627.332.332 0 0 1-.056-.179.798.798 0 0 0-.298-.652l.111-.056-.014-.082.249.056-.25-.412c-.137-.51-.616-.592-1.31-.384-.096.026-.22-.083-.343-.22-.44-.428-.91-.663-.745-.346.03.056.167.206.015.193l-.76-.123c-.164-.029-.195.027-.152.111.138.124.25.274.332.44l-.967.056a3.74 3.74 0 0 1-.537.082c-.524-.44-1.172-.111-1.851.411l-.097-.04-.012-.786h.082l-.07-.51h.056c.055-.772-.095-1.268-.387-1.615-.054-.233.18-.206.234-.276.158-.22.23-.49.206-.759-.039-.33-.15-.442-.317-.33h-.193a.74.74 0 0 1-.455-.193.52.52 0 0 0-.635-.014c-.992.249-1.17 1.029-2.384.498-.138-.014-.167.041-.111.15.216.264.497.466.816.586-.11.083-.331.097-.689.07.206.276.617.412 1.234.4.235.137.51.082.823-.042.167-.097.181-.041.07.18-.317.26-.537.77-.58 1.696a1.667 1.667 0 0 0-.24.642c-.457-.123-.856-.206-1.03-.07l-.18-.014a.903.903 0 0 0-1.103-.085l-.703.54c-.263.178-.484.193-.525-.028l-.29-.617c.012-.44-.154-.648-.457-.674a.786.786 0 0 1-.263-.443l-.205-.26c.07-.235-.03-.318-.194-.318a.796.796 0 0 1-.442-.096l-1.44-1.765c-.179.027-.249.152-.22.358L8.478 4.72c.041.082.124.164.111.234-.096.235-.138.387.07.593l.412.399c.003.22.07.434.19.617-.096.193.03.372.194.551.041.056.056.124.126.18l.07.594c-.576.462-.866.829-.92 1.034-.029.124-.055.22.027.29l.806-.084c.07.041.152.056.18.111a.592.592 0 0 1-.484.8c-1.006.247-1.736.593-1.44 1.267.372.484.179.912-.455 1.298a.605.605 0 0 0-.193.552c-.19.183-.341.403-.442.648-.095.275-.095.399.096.374 1.407-.471 2.788-.662 3.765.152.483.4.4.605 1.158.648-.083.317 0 .496.277.551l.042.358c-.305.07-.648.07-.953.153a4.712 4.712 0 0 1-.979.22 7.527 7.527 0 0 0-.823-.484c-1.269-.786-2.33-.823-3.254.25-.483.565-.923 1.336-1.281 2.521-.07.206-.235.29-.566.097-.662-.54-.788-1.029-.457-1.337.47-.443.648-.18.4.055l.014.056c.358 0 .495.247.633.51.305-.786.138-1.325-.29-1.753l-.09-.008.04.677c-.73-.152-1.128.411-1.186.936-.058.524.195.966.856 1.351.372.126.481.551.193.98-.718 1.048-.617 2.165.041 3.599l.082-.041c.138-1.572.47-2.372.994-2.524a.95.95 0 0 0 .455-.346c.152-.232.234-.205.343.044a1.942 1.942 0 0 1-.138 1.931c-.91 1.475-.952 2.606.344 3.497l.041.109-.335.438c-.111.181-.03.4.275.65.22.261.331.69.4 1.234a.7.7 0 0 0-.054.605c.193.278.66.428 1.323.358.07-.014.055-.07.055-.138.056-.304-.152-.524-.372-.895-.648-.58-.786-1.13-.578-1.668l.1-.146a9.621 9.621 0 0 0 1.753.47 1.715 1.715 0 0 0 0 1.515c.412.718.856 1.047 1.697.98 1.117-.097 1.668-1.03 1.255-2.276.399-.22.662-.205.8.041-.012.564.235.387.249.938-.662.578-.911 1.074-.195 1.393.372.372.166.51-.317.537-.51-.124-.883-.097-.953.317-.467.026-.606.304-.592.744.138-.33.399-.358.537-.275.249-.015.51.053.73-.044a.841.841 0 0 1 .704.015.333.333 0 0 1 .298.17c.331.346.29-.04 1.028.4.18.014.482 0 .537.29l.07-.262a.236.236 0 0 0-.082-.304c-.233-.276.138-.288.788-.165.28.144.595.206.909.18.29-.29.358-.112.411.275.206-.566.068-.868-.498-.897.097-.304.138.152.346-.22.179-.082.358 0 .537.179.039-.276-.123-.442-.483-.523-.083-.236-.262-.248-.51-.014-1.048-.276-1.159-.911-.566-1.028.319-.083.442.248.69.345.18.047.366.07.552.068a1.44 1.44 0 0 1 .73.191l.206.072c.111-.084.222-.072.358.054.152.22.304.249.442.07.412-.331 1.029-.331.992-.124-.015.303.04.412.152.385.097.015.138.138.138.358-.4-.014-.677.056-.677.346-.372.11-.358.372-.191.717-.041-.662.522-.123 1.073-.483l.387-.039c.041.191.22.276.566.26.144-.04.291-.068.44-.083.677-.18 1.214-.14 1.615.411a.487.487 0 0 0-.041-.51c.469-.317.979-.193.674.317.276-.14.554-.843.194-.823.152-.411.771-.068.594.235.261-.138.303-.346-.014-.605-.04-.235-.235-.305-.578-.206-.194-.331-.44-.345-.772-.053-.33.152-.592.164-.759-.056-.179-.29-.137-.428.111-.331.126.041.18-.111.332-.4.055-.122.164-.22.246-.384.358-.055.648-.374 1.029-1.008.261-.123.387-.633.399-1.44.111.056.249.015.428-.096-.124-.015-.18-.056-.18-.373h.344c.138-.055.196-.109.181-.18-.014-.073-.137-.042-.234-.192a1.104 1.104 0 0 0-.358-.58l-.346-.561c-.234-.745-.51-1.171-.853-.895l-.097-.056a3.244 3.244 0 0 1-.617-1.102c.014-.525-.537-.552-.823-.056l-.082-.411-.138.22L21 21.002c.097-.014.263-.111.358-.123a7.772 7.772 0 0 0 3.223-1.002l.774-.235c.343-.137.454-.026.633.152l.786.823a.383.383 0 0 1 .07.484c-.082.164.111.386.385.617.248.276.275.648.055 1.117-.125.302-.097.495.082.592l.537.387c.358.29.537.193.525-.317a1.922 1.922 0 0 0-.263-.771 2.099 2.099 0 0 1-.317-.938c-.015-.634-.097-.965-.358-1.187a4.444 4.444 0 0 1-.778-.981c-.07-.206-.125-.332-.234-.387-.027-.66-.508-.992-.813-.823a2.152 2.152 0 0 1-.788.041v-.15c.344-.193.938-.8 1.53-1.462.221-.276.332-.165.552.055l.854.897c-.029.442.041.73.343.703.206.358.305.704.111.854-.193.15-.343.276-.343.51.041.346.44.704.882.868a.125.125 0 0 0 .138-.07 1.44 1.44 0 0 0 .015-1.028" fill="#fff"/><path d="M18.01 19.208h-.029v.206a.07.07 0 0 0 .042-.013c.096-.11.096-.164-.013-.193ZM18.23 19.16a.03.03 0 0 0-.019.01.03.03 0 0 0-.01.018c0 .028.015.043.03.043.014 0 .026-.015.026-.043a.029.029 0 0 0-.027-.027ZM18.204 19.09c.056-.014.097-.04.082-.081-.014-.042-.055-.042-.11-.027-.056.014-.097.055-.085.068.012.012.058.055.111.04M22.3 8.833c.055.123.096.152.081.111a3.804 3.804 0 0 1-.082-.732.206.206 0 0 0-.055-.165 2.826 2.826 0 0 0-.013.412.681.681 0 0 0 .07.372M18.726 28.636l-.012.01.012-.01ZM22.935 9.22c.056.07.082.094.07.07a1.934 1.934 0 0 1-.111-.496.191.191 0 0 0-.054-.111c-.029 0 .013.191.013.29.001.09.03.176.082.249M22.507 8.97c.069.097.095.124.08.083a4.398 4.398 0 0 1-.094-.648c0-.097-.03-.124-.056-.138-.027-.014 0 .235 0 .358-.01.12.014.24.07.346ZM23.14 9.335c.054.07.083.082.068.055a1.982 1.982 0 0 1-.123-.411.1.1 0 0 0-.056-.097c-.026 0 .015.165.03.25 0 .076.029.15.081.205M22.73 9.094c.055.083.082.111.07.07a3.162 3.162 0 0 1-.112-.563c0-.085-.014-.111-.055-.126-.041-.014.014.206.014.317a.474.474 0 0 0 .083.304M42.871 6.305h-.586V5.243H39.01v1.062h-.586V4.708h.374a5.829 5.829 0 0 0 .646-1.738c.167-.772.247-1.56.24-2.349h2.747v4.087h.438l.002 1.597Zm-1.055-1.599v-3.55h-1.551a10.04 10.04 0 0 1-.274 2.034 5.371 5.371 0 0 1-.6 1.518l2.425-.002ZM46.888 5.256h-3.054V.619h3.054v.55h-2.437v1.27h2.437v.548h-2.437v1.722h2.437v.547ZM51.476 5.256h-.617V1.169h-2.312v4.087h-.617V.619h3.546v4.637ZM56.441 5.256h-.656l-.455-1.292h-2.005l-.455 1.292h-.617L53.94.619h.823l1.678 4.637Zm-1.302-1.823-.823-2.275-.823 2.275h1.646ZM60.24 2.02c.002.196-.034.39-.107.572-.068.17-.17.326-.3.456a1.54 1.54 0 0 1-.566.36 2.423 2.423 0 0 1-.822.12h-.617v1.728h-.618V.619h1.26c.237-.004.475.02.707.07.181.04.354.112.51.212.171.112.313.263.412.442.103.21.152.443.141.677Zm-.641.016a.963.963 0 0 0-.085-.411.7.7 0 0 0-.255-.29 1.029 1.029 0 0 0-.341-.138 2.307 2.307 0 0 0-.484-.041h-.617v1.851h.52c.208.006.416-.017.618-.068a.86.86 0 0 0 .38-.205c.09-.09.16-.197.206-.315.043-.123.063-.252.06-.383h-.002ZM64.424 1.169H62.77v4.087h-.617V1.169h-1.656v-.55h3.928v.55ZM68.767 5.256h-.656l-.455-1.292H65.65l-.454 1.292h-.617L66.266.619h.822l1.679 4.637Zm-1.302-1.823-.823-2.275-.823 2.275h1.646ZM73.663 5.256h-.617V1.26l-1.288 2.726h-.368L70.11 1.26v3.995h-.576V.619h.841l1.235 2.582L72.805.619h.855l.003 4.637ZM78.025 5.256h-3.048V.619h3.054v.55h-2.437v1.27h2.438v.548h-2.438v1.722h2.438l-.007.547ZM82.615 5.256h-.618V2.993h-2.314v2.263h-.617V.619h.617v1.819h2.314V.619h.618v4.637ZM87.228 1.169h-1.656v4.087h-.617V1.169H83.3v-.55h3.93v.55ZM42.563 14.1h-.618v-4.086h-2.314V14.1h-.617V9.464h3.546l.002 4.637ZM46.905 10.865c.002.196-.034.39-.107.572-.068.17-.17.326-.3.457-.16.16-.353.283-.566.36a2.421 2.421 0 0 1-.823.119h-.617V14.1h-.617V9.464h1.259c.238-.004.475.02.708.07.183.043.357.117.514.22.17.112.312.264.411.443.101.207.149.437.138.668Zm-.642.017a.965.965 0 0 0-.084-.412.7.7 0 0 0-.255-.29 1.028 1.028 0 0 0-.342-.138 2.306 2.306 0 0 0-.483-.04h-.617v1.85h.52c.208.006.416-.017.617-.068a.86.86 0 0 0 .38-.205c.09-.09.161-.197.207-.315a1.07 1.07 0 0 0 .057-.382ZM50.835 14.1h-3.054V9.465h3.054v.55h-2.44v1.27h2.438v.548h-2.437v1.722h2.437l.002.547ZM55.731 15.15h-.586v-1.061H51.87v1.061h-.586v-1.596h.375a5.839 5.839 0 0 0 .645-1.738 10.7 10.7 0 0 0 .251-2.352h2.736v4.09h.438l.002 1.596Zm-1.055-1.598v-3.55h-1.55a10.062 10.062 0 0 1-.274 2.034 5.383 5.383 0 0 1-.599 1.518l2.423-.002ZM60.24 14.1h-.617v-4.086h-2.312V14.1h-.617V9.464h3.547v4.637ZM64.583 10.865c.002.196-.035.39-.107.572-.069.17-.17.326-.3.457-.16.16-.354.283-.566.36a2.423 2.423 0 0 1-.823.119h-.617V14.1h-.617V9.464h1.259c.237-.004.475.02.707.07.183.043.357.117.515.22.17.112.312.264.41.443.102.207.15.437.139.668Zm-.642.017a.97.97 0 0 0-.084-.412.702.702 0 0 0-.255-.29 1.028 1.028 0 0 0-.342-.138 2.305 2.305 0 0 0-.483-.04h-.617v1.85h.52c.208.006.416-.017.617-.068a.86.86 0 0 0 .38-.205c.09-.09.16-.197.206-.315.042-.123.062-.252.058-.382ZM69 14.1h-.618v-3.714l-2.303 3.715h-.618V9.464h.618v3.66l2.275-3.66h.65l-.005 4.637ZM73.856 14.1h-.617v-2.262h-2.314v2.263h-.617V9.464h.617v1.819h2.314V9.464h.617v4.637ZM78.704 14.1h-.617v-3.714l-2.304 3.715h-.617V9.464h.617v3.66l2.279-3.66h.65l-.008 4.637ZM84.142 14.1h-.617v-3.994l-1.29 2.726h-.368l-1.28-2.718v3.987h-.575V9.464h.841l1.235 2.582 1.195-2.582h.855l.004 4.637ZM89.106 14.1h-.656l-.454-1.29H85.99l-.455 1.29h-.617l1.687-4.636h.823l1.678 4.637Zm-1.302-1.822-.823-2.275-.822 2.275h1.645ZM93.181 10.014h-1.656V14.1h-.617v-4.087h-1.656v-.55h3.93v.55ZM96.923 14.1H93.87V9.465h3.054v.55h-2.44v1.27h2.438v.548h-2.437v1.722h2.437l.002.547ZM101.401 14.1h-.617v-4.087h-1.675c0 .235-.008.465-.026.69a7.723 7.723 0 0 0-.027.602c-.017.444-.044.81-.082 1.097-.029.24-.079.476-.148.707a1.757 1.757 0 0 1-.206.447c-.074.11-.16.213-.257.304a.958.958 0 0 1-.307.206 1.049 1.049 0 0 1-.368.06H97.398v-.624H97.604c.07 0 .14-.012.205-.035a.412.412 0 0 0 .169-.105 1.44 1.44 0 0 0 .325-.728c.084-.476.134-.957.148-1.44a78.392 78.392 0 0 0 .062-1.736h2.88l.008 4.643ZM106.179 12.665c.004.213-.041.424-.131.617a1.24 1.24 0 0 1-.354.447 1.643 1.643 0 0 1-.56.292 2.825 2.825 0 0 1-.771.086h-1.646V9.464h.617v1.819h1.054c.258-.004.516.014.771.055.203.041.394.13.555.26.155.118.275.275.35.454.079.195.118.403.115.613Zm-.644.013a1.019 1.019 0 0 0-.078-.412.645.645 0 0 0-.243-.286.866.866 0 0 0-.394-.14 6.087 6.087 0 0 0-.632-.024h-.86v1.758h.844c.212.004.425-.01.635-.04a1 1 0 0 0 .391-.157.754.754 0 0 0 .255-.284.928.928 0 0 0 .08-.415h.002ZM110.694 13.766l-.31.14a3.132 3.132 0 0 1-.774.238 2.634 2.634 0 0 1-.489.041 2.816 2.816 0 0 1-.918-.142 1.87 1.87 0 0 1-.726-.444 2.026 2.026 0 0 1-.467-.753c-.118-.34-.175-.699-.168-1.06-.006-.349.049-.697.162-1.028.101-.283.262-.542.473-.757.202-.204.447-.361.716-.46.298-.11.613-.163.93-.159.251 0 .502.03.746.09.286.075.562.182.823.317v.733h-.047a2.743 2.743 0 0 0-.759-.467 2.205 2.205 0 0 0-.806-.146 1.682 1.682 0 0 0-.634.113c-.192.079-.365.2-.504.354a1.627 1.627 0 0 0-.335.59 2.608 2.608 0 0 0-.12.823c-.006.286.038.57.132.841.075.212.191.407.342.574.141.151.314.268.508.341.197.075.406.113.617.112.285.002.569-.05.835-.153.27-.11.517-.268.73-.466h.043v.728ZM114.938 10.014h-1.656V14.1h-.617v-4.087h-1.656v-.55h3.929v.55ZM119.12 12.675a1.37 1.37 0 0 1-.13.617c-.082.17-.203.32-.352.437-.17.134-.365.234-.574.292-.26.064-.528.093-.796.086h-1.645V9.464h1.374c.253-.004.507.008.759.037.169.026.332.078.483.157a.867.867 0 0 1 .371.343c.08.156.12.33.115.504a.938.938 0 0 1-.169.562 1.216 1.216 0 0 1-.448.372v.025c.286.05.547.194.74.411.186.225.283.51.272.8Zm-1.029-2.09a.658.658 0 0 0-.055-.283.436.436 0 0 0-.181-.188.875.875 0 0 0-.356-.104 5.338 5.338 0 0 0-.517-.021h-.742v1.341h.798c.154.003.308-.007.461-.029a.86.86 0 0 0 .317-.123.511.511 0 0 0 .205-.24.9.9 0 0 0 .062-.353h.008Zm.395 2.115a.992.992 0 0 0-.084-.446.673.673 0 0 0-.305-.28 1.026 1.026 0 0 0-.362-.1 4.84 4.84 0 0 0-.518-.023h-.977v1.723h.823c.221.004.443-.01.662-.04.151-.02.295-.073.424-.155a.784.784 0 0 0 .255-.278.877.877 0 0 0 .074-.4h.008ZM123.715 14.1h-.656l-.454-1.29h-2.006l-.455 1.29h-.617l1.687-4.636h.823l1.678 4.637Zm-1.302-1.822-.823-2.275-.822 2.275h1.645ZM42.557 22.946h-.617V19.23l-2.304 3.715h-.617v-4.637h.617v3.66l2.275-3.66h.65l-.004 4.637ZM49.71 22.946h-.617V19.23l-2.297 3.715h-.617v-4.637h.617v3.66l2.263-3.66h.65l.002 4.637ZM54.567 22.946h-.617v-2.263h-2.314v2.263h-.617v-4.637h.617v1.819h2.314v-1.819h.617v4.637ZM59.421 22.946h-.617v-2.263h-2.312v2.263h-.617v-4.637h.617v1.819h2.314v-1.819h.617l-.002 4.637ZM64.188 18.842c.196.221.344.481.434.763.105.333.156.68.15 1.029a3.18 3.18 0 0 1-.154 1.028 2.1 2.1 0 0 1-.432.755 1.851 1.851 0 0 1-.677.473 2.553 2.553 0 0 1-1.781 0 1.84 1.84 0 0 1-.681-.47 2.107 2.107 0 0 1-.432-.758c-.2-.665-.2-1.375 0-2.04.09-.285.239-.547.436-.772.188-.206.42-.365.68-.465.283-.11.584-.165.887-.162.306-.005.61.05.895.163.256.1.486.256.675.456Zm-.056 1.788c0-.602-.137-1.066-.411-1.393a1.493 1.493 0 0 0-2.215 0c-.275.327-.412.79-.412 1.393 0 .602.137 1.067.412 1.396a1.495 1.495 0 0 0 2.203 0c.28-.323.422-.789.423-1.396ZM69.312 21.52a1.36 1.36 0 0 1-.13.618c-.082.17-.202.32-.352.436a1.63 1.63 0 0 1-.573.292c-.26.064-.529.093-.797.086h-1.645V18.31h1.374c.254-.005.507.007.76.037.168.025.331.077.482.156a.862.862 0 0 1 .37.343c.081.156.121.33.116.504a.932.932 0 0 1-.169.562c-.117.159-.27.287-.448.372v.025c.286.05.547.194.74.411.186.225.283.51.272.8Zm-1.029-2.09a.643.643 0 0 0-.055-.283.434.434 0 0 0-.181-.187.875.875 0 0 0-.356-.105 5.349 5.349 0 0 0-.516-.02h-.735v1.34h.798c.154.003.309-.006.461-.029a.855.855 0 0 0 .317-.123.516.516 0 0 0 .206-.24.922.922 0 0 0 .053-.352h.008Zm.395 2.115a.99.99 0 0 0-.084-.446.675.675 0 0 0-.304-.28 1.028 1.028 0 0 0-.363-.1 4.85 4.85 0 0 0-.518-.023h-.969v1.723h.823c.222.004.443-.01.662-.04.151-.02.296-.073.424-.155a.781.781 0 0 0 .255-.278.868.868 0 0 0 .066-.4h.008ZM73.905 22.946h-.656l-.454-1.292h-2.006l-.455 1.292h-.617l1.687-4.637h.823l1.678 4.637Zm-1.302-1.823-.822-2.275-.823 2.275h1.645ZM78.042 22.946h-3.37v-4.637h.618v4.096h2.28v-4.096h.618v4.096h.438v1.592h-.584v-1.051ZM83.131 22.946h-.617V19.23l-2.304 3.715h-.617v-4.637h.617v3.66l2.275-3.66h.65l-.004 4.637ZM87.897 18.842c.196.221.344.481.434.763.105.333.156.68.15 1.029a3.18 3.18 0 0 1-.154 1.028 2.1 2.1 0 0 1-.432.755 1.851 1.851 0 0 1-.677.473 2.553 2.553 0 0 1-1.781 0 1.838 1.838 0 0 1-.681-.47 2.106 2.106 0 0 1-.432-.758 3.54 3.54 0 0 1 0-2.04c.09-.285.239-.547.436-.772.188-.206.42-.365.68-.465.283-.11.584-.165.887-.162.306-.005.61.05.895.163.256.1.486.256.675.456Zm-.056 1.788c0-.602-.137-1.066-.411-1.393a1.493 1.493 0 0 0-2.216 0c-.274.327-.41.79-.41 1.393 0 .602.136 1.067.41 1.396a1.495 1.495 0 0 0 2.204 0c.28-.323.421-.789.421-1.396h.002ZM93.079 22.946h-.618v-2.263H90.14v2.263h-.617v-4.637h.617v1.819h2.322v-1.819h.618v4.637ZM97.924 22.946h-.617v-2.263h-2.312v2.263h-.617v-4.637h.617v1.819h2.314v-1.819h.617l-.002 4.637ZM102.691 18.842c.196.221.344.481.434.763.105.333.156.68.15 1.029.005.349-.047.696-.155 1.028a2.076 2.076 0 0 1-.432.755 1.85 1.85 0 0 1-.676.473 2.555 2.555 0 0 1-1.782 0 1.84 1.84 0 0 1-.68-.47 2.106 2.106 0 0 1-.432-.758 3.54 3.54 0 0 1 0-2.04c.09-.285.239-.547.436-.772a1.79 1.79 0 0 1 .68-.465c.283-.11.584-.165.887-.162.306-.005.61.05.895.163.256.1.486.256.675.456Zm-.056 1.788c0-.602-.137-1.066-.411-1.393a1.496 1.496 0 0 0-2.216 0c-.274.327-.411.79-.411 1.393 0 .602.137 1.067.411 1.396a1.501 1.501 0 0 0 1.102.484 1.49 1.49 0 0 0 1.101-.484c.281-.323.422-.789.422-1.396h.002ZM107.313 18.858h-2.38v4.088h-.617v-4.637h2.997v.55ZM111.449 18.842c.196.221.344.481.434.763.105.333.156.68.15 1.029.005.349-.047.696-.154 1.028-.09.28-.237.536-.432.755a1.854 1.854 0 0 1-.677.473 2.552 2.552 0 0 1-1.781 0 1.835 1.835 0 0 1-.681-.47 2.1 2.1 0 0 1-.432-.758c-.2-.665-.2-1.375 0-2.04.09-.285.239-.547.436-.772.188-.206.421-.365.681-.465.282-.11.583-.165.886-.162.304-.004.606.05.889.162.258.1.491.256.681.457Zm-.064 1.788c0-.602-.137-1.067-.411-1.393a1.496 1.496 0 0 0-2.216 0c-.274.326-.411.79-.411 1.393 0 .602.137 1.067.411 1.396a1.501 1.501 0 0 0 1.102.484 1.49 1.49 0 0 0 1.101-.484c.283-.323.424-.789.424-1.396ZM118.412 19.71c.002.196-.034.39-.107.572-.068.17-.17.326-.3.457-.16.16-.353.283-.566.36a2.423 2.423 0 0 1-.822.119h-.618v1.728h-.617v-4.637h1.259c.239-.002.477.023.71.076.183.043.357.117.514.22.171.112.313.264.412.443.099.206.146.434.135.662Zm-.641.017a.972.972 0 0 0-.085-.412.696.696 0 0 0-.255-.29 1.022 1.022 0 0 0-.341-.138 2.316 2.316 0 0 0-.484-.04h-.617v1.85h.521c.207.006.415-.017.617-.067a.86.86 0 0 0 .38-.206c.09-.09.16-.197.206-.315.039-.123.056-.253.049-.382h.009ZM122.946 22.946h-.658l-.455-1.292h-2.014l-.454 1.292h-.617l1.688-4.637h.823l1.687 4.637Zm-1.302-1.823-.823-2.275-.823 2.275h1.646ZM126.346 20.714c.104.093.188.206.247.331.072.163.105.34.099.519.003.206-.046.41-.142.592a1.558 1.558 0 0 1-.36.45 1.645 1.645 0 0 1-.617.317 2.716 2.716 0 0 1-.772.105c-.501 0-.999-.089-1.468-.265v-.691h.047c.219.128.452.229.695.3.24.075.49.115.741.117.164-.002.327-.024.485-.066.154-.033.298-.1.424-.193a.858.858 0 0 0 .245-.313.951.951 0 0 0 .076-.386.785.785 0 0 0-.093-.412.732.732 0 0 0-.253-.253 1.18 1.18 0 0 0-.384-.135 2.773 2.773 0 0 0-.502-.042h-.617v-.518h.559c.302.012.602-.06.866-.206a.624.624 0 0 0 .327-.572.535.535 0 0 0-.082-.296.589.589 0 0 0-.226-.205 1.104 1.104 0 0 0-.313-.107 2.245 2.245 0 0 0-.411-.033c-.151-.001-.302.015-.449.047a3.97 3.97 0 0 0-.389.11 2.417 2.417 0 0 0-.304.133l-.226.121h-.041v-.668c.199-.08.406-.141.617-.183a3.658 3.658 0 0 1 1.435-.025c.18.041.353.11.511.206.15.089.277.213.37.362.087.148.131.319.127.491a.946.946 0 0 1-.253.669 1.194 1.194 0 0 1-.641.358v.047c.118.022.234.055.345.1.119.047.23.112.327.194ZM131.199 21.52a1.37 1.37 0 0 1-.13.618c-.082.17-.203.32-.352.436-.17.134-.365.234-.574.292a3.03 3.03 0 0 1-.796.086h-1.645V18.31h1.374a5.65 5.65 0 0 1 .759.037c.168.025.332.077.483.156a.86.86 0 0 1 .37.343c.081.156.121.33.116.504a.938.938 0 0 1-.169.562 1.21 1.21 0 0 1-.449.372v.025c.287.05.548.194.741.411.186.225.282.51.272.8Zm-1.029-2.09a.635.635 0 0 0-.066-.283.436.436 0 0 0-.181-.187.875.875 0 0 0-.356-.105 5.342 5.342 0 0 0-.516-.02h-.734v1.34h.798c.154.003.308-.006.461-.029a.86.86 0 0 0 .323-.115.512.512 0 0 0 .205-.24.92.92 0 0 0 .058-.36h.008Zm.395 2.115a.993.993 0 0 0-.084-.446.679.679 0 0 0-.305-.28 1.024 1.024 0 0 0-.362-.1 4.84 4.84 0 0 0-.518-.023h-.969v1.723h.823c.221.004.443-.01.662-.04.151-.02.296-.073.424-.155a.784.784 0 0 0 .255-.278.875.875 0 0 0 .068-.4h.006ZM135.679 22.946h-.617V19.23l-2.304 3.715h-.617v-4.637h.617v3.66l2.275-3.66h.65l-.004 4.637ZM140.294 18.858h-1.656v4.088h-.617v-4.088h-1.656v-.549h3.929v.55ZM144.522 22.946h-.617V19.23l-2.304 3.715h-.617v-4.637h.617v3.66l2.275-3.66h.65l-.004 4.637ZM149.087 22.946h-.618v-1.851h-.999l-1.387 1.851h-.74l1.489-1.938a1.493 1.493 0 0 1-.724-.49 1.416 1.416 0 0 1-.257-.888 1.198 1.198 0 0 1 .148-.617 1.329 1.329 0 0 1 .907-.646c.215-.043.435-.064.654-.062h1.527v4.641Zm-.618-2.357V18.84h-.94a2.162 2.162 0 0 0-.43.035.825.825 0 0 0-.296.126.646.646 0 0 0-.224.271.9.9 0 0 0-.08.383c-.004.14.016.278.057.411.039.11.102.21.186.292a.7.7 0 0 0 .341.183c.155.034.313.05.471.048h.915ZM42.328 28.053H40.18v3.74H38.98v-4.639h3.345l.004.9ZM47.619 29.475a2.415 2.415 0 0 1-.636 1.76c-.424.435-1.01.653-1.757.653-.747 0-1.331-.218-1.752-.652a2.415 2.415 0 0 1-.636-1.761c0-.745.212-1.334.636-1.767.424-.433 1.008-.65 1.752-.65s1.328.216 1.753.65a2.41 2.41 0 0 1 .64 1.767Zm-1.584 1.174c.12-.147.208-.317.259-.5.06-.22.088-.448.084-.676.005-.24-.027-.48-.096-.71a1.382 1.382 0 0 0-.253-.473.944.944 0 0 0-.367-.271 1.162 1.162 0 0 0-.86 0c-.141.06-.267.15-.368.267a1.318 1.318 0 0 0-.253.481c-.069.231-.102.471-.098.712-.006.239.026.477.094.706.052.173.138.334.251.475a.957.957 0 0 0 .364.271 1.128 1.128 0 0 0 .877-.002.96.96 0 0 0 .366-.28ZM52.422 28.619c0 .21-.036.42-.11.617a1.353 1.353 0 0 1-.31.5 1.905 1.905 0 0 1-.617.411c-.27.101-.559.149-.848.14h-.744v1.51h-1.195v-4.643h1.968c.251-.005.502.021.747.076.19.046.372.123.537.229.181.117.329.28.428.47.102.216.152.452.144.69Zm-1.235.027a.547.547 0 0 0-.104-.338.576.576 0 0 0-.247-.205 1.116 1.116 0 0 0-.364-.083H49.793v1.387h.343c.168.003.336-.01.502-.037a.71.71 0 0 0 .331-.148.574.574 0 0 0 .167-.239.97.97 0 0 0 .051-.337ZM57.842 29.475a2.415 2.415 0 0 1-.635 1.76c-.424.435-1.01.653-1.757.653-.747 0-1.332-.218-1.753-.652a2.414 2.414 0 0 1-.635-1.761c0-.745.212-1.334.635-1.767.424-.433 1.008-.65 1.753-.65.743 0 1.327.216 1.752.65a2.41 2.41 0 0 1 .64 1.767Zm-1.584 1.174c.12-.147.208-.317.26-.5.06-.22.088-.448.084-.676.005-.24-.027-.48-.097-.71a1.384 1.384 0 0 0-.253-.473.943.943 0 0 0-.366-.271 1.163 1.163 0 0 0-.86 0c-.141.06-.267.15-.368.267a1.316 1.316 0 0 0-.253.481c-.07.231-.103.471-.099.712-.005.239.027.477.095.706.052.173.137.334.25.475.1.12.229.214.373.273a1.126 1.126 0 0 0 .877-.002.96.96 0 0 0 .357-.282ZM63.371 32.856h-1.098v-1.08h-2.816v1.08h-1.099v-1.964h.352c.254-.544.44-1.116.553-1.705.131-.67.196-1.35.192-2.03h3.46v3.735h.456v1.964Zm-1.645-1.964v-2.839h-1.158a8.508 8.508 0 0 1-.247 1.566 7.107 7.107 0 0 1-.457 1.275l1.862-.002ZM68.53 31.79h-1.234l-.323-.937h-1.716l-.323.938H63.73l1.713-4.637h1.377l1.711 4.637Zm-1.851-1.787-.57-1.66-.57 1.66h1.14ZM76.365 31.79h-1.183v-3.103l-.86 2.014H73.5l-.86-2.014v3.104h-1.127v-4.637H72.9l1.043 2.327 1.033-2.327h1.388v4.637ZM82.12 29.475a2.413 2.413 0 0 1-.635 1.76c-.424.435-1.01.653-1.757.653-.747 0-1.331-.218-1.752-.652a2.414 2.414 0 0 1-.636-1.761c0-.745.212-1.334.636-1.767.424-.433 1.008-.65 1.752-.65s1.328.216 1.753.65a2.41 2.41 0 0 1 .64 1.767Zm-1.583 1.174a1.39 1.39 0 0 0 .259-.5c.06-.22.088-.448.084-.676.005-.24-.027-.48-.096-.71a1.378 1.378 0 0 0-.254-.473.942.942 0 0 0-.366-.271 1.162 1.162 0 0 0-.86 0c-.141.06-.267.15-.368.267a1.32 1.32 0 0 0-.253.481c-.069.231-.102.471-.098.712-.006.239.026.477.094.706.052.173.138.334.251.475.098.12.224.213.366.273a1.126 1.126 0 0 0 .877-.002.961.961 0 0 0 .358-.282h.006ZM85.192 31.881a2.88 2.88 0 0 1-.955-.152 1.977 1.977 0 0 1-1.234-1.207 2.904 2.904 0 0 1-.173-1.043c-.005-.34.051-.679.165-1 .102-.288.266-.55.479-.77.211-.212.467-.375.749-.476.313-.116.644-.173.977-.17a3.617 3.617 0 0 1 .963.12c.128.036.255.08.378.132.112.05.212.094.298.136v1.123h-.138a5.523 5.523 0 0 0-.22-.177 2.096 2.096 0 0 0-.67-.372 1.44 1.44 0 0 0-.905.012 1.166 1.166 0 0 0-.412.263 1.286 1.286 0 0 0-.298.47c-.081.226-.12.466-.113.707a1.88 1.88 0 0 0 .123.726c.068.175.174.332.31.46.122.112.267.196.425.245a1.465 1.465 0 0 0 .893.008c.138-.041.27-.1.394-.176a2.61 2.61 0 0 0 .49-.368h.125v1.108l-.333.146c-.108.047-.22.087-.333.12a4 4 0 0 1-.426.098 3.39 3.39 0 0 1-.56.037ZM92.1 31.791h-1.467l-1.37-1.872h-.299v1.872H87.77v-4.636h1.195v1.89c.082-.002.163-.012.243-.029a.5.5 0 0 0 .177-.082 1 1 0 0 0 .181-.185c.075-.097.144-.199.206-.305a6.77 6.77 0 0 0 .148-.265l.138-.253c.12-.235.293-.44.504-.599a1.44 1.44 0 0 1 .8-.179H91.828v1.006h-.346a.564.564 0 0 0-.397.132 1.736 1.736 0 0 0-.313.46 2.87 2.87 0 0 1-.28.46.76.76 0 0 1-.205.189l1.812 2.396ZM96.721 30.372a1.235 1.235 0 0 1-.508 1.039c-.18.135-.384.234-.602.292-.27.063-.547.091-.823.086h-2.024v-4.635h1.8c.274-.005.55.008.822.038.18.026.355.082.517.164.163.078.3.204.392.36a1.084 1.084 0 0 1-.047 1.109c-.126.178-.3.317-.502.4v.026c.274.045.526.176.72.374.18.206.27.474.255.747Zm-1.532-1.907c-.001-.08-.02-.16-.058-.23a.358.358 0 0 0-.205-.171.995.995 0 0 0-.325-.054h-.658v.981H94.612a.864.864 0 0 0 .315-.061c.089-.034.162-.1.205-.185a.652.652 0 0 0 .056-.28Zm.29 1.886a.58.58 0 0 0-.087-.341.518.518 0 0 0-.29-.18 1.515 1.515 0 0 0-.384-.042h-.774v1.145h.809c.137 0 .274-.027.4-.08a.49.49 0 0 0 .258-.206.616.616 0 0 0 .068-.294v-.002ZM101.629 30.304c.001.212-.043.423-.13.617-.079.18-.2.34-.353.465-.174.143-.375.25-.591.312a2.79 2.79 0 0 1-.742.087h-2.14v-4.63h1.195v1.721h.963c.266-.005.531.018.792.07.2.043.387.131.547.257.158.122.279.285.35.471.075.201.112.415.109.63Zm-1.234.035a.94.94 0 0 0-.025-.218.412.412 0 0 0-.109-.19.59.59 0 0 0-.23-.134 1.31 1.31 0 0 0-.412-.049h-.753v1.185h.753c.12.002.24-.015.354-.05a.63.63 0 0 0 .241-.127.57.57 0 0 0 .179-.42l.002.002Zm2.88 1.454h-1.196v-4.639h1.196v4.639Z" fill="#fff"/></svg>