<svg width="131" height="23" fill="none" xmlns="http://www.w3.org/2000/svg"><path d="M35.156 15.953V9.05h-2.47V7.087h6.967V9.05h-2.47v6.903h-2.027Zm-8.424-4.687h2.026c.295 0 .537-.1.723-.304.194-.212.29-.49.29-.835 0-.347-.096-.622-.29-.824a.914.914 0 0 0-.723-.316h-2.026v2.28Zm-2.026 4.687V7.087h4.18c.86 0 1.56.279 2.1.835.541.558.812 1.292.812 2.205 0 1.122-.413 1.937-1.24 2.444-.38.22-.79.354-1.23.405l2.723 2.977h-2.533l-2.533-2.85h-.253v2.85h-2.026Zm-6.717-3.547h2.28L19.255 9.24h-.253l-1.013 3.166Zm-3.355 3.547 3.038-8.866h2.913l3.042 8.866h-2.216l-.57-1.773h-3.422l-.57 1.773h-2.215Zm-4.183 0V9.05h-2.47V7.087h6.966V9.05h-2.47v6.903h-2.026ZM0 13.04h2.026c0 .372.145.674.432.912.287.235.693.354 1.215.354.507 0 .887-.089 1.14-.265.253-.176.38-.406.38-.685a.706.706 0 0 0-.291-.582c-.186-.152-.51-.275-.976-.368l-1.393-.253c-.793-.144-1.385-.414-1.773-.811-.38-.406-.57-.958-.57-1.659 0-.785.295-1.434.887-1.951.6-.515 1.422-.772 2.47-.772 1.14 0 2.026.28 2.66.835.632.558.949 1.293.949 2.205H5.13c0-.362-.145-.663-.432-.899-.287-.245-.67-.368-1.152-.368-.431 0-.76.093-.987.28a.82.82 0 0 0-.343.67c0 .228.076.406.228.533.16.118.443.215.849.29l1.393.254c.887.16 1.528.443 1.926.849.405.405.607.987.607 1.747 0 .794-.308 1.449-.924 1.963-.615.507-1.49.76-2.622.76s-2.026-.287-2.685-.86c-.66-.574-.988-1.3-.988-2.18ZM120.741 15.953l-2.153-8.866h2.216l1.267 5.383h.253l1.393-5.383h2.153l1.394 5.383h.253l1.266-5.383H131l-2.153 8.866h-2.597l-1.329-5.32h-.254l-1.33 5.32h-2.596Zm-8.913-2.545c.439.473.983.708 1.634.708.651 0 1.192-.235 1.621-.708.439-.481.659-1.11.659-1.888 0-.778-.22-1.401-.659-1.874a2.087 2.087 0 0 0-1.621-.723c-.651 0-1.195.242-1.634.723-.432.473-.646 1.098-.646 1.874-.001.777.214 1.405.646 1.888Zm4.698 1.379c-.827.86-1.849 1.292-3.066 1.292-1.215 0-2.238-.431-3.065-1.292-.827-.86-1.241-1.951-1.241-3.267 0-1.316.414-2.407 1.241-3.268.827-.86 1.848-1.292 3.065-1.292 1.215 0 2.239.432 3.066 1.292.827.861 1.241 1.952 1.241 3.268 0 1.316-.414 2.406-1.241 3.267Zm-10.544-2.19h2.026a4.849 4.849 0 0 1-.722 1.747c-.752 1.158-1.862 1.735-3.331 1.735-1.215 0-2.238-.431-3.065-1.292-.827-.86-1.241-1.951-1.241-3.267 0-1.316.414-2.407 1.241-3.268.827-.86 1.848-1.292 3.065-1.292 1.435 0 2.537.57 3.305 1.71.329.489.578 1.059.748 1.71h-2.026a2.229 2.229 0 0 0-.392-.722c-.406-.49-.95-.735-1.635-.735-.651 0-1.195.242-1.634.723-.432.473-.645 1.098-.645 1.874 0 .777.215 1.405.645 1.888.439.473.983.708 1.634.708.727 0 1.279-.253 1.659-.76.17-.22.293-.473.368-.76Zm-14.815.443h2.027c0 .372.144.674.431.912.287.235.693.354 1.215.354.507 0 .887-.089 1.14-.265.253-.178.38-.406.38-.685a.706.706 0 0 0-.29-.582c-.187-.152-.511-.275-.977-.368l-1.393-.253c-.793-.144-1.385-.414-1.773-.811-.38-.406-.57-.958-.57-1.659 0-.785.295-1.434.887-1.951.6-.515 1.423-.772 2.47-.772 1.14 0 2.026.28 2.66.835.633.556.95 1.293.95 2.205h-2.027c0-.362-.145-.663-.432-.899-.287-.245-.67-.368-1.151-.368-.432 0-.76.093-.988.28a.82.82 0 0 0-.342.67c0 .228.075.406.227.533.16.118.444.215.85.29l1.392.254c.887.16 1.528.443 1.926.849.406.405.608.987.608 1.747 0 .794-.31 1.449-.925 1.963-.615.507-1.49.76-2.622.76s-2.026-.287-2.685-.86c-.66-.574-.988-1.3-.988-2.18Zm-7.077.368c.44.473.984.708 1.635.708s1.191-.235 1.62-.708c.44-.481.66-1.11.66-1.888 0-.778-.22-1.401-.66-1.874a2.087 2.087 0 0 0-1.62-.723c-.65 0-1.195.242-1.635.723-.431.473-.645 1.098-.645 1.874 0 .777.216 1.405.645 1.888Zm4.7 1.379c-.827.86-1.848 1.292-3.065 1.292-1.217 0-2.238-.431-3.065-1.292-.828-.86-1.241-1.951-1.241-3.267 0-1.316.413-2.407 1.24-3.268.828-.86 1.849-1.292 3.066-1.292 1.217 0 2.238.432 3.065 1.292.828.861 1.241 1.952 1.241 3.268 0 1.316-.413 2.406-1.24 3.267Zm-19.02 1.166V7.087h3.104l1.773 5.51h.253l1.773-5.51h3.103v8.866H77.75v-5.446h-.254l-1.773 5.446h-1.9l-1.773-5.446h-.253v5.446h-2.026Z" fill="#fff"/><path d="M49.589 2.694h-9.994l17.613 17.613h9.994L49.589 2.694Z" fill="#EB00FF"/><path d="M69.973.319H59.78L37.419 22.68H47.61L69.973.32Z" fill="#EB00FF"/></svg>