<svg width="125" height="32" fill="none" xmlns="http://www.w3.org/2000/svg"><path fill-rule="evenodd" clip-rule="evenodd" d="M24.128.624a7.847 7.847 0 0 0-7.845 7.844v7.845H8.447c-4.33 0-7.844 3.505-7.844 7.836a7.847 7.847 0 0 0 7.844 7.845 7.847 7.847 0 0 0 7.845-7.845v-7.845H24.137a7.847 7.847 0 0 0 7.845-7.845A7.853 7.853 0 0 0 24.128.624Z" fill="#D4D8EE"/><path d="M50.433 13.396v-2.404h8.772v2.404h-3.037v8.68h-2.689v-8.68h-3.046ZM64.544 15.074l-1.238 2.817h2.45l-1.212-2.817Zm2.79 7-1.046-2.137h-3.514l-1.028 2.138h-3.037l5.845-11.781 5.826 11.78h-3.046ZM75.922 13.193h-1.175v2.835h1.175c.541 0 .963-.119 1.266-.367.303-.238.459-.587.459-1.046 0-.467-.156-.816-.459-1.064-.312-.239-.734-.358-1.266-.358Zm-3.854-2.202h3.845c1.413 0 2.486.321 3.211.964.725.642 1.092 1.532 1.092 2.66 0 1.12-.367 2.01-1.092 2.661-.725.643-1.798.964-3.211.964h-1.175v3.835H72.06V10.99h.01ZM81.142 13.396v-2.404h8.772v2.404h-3.046v8.68h-2.689v-8.68h-3.037ZM98.401 10.992h3.321l-3.477 5.395 3.707 5.688h-3.313l-2.027-3.679-2.092 3.68h-3.303l3.798-5.69-3.404-5.394h3.303l1.734 3.211 1.753-3.211ZM108.622 15.074l-1.239 2.817h2.45l-1.211-2.817Zm2.789 7-1.046-2.137h-3.514l-1.027 2.138h-3.037l5.844-11.781 5.826 11.78h-3.046ZM120.641 17.34h-1.679v2.533h1.679c.514 0 .918-.101 1.184-.303.284-.211.431-.532.431-.963 0-.432-.147-.753-.431-.955-.266-.21-.67-.312-1.184-.312Zm-4.404-6.349h7.919v2.202h-5.194v1.982h2.267c.715 0 1.358.147 1.917.44a3.356 3.356 0 0 1 1.349 1.202c.339.505.505 1.102.505 1.79 0 .679-.166 1.275-.505 1.807-.33.514-.78.927-1.349 1.22-.559.294-1.202.44-1.917.44h-4.992V10.992ZM42.442 16.533c0 .68.146 1.257.44 1.743.303.487.716.863 1.22 1.129a3.57 3.57 0 0 0 1.643.376c.78 0 1.431-.147 1.963-.44l1.349 1.88a5.65 5.65 0 0 1-1.459.808c-.532.202-1.202.303-2.01.303-1.183 0-2.229-.239-3.146-.725a5.467 5.467 0 0 1-2.157-2.028c-.513-.871-.78-1.89-.78-3.037s.257-2.156.78-3.027a5.387 5.387 0 0 1 2.157-2.046c.917-.487 1.972-.725 3.147-.725.816 0 1.486.1 2.009.302.532.202 1.01.468 1.459.808l-1.349 1.88c-.532-.293-1.183-.44-1.963-.44-.588 0-1.138.129-1.643.395a3.026 3.026 0 0 0-1.22 1.11c-.294.468-.44 1.046-.44 1.734Z" fill="#D4D8EE"/></svg>